<?xml version="1.0" standalone="no"?>
<!DOCTYPE svg PUBLIC "-//W3C//DTD SVG 1.1//EN" "http://www.w3.org/Graphics/SVG/1.1/DTD/svg11.dtd" >
<svg xmlns="http://www.w3.org/2000/svg" xmlns:xlink="http://www.w3.org/1999/xlink" version="1.1">
<metadata></metadata>
<defs>
<font id="nissan_agbold" horiz-adv-x="1482" >
<font-face units-per-em="2048" ascent="1536" descent="-512" />
<missing-glyph horiz-adv-x="598" />
<glyph unicode="&#xfb01;" horiz-adv-x="1323" d="M20 852v192h168v154q0 70 25 120t68 84t101 50t128 16q29 0 59.5 -3t58 -6t47 -6t23.5 -3v-238h-57q-49 0 -77.5 -5t-42 -17t-17.5 -32.5t-4 -49.5v-64h211v-192h-209v-852h-314v852h-168zM866 0v1069h314v-1069h-314zM866 1202v244h314v-244h-314z" />
<glyph unicode="&#xfb02;" horiz-adv-x="1323" d="M20 852v192h168v154q0 70 25 120t68 84t101 50t128 16q29 0 59.5 -3t58 -6t47 -6t23.5 -3v-238h-57q-49 0 -77.5 -5t-42 -17t-17.5 -32.5t-4 -49.5v-64h211v-192h-209v-852h-314v852h-168zM866 0v1446h314v-1446h-314z" />
<glyph horiz-adv-x="0" />
<glyph unicode="&#xd;" horiz-adv-x="598" />
<glyph unicode=" "  horiz-adv-x="598" />
<glyph unicode="&#x09;" horiz-adv-x="598" />
<glyph unicode="&#xa0;" horiz-adv-x="598" />
<glyph unicode="!" horiz-adv-x="598" d="M184 0v348h328v-348h-328zM184 1014v432h328v-418l-98 -530h-138z" />
<glyph unicode="&#x22;" horiz-adv-x="651" d="M55 1522h211l-67 -623h-76zM387 1522h211l-68 -623h-75z" />
<glyph unicode="#" horiz-adv-x="1366" d="M86 381v254h229l27 194h-205v254h240l51 363h254l-51 -363h205l49 363h256l-49 -363h186v-254h-223l-25 -194h201v-254h-238l-53 -381h-258l55 381h-202l-54 -381h-254l52 381h-193zM569 635h203l29 194h-205z" />
<glyph unicode="$" horiz-adv-x="1366" d="M53 168l189 213q18 -10 53 -28.5t82 -39t105.5 -36t123.5 -19.5v315q-70 12 -155.5 33t-161.5 63t-126 113.5t-50 188.5q0 137 53 223t130 133t161 65.5t147 20.5v236h166v-236q82 -8 153.5 -28.5t130 -45t102.5 -49t71 -43.5l-180 -209q-57 29 -97.5 46.5t-71 27.5 t-55 15.5t-53.5 11.5v-273q104 -23 195.5 -51.5t161 -76.5t109.5 -118.5t40 -175.5q0 -98 -34 -180t-99.5 -143.5t-158.5 -98t-214 -42.5v-246h-164v246q-98 8 -176 25.5t-143.5 41t-121.5 54t-112 67.5zM440 1008q0 -47 38 -72t128 -41v246q-27 -2 -56.5 -10.5t-54 -24.5 t-40 -40t-15.5 -58zM770 262q23 2 53.5 11.5t58 27.5t47 47t19.5 70q0 37 -18.5 59.5t-45 35.5t-58 19.5t-56.5 10.5v-281z" />
<glyph unicode="%" horiz-adv-x="1792" d="M53 938q0 74 14.5 157t51.5 152.5t101.5 115.5t164.5 46q86 0 147.5 -40t99.5 -105.5t56.5 -152.5t18.5 -179q0 -76 -15.5 -159t-52.5 -150.5t-98.5 -111.5t-153.5 -44t-155.5 38t-103.5 101.5t-57.5 149.5t-17.5 182zM262 922q0 -131 27.5 -206t95.5 -75q55 0 84 76 t29 219q0 57 -5.5 110.5t-19.5 94.5t-36.5 65.5t-57.5 24.5q-63 0 -90 -84t-27 -225zM430 0l768 1477l164 -86l-770 -1477zM1081 459q0 74 14.5 156.5t51.5 152.5t101.5 116t164.5 46q86 0 147.5 -39t99.5 -105.5t56.5 -152.5t18.5 -180q0 -76 -14.5 -159t-51.5 -150.5 t-99.5 -111.5t-158.5 -44q-94 0 -156.5 41t-101.5 107.5t-55.5 150.5t-16.5 172zM1292 442q0 -131 28 -205.5t95 -74.5q55 0 84 76t29 219q0 57 -5 110.5t-19.5 94t-37 65.5t-57.5 25q-63 0 -90 -84t-27 -226z" />
<glyph unicode="&#x26;" horiz-adv-x="1409" d="M59 434q0 94 32 167t82 128t113.5 94t127.5 66q-35 55 -65 117.5t-30 130.5q0 94 38 155.5t93.5 97t120 50t119.5 14.5t117.5 -15.5t115 -52t86 -97t33.5 -148.5q0 -27 -8 -69t-35.5 -89t-82 -94t-144.5 -84q29 -45 58.5 -88t58.5 -86l80 -113q12 27 20 46.5t15.5 41 t15.5 51t18 76.5l256 -94q-20 -61 -34.5 -102t-31 -76t-37 -73t-52.5 -93q29 -43 72.5 -55.5t91.5 -12.5h53v-227h-172q-68 0 -128.5 16.5t-115.5 79.5q-180 -111 -385 -110q-90 0 -178 26.5t-159 82t-115 140t-44 199.5zM373 444q0 -29 11 -66.5t36.5 -70.5t66.5 -55.5 t101 -22.5q57 0 105 19.5t98 48.5l-250 381l-49 -33q-51 -35 -85 -85t-34 -116zM582 1149q0 -35 17 -66.5t52 -89.5q47 25 90 64t43 90q0 45 -29.5 66.5t-70.5 21.5q-39 0 -70.5 -21.5t-31.5 -64.5z" />
<glyph unicode="'" horiz-adv-x="319" d="M55 1522h211l-67 -623h-76z" />
<glyph unicode="(" horiz-adv-x="686" d="M63 639q0 197 60.5 381t177.5 338q59 78 127 146.5t156 135.5l118 -122q-29 -33 -48 -55.5t-34.5 -41t-27.5 -36t-27 -37.5q-98 -141 -148 -313.5t-50 -370.5q0 -272 87 -492.5t251 -366.5l-111 -143q-90 66 -162 134.5t-125 133.5q-121 147 -182.5 326.5t-61.5 382.5z " />
<glyph unicode=")" horiz-adv-x="688" d="M-12 -217q29 33 49 55.5t35.5 41t28 35.5t26.5 38q197 287 197 684q0 272 -87 493.5t-249 364.5l110 143q96 -70 164 -136t121 -132q246 -305 246 -708q0 -199 -60.5 -382.5t-179.5 -338.5q-57 -74 -120.5 -137.5t-162.5 -143.5z" />
<glyph unicode="*" horiz-adv-x="841" d="M33 1079l63 213l207 -61v215h221v-215l211 72l72 -209l-203 -70l125 -160l-174 -137l-135 174l-125 -174l-178 131l116 162z" />
<glyph unicode="+" d="M188 530v267h383v411h340v-411h383v-267h-383v-417h-340v417h-383z" />
<glyph unicode="," horiz-adv-x="512" d="M92 0v344h328v-281q0 -90 -18.5 -158.5t-57.5 -117.5t-100.5 -84t-149.5 -57v145q37 14 60.5 34.5t36 47.5t18.5 58.5t8 68.5h-125z" />
<glyph unicode="-" horiz-adv-x="770" d="M78 485v293h612v-293h-612z" />
<glyph unicode="." horiz-adv-x="512" d="M92 0v342h324v-342h-324z" />
<glyph unicode="/" horiz-adv-x="980" d="M33 0l622 1446h291l-622 -1446h-291z" />
<glyph unicode="0" horiz-adv-x="1150" d="M82 707q0 145 29.5 274t90 224t154 150.5t219.5 55.5q111 0 191 -40t134 -103.5t87 -144.5t51.5 -160.5t23.5 -152.5t5 -122q0 -119 -22.5 -246t-80 -232.5t-154.5 -173t-247 -67.5q-123 0 -213 52.5t-150.5 147.5t-89 231.5t-28.5 306.5zM385 635q0 -59 6 -131 t26.5 -134.5t58.5 -104.5t99 -42q59 0 95.5 41t55.5 106.5t26.5 147.5t7.5 166t-8.5 168t-30 151.5t-57 109.5t-93.5 42q-55 0 -90 -37t-56.5 -104.5t-30.5 -162.5t-9 -216z" />
<glyph unicode="1" horiz-adv-x="1150" d="M180 969v213q63 4 117.5 13t112.5 38q68 35 95 75t48 81h250v-1389h-330v1014q-29 -12 -50.5 -20.5t-50 -13.5t-73.5 -7t-119 -4z" />
<glyph unicode="2" horiz-adv-x="1150" d="M66 891v49q0 123 36.5 212t102 147.5t155 86t193.5 27.5q106 0 193.5 -28.5t148.5 -83t95 -133t34 -179.5q0 -90 -26.5 -173t-89 -169t-166 -181t-255.5 -212q137 2 250 4q49 0 96.5 1t87.5 2t68.5 1h38.5v-262h-952v242q41 31 75.5 58.5t71.5 57t79 65.5t95 81 q61 53 113.5 104t89.5 106.5t58.5 121t21.5 147.5q0 20 -2 53t-15.5 63.5t-42 52.5t-81.5 22q-20 0 -47 -6.5t-49.5 -25t-39 -51t-16.5 -87.5q0 -27 2 -63t6 -69z" />
<glyph unicode="3" horiz-adv-x="1150" d="M63 436v31l320 27v-23q0 -10 -1 -19.5t-1 -17.5q0 -98 49 -151.5t121 -53.5q82 0 132 53.5t50 151.5q0 59 -19.5 94t-50 53.5t-66.5 24.5t-69 6h-28q-8 0 -17 -2v236h19q8 0 15 -1t13 -1q66 0 101 23.5t51 53t19.5 55t3.5 32.5q0 43 -14.5 72.5t-36 48t-48 27.5t-51.5 9 q-53 0 -82 -22.5t-42 -55t-15 -66.5t-2 -56l-324 28q12 125 58.5 206t113 129t148.5 66.5t165 18.5q141 0 229.5 -40t137.5 -97t67.5 -121.5t18.5 -114.5q0 -66 -17.5 -116t-48 -86.5t-72.5 -63t-91 -43.5q131 -23 197.5 -109.5t66.5 -207.5q0 -49 -20.5 -124t-78 -144.5 t-160 -120t-267.5 -50.5q-115 0 -203 33t-148.5 93.5t-91.5 145.5t-31 189z" />
<glyph unicode="4" horiz-adv-x="1150" d="M23 319v59.5t2 84.5q2 51 2 106l573 820h309v-842h185v-225h-185v-322h-323v319h-563zM258 547h330v489z" />
<glyph unicode="5" horiz-adv-x="1150" d="M57 436l326 13q0 -104 36 -166t128 -62q61 0 95 30t51.5 70.5t21.5 85t4 72.5q0 127 -52.5 183.5t-123.5 56.5q-39 0 -64.5 -11.5t-42 -27.5t-25 -34.5t-14.5 -35.5l-284 47l84 727h798l-20 -262h-524l-33 -254q23 16 74 44t145 28q100 0 178 -36t131 -98.5t81 -146.5 t28 -178q0 -90 -30 -181t-92.5 -164t-161.5 -118t-239 -45q-127 0 -217 39t-147 103.5t-84 148.5t-27 172z" />
<glyph unicode="6" horiz-adv-x="1150" d="M86 662q0 141 20.5 276t80 241.5t165 171t275.5 64.5q133 0 213 -44t126 -105.5t64.5 -125t24.5 -102.5l-328 -37v27q0 61 -36 100t-91 39q-68 0 -106.5 -44t-59 -109.5t-28 -142t-9.5 -142.5q12 29 39 57.5t66 52t88 38t108 14.5q63 0 131 -23.5t124.5 -75t92 -132 t35.5 -195.5q0 -117 -36.5 -207t-102 -152.5t-157 -95.5t-201.5 -33q-92 0 -181.5 33t-160 112t-113.5 210t-43 330zM438 440q0 -27 5.5 -65.5t21.5 -72.5t48 -58.5t85 -24.5q63 0 98 30t50.5 67.5t18.5 74.5t3 51q0 20 -4 56.5t-20.5 71t-49 60t-92.5 25.5q-72 0 -118 -54 t-46 -161z" />
<glyph unicode="7" horiz-adv-x="1150" d="M70 1120v269h981v-250q-74 -90 -132.5 -172t-103.5 -164t-82 -168t-67 -184q-25 -76 -40.5 -136.5t-26.5 -112.5t-17.5 -100.5t-12.5 -101.5h-381q16 72 48 193.5t92.5 271t158 318.5t244.5 337h-661z" />
<glyph unicode="8" horiz-adv-x="1150" d="M80 397q0 88 27.5 146.5t66.5 95.5t81 57.5t73 32.5q-20 12 -53 34.5t-64 59.5t-52.5 91.5t-21.5 127.5q0 63 23.5 129t76 120.5t135.5 88t203 33.5q90 0 169 -24.5t137.5 -72.5t91.5 -119t33 -165q0 -78 -21.5 -130t-52.5 -86t-64.5 -53.5t-58.5 -31.5q33 -12 77 -34.5 t83 -60.5t66.5 -96.5t27.5 -144.5q0 -119 -47 -198.5t-119 -129t-159 -70t-167 -20.5q-117 0 -208 31t-154.5 87.5t-96 133t-32.5 168.5zM412 424q0 -55 13 -93t35.5 -61.5t51.5 -35t57 -11.5q74 0 118 48t44 155q0 35 -8 69.5t-27.5 62.5t-49.5 46.5t-73 18.5 q-61 0 -111 -49.5t-50 -149.5zM442 1010q0 -78 34 -127t99 -49q70 0 100 47t30 112q0 80 -34 129t-93 49q-72 0 -104 -48t-32 -113z" />
<glyph unicode="9" horiz-adv-x="1150" d="M66 924q0 117 36.5 207t103 152.5t158 95t199.5 32.5q100 0 190.5 -35t159 -114.5t108.5 -210.5t40 -324q0 -143 -21.5 -278.5t-80 -241t-164 -170t-273.5 -64.5q-131 0 -213 45t-128 106.5t-64.5 126t-22.5 101.5l328 35v-22q0 -66 35 -105t92 -39q66 0 104.5 44 t59 110.5t28 143.5t9.5 140q-29 -51 -69 -82.5t-83 -49t-83 -23.5t-66 -6q-61 0 -128 22.5t-124.5 72.5t-94 132t-36.5 199zM379 946q0 -20 4 -56t20.5 -71t49 -60.5t92.5 -25.5q72 0 118 54.5t46 160.5q0 29 -5.5 67t-21.5 71.5t-48 58t-85 24.5q-63 0 -98 -29.5 t-50.5 -67.5t-18.5 -74.5t-3 -51.5z" />
<glyph unicode=":" horiz-adv-x="598" d="M176 0v348h328v-348h-328zM176 725v344h328v-344h-328z" />
<glyph unicode=";" horiz-adv-x="598" d="M176 0v350h328v-276q0 -182 -77 -285.5t-251 -138.5v143q41 12 64.5 32.5t36 47.5t17.5 58.5t7 68.5h-125zM176 725v348h328v-348h-328z" />
<glyph unicode="&#x3c;" d="M229 528v310l953 454v-317l-643 -281l645 -295v-333z" />
<glyph unicode="=" d="M205 279v270h1075v-270h-1075zM205 721v270h1075v-270h-1075z" />
<glyph unicode="&#x3e;" d="M291 63v320l643 281l-643 294v334l952 -463v-311z" />
<glyph unicode="?" horiz-adv-x="1236" d="M125 1094q57 188 194.5 284.5t366.5 96.5q141 0 238.5 -34t158 -87.5t88 -122t27.5 -139.5q0 -68 -18.5 -119t-46 -89t-56 -63.5t-51.5 -42.5q-57 -43 -115.5 -82t-117.5 -86q-20 -16 -34 -29.5t-21 -25.5t-11 -25.5t-8 -31.5h-260q2 35 4 63.5t11 56t25.5 54t45.5 55.5 q41 41 85 70.5t89 60.5q12 10 35.5 27.5t45 43t38 57.5t16.5 71q0 18 -5 49t-24.5 60.5t-57.5 52t-103 22.5q-61 0 -107.5 -21.5t-77 -55.5t-46 -77t-15.5 -88zM430 0v348h324v-348h-324z" />
<glyph unicode="@" horiz-adv-x="1742" d="M84 485q0 203 73.5 380t200.5 309.5t297 209t365 76.5q139 0 251.5 -43t193.5 -121.5t125 -188.5t44 -245q0 -141 -40 -272t-107.5 -231.5t-154.5 -161t-183 -60.5q-76 0 -124 37t-64 102q-109 -139 -256 -139q-131 0 -208 92.5t-77 251.5q0 119 36 226.5t97 188.5 t142 128t169 47q72 0 120 -25.5t95 -97.5l21 82h184l-67 -325q-16 -78 -27.5 -134.5t-18 -96.5t-9.5 -65.5t-3 -41.5q0 -57 43 -58q37 0 88 56q78 86 125 219t47 272q0 102 -31.5 183t-91 138.5t-143.5 88t-190 30.5q-152 0 -289 -64.5t-240.5 -175t-164 -257t-60.5 -307.5 q0 -133 44 -241t124 -184.5t193.5 -117.5t254.5 -41q180 0 349 75.5t321 223.5l94 -127q-43 -39 -73.5 -66.5t-58 -49t-55.5 -39t-61 -38.5q-240 -141 -516 -141q-166 0 -309 51t-248.5 147.5t-166 232.5t-60.5 308zM631 496q0 -82 34.5 -129.5t96.5 -47.5q47 0 92 34 t80 89.5t56.5 125t21.5 141.5v8q0 78 -38 125t-100 47q-47 0 -91 -33t-77.5 -87t-54 -125t-20.5 -148z" />
<glyph unicode="A" horiz-adv-x="1449" d="M-2 0l537 1446h376l533 -1446h-385l-72 231h-532l-72 -231h-385zM539 492h366l-188 610z" />
<glyph unicode="B" horiz-adv-x="1449" d="M139 0v1446h674q143 0 240.5 -30t158 -81t87 -119.5t26.5 -148.5q0 -92 -36 -152.5t-86 -97.5t-102 -53t-85 -21q53 -4 116.5 -21t119 -56t92 -101.5t36.5 -158.5q0 -100 -42 -176t-113.5 -127.5t-169 -77t-207.5 -25.5h-709zM483 262h252q43 0 92.5 3t91.5 20.5 t68.5 52.5t26.5 96q0 66 -23.5 101.5t-58.5 53t-72 20.5t-65 3h-312v-350zM483 874h273q29 0 66.5 3.5t70.5 18.5t55.5 47t22.5 87q0 53 -19.5 82t-49.5 43t-62.5 17.5t-59.5 3.5h-297v-302z" />
<glyph unicode="C" horiz-adv-x="1437" d="M80 725q0 160 52 300t144.5 243.5t221.5 163t282 59.5q100 0 193.5 -27.5t173.5 -78t142.5 -119t101.5 -150.5l-287 -143q-12 41 -41 81t-70 70.5t-91 50t-105 19.5q-88 0 -155 -38t-112 -101.5t-67.5 -146.5t-22.5 -173q0 -119 29 -208t77 -148.5t112.5 -89t138.5 -29.5 q72 0 122 21.5t86.5 54.5t61.5 70.5t43 68.5l285 -145q-43 -76 -103.5 -143.5t-138.5 -119t-173 -81t-208 -29.5q-143 0 -269 51t-220.5 149.5t-148.5 241t-54 326.5z" />
<glyph unicode="D" horiz-adv-x="1492" d="M137 0v1446h496q209 0 360.5 -46t248.5 -137.5t143.5 -226.5t46.5 -313q0 -129 -33 -258t-115 -232.5t-222 -168t-355 -64.5h-570zM502 291h116q117 0 202 22.5t140.5 72.5t82 134t26.5 207q0 84 -16.5 160t-59.5 132t-118.5 89t-194.5 33h-178v-850z" />
<glyph unicode="E" horiz-adv-x="1323" d="M139 0v1446h1069v-281h-708v-262h661v-274h-661v-344h772v-285h-1133z" />
<glyph unicode="F" horiz-adv-x="1280" d="M137 0v1446h1110v-279h-749v-303h690v-280h-690v-584h-361z" />
<glyph unicode="G" horiz-adv-x="1536" d="M82 723q0 129 39 266t125 249t221 184.5t328 72.5q143 0 251.5 -41t186.5 -96t127 -111.5t72 -85.5l-275 -166q-18 39 -50 76t-75 65.5t-97 46t-116 17.5q-174 0 -275.5 -122t-101.5 -345q0 -63 13.5 -146t53.5 -156t114.5 -123t197.5 -50q49 0 102.5 13.5t99.5 44t78 83 t36 129.5h-324v275h629v-803h-283v133q-66 -59 -129 -93t-118.5 -50.5t-101.5 -19.5t-77 -3q-168 0 -291 66.5t-202.5 174t-118.5 243t-39 272.5z" />
<glyph unicode="H" horiz-adv-x="1536" d="M139 0v1446h365v-522h528v522h363v-1446h-363v616h-528v-616h-365z" />
<glyph unicode="I" horiz-adv-x="641" d="M137 0v1446h361v-1446h-361z" />
<glyph unicode="J" horiz-adv-x="811" d="M33 0v293h71q63 0 104.5 5t65 19.5t32.5 40t9 64.5v1024h363v-1098q0 -102 -25.5 -169.5t-77 -107.5t-127 -55.5t-174.5 -15.5h-241z" />
<glyph unicode="K" horiz-adv-x="1449" d="M139 0v1446h344v-590l541 590h436l-512 -537l551 -909h-407l-385 655l-224 -231v-424h-344z" />
<glyph unicode="L" horiz-adv-x="1110" d="M139 0v1446h361v-1141h565v-305h-926z" />
<glyph unicode="M" horiz-adv-x="1878" d="M139 0v1446h529l272 -1012l268 1012h529v-1446h-348q0 227 2 434q0 88 1 180.5t1 178.5t1 160.5t3 127.5l-301 -1081h-314l-299 1081q2 -37 3 -103.5t1 -149.5t1 -177t1 -186q2 -217 3 -465h-353z" />
<glyph unicode="N" horiz-adv-x="1492" d="M137 0v1446h355l514 -881v881h346v-1446h-355l-512 864v-864h-348z" />
<glyph unicode="O" horiz-adv-x="1622" d="M86 731q0 123 38 257t123 246t221 184.5t333 72.5t336 -72.5t227 -186.5t129 -252t41 -267q0 -145 -48 -281.5t-141.5 -242t-229.5 -169t-310 -63.5q-178 0 -313.5 64.5t-225.5 172t-135 246.5t-45 291zM442 731q0 -86 20.5 -170t64.5 -149.5t113 -106.5t167 -41 q100 0 170 42t113 108.5t62 146.5t19 156q0 98 -21.5 184t-67.5 149.5t-115.5 100.5t-165.5 37q-102 0 -171 -44t-111 -110.5t-59.5 -146.5t-17.5 -156z" />
<glyph unicode="P" horiz-adv-x="1409" d="M137 0v1446h717q258 0 390 -122t132 -372q0 -137 -54 -229t-139 -147.5t-188.5 -79t-201.5 -23.5h-293v-473h-363zM500 741h237q61 0 112.5 9.5t88.5 34t57.5 69.5t20.5 115q0 78 -29 121t-72 63.5t-92 23.5t-92 3h-231v-439z" />
<glyph unicode="Q" horiz-adv-x="1622" d="M86 729q0 154 49 291t142.5 241.5t227.5 166t302 61.5q147 0 279.5 -51.5t232.5 -147.5t158.5 -237.5t58.5 -319.5q0 -141 -42 -268t-101 -211q68 -68 135 -92.5t145 -36.5l-104 -256q-88 8 -184.5 52t-213.5 138q-49 -25 -91 -43t-85 -30.5t-88 -19.5t-100 -7 q-172 0 -306 59.5t-226.5 164t-140.5 244.5t-48 302zM446 727q0 -80 19.5 -163t63.5 -149.5t115 -108.5t171 -42q117 0 187.5 53.5t109.5 128t52.5 153.5t13.5 128q0 104 -27 188t-76 144.5t-116.5 92.5t-149.5 32q-100 0 -169 -38t-112 -101.5t-62.5 -145.5t-19.5 -172z " />
<glyph unicode="R" horiz-adv-x="1449" d="M137 0v1446h684q80 0 177.5 -15.5t181.5 -64.5t140 -141t56 -248q0 -92 -24.5 -158.5t-65.5 -113t-94 -77t-113 -50.5l334 -578h-397l-289 516h-225v-516h-365zM500 784h299q78 0 121 25t64.5 58.5t26.5 67.5t5 50q0 72 -24.5 111t-59.5 57t-71 21.5t-60 3.5h-301v-394z " />
<glyph unicode="S" horiz-adv-x="1409" d="M18 260l275 174q72 -88 186.5 -135t231.5 -47q41 0 87 9t86 29.5t66.5 52.5t26.5 77q0 39 -21.5 64.5t-56.5 42t-80 25.5t-94 15l-166 23q-94 12 -178 42t-147.5 79t-99.5 120.5t-36 165.5q0 106 39 195.5t114 153t183.5 99.5t247.5 36q115 0 209 -23.5t171 -62.5 t140.5 -88.5t116.5 -100.5l-266 -190q-78 82 -170 131t-209 49q-55 0 -96 -14.5t-67 -37t-39 -50t-13 -52.5q0 -59 46 -88.5t138 -44.5l160 -22q141 -20 242.5 -53t166 -82.5t94 -119t29.5 -161.5q0 -115 -44 -208t-129 -158.5t-206.5 -101.5t-277.5 -36q-127 0 -225.5 21.5 t-176 60.5t-140 93.5t-118.5 117.5z" />
<glyph unicode="T" horiz-adv-x="1150" d="M14 1161v285h1116v-285h-376v-1161h-363v1161h-377z" />
<glyph unicode="U" horiz-adv-x="1492" d="M127 547v899h365v-940q0 -72 17 -119t51 -73.5t82 -37t110 -10.5q139 0 193 66.5t54 191.5v922h363v-875q0 -135 -42 -246.5t-122 -191.5t-195.5 -123t-263.5 -43q-127 0 -238.5 35t-194.5 105.5t-131 180t-48 259.5z" />
<glyph unicode="V" horiz-adv-x="1366" d="M-2 1446h385l299 -1028l297 1028h385l-502 -1446h-368z" />
<glyph unicode="W" horiz-adv-x="2004" d="M0 1446h362l213 -995l263 995h321l271 -995l210 995h361l-367 -1446h-372l-261 926l-262 -926h-372z" />
<glyph unicode="X" horiz-adv-x="1579" d="M0 0l559 784l-481 662h428l278 -436l283 436h420l-477 -662l565 -784h-416l-371 547l-374 -547h-414z" />
<glyph unicode="Y" horiz-adv-x="1449" d="M4 1446h414l311 -490l309 490h412l-547 -762v-684h-356v674z" />
<glyph unicode="Z" horiz-adv-x="1280" d="M10 0v272l801 893h-733v281h1167v-283l-788 -878h784v-285h-1231z" />
<glyph unicode="[" horiz-adv-x="598" d="M104 -295v1890h459v-172h-186v-1546h186v-172h-459z" />
<glyph unicode="\" horiz-adv-x="980" d="M33 1446h291l622 -1446h-291z" />
<glyph unicode="]" horiz-adv-x="598" d="M35 -123h186v1546h-186v172h459v-1890h-459v172z" />
<glyph unicode="^" d="M150 575l438 871h319l426 -871h-338l-241 576l-248 -576h-356z" />
<glyph unicode="_" horiz-adv-x="1019" d="M-25 -248h1065v-225h-1065v225z" />
<glyph unicode="`" horiz-adv-x="555" d="M12 1475h379l152 -273h-207z" />
<glyph unicode="a" horiz-adv-x="1193" d="M90 297q0 100 62.5 183t162.5 124q55 23 150.5 44.5t271.5 53.5v60q0 14 -3 35.5t-14 42t-36 36t-68 15.5q-49 0 -80.5 -13.5t-49 -32t-24.5 -40t-11 -39.5h-316q0 88 38 151.5t100.5 103.5t143.5 58.5t169 18.5q70 0 150.5 -11.5t149 -45t115 -94t46.5 -156.5v-625 q0 -70 5 -103.5t25 -62.5h-309v96q-31 -20 -63.5 -42.5t-70.5 -41t-85 -30t-109 -11.5q-92 0 -157.5 30t-108.5 76t-63.5 104.5t-20.5 115.5zM399 311q0 -14 6.5 -32.5t20.5 -35t37.5 -28.5t56.5 -12q47 0 86 19.5t69 54t46 83t16 105.5v47l-202 -68q-82 -27 -109 -62.5 t-27 -70.5z" />
<glyph unicode="b" horiz-adv-x="1280" d="M141 0v1446h308v-475l40.5 40.5t57.5 42t85 33t122 13.5q96 0 179 -36t144.5 -105.5t97 -171t35.5 -232.5q0 -102 -24.5 -206.5t-79.5 -188.5t-144.5 -136.5t-218.5 -52.5q-117 0 -195.5 45t-115.5 97v-113h-291zM440 543q0 -63 10.5 -124t37 -109t72.5 -76.5t116 -28.5 q80 0 125 40t68.5 95t28.5 113.5t5 95.5q0 35 -6 90t-27.5 106.5t-64.5 88t-117 36.5q-49 0 -94 -16t-79 -54t-54.5 -101.5t-20.5 -155.5z" />
<glyph unicode="c" horiz-adv-x="1103" d="M68 526q0 160 50 269.5t128 177t173 97.5t185 30q37 0 91.5 -7.5t116.5 -33t128 -76.5t121 -141l-234 -133q-10 23 -27.5 48t-42 47.5t-58 38t-81.5 15.5q-63 0 -106 -31.5t-69.5 -80t-39 -104.5t-12.5 -105q0 -51 12.5 -107.5t41 -103.5t73.5 -79t111 -32 q47 0 81.5 15.5t59.5 39t41 52t25 53.5l237 -123q-45 -80 -102.5 -134.5t-120 -88t-127 -49t-125.5 -15.5q-94 0 -188.5 32t-170 99.5t-123.5 174t-48 255.5z" />
<glyph unicode="d" horiz-adv-x="1236" d="M63 526q0 119 29 223.5t85 181.5t140 122t193 45q55 0 101 -12.5t81 -30t60.5 -36t40.5 -30.5v457h305v-1446h-287v100q-43 -45 -85 -70.5t-79 -39t-67.5 -16.5t-53.5 -3q-94 0 -178 36t-147.5 106.5t-100.5 174t-37 238.5zM383 526q0 -35 6 -89t26.5 -106t61.5 -89 t109 -37q78 0 120 43t63.5 98t25.5 108.5t4 71.5q0 49 -6.5 108.5t-28 110t-59 84t-103.5 33.5q-63 0 -105 -30.5t-68 -78.5t-36 -107.5t-10 -119.5z" />
<glyph unicode="e" horiz-adv-x="1193" d="M66 514q0 100 26.5 204.5t91 189.5t170 139.5t260.5 54.5q152 0 254.5 -55.5t165 -143.5t90 -198.5t27.5 -221.5v-14h-764v-12q0 -109 66.5 -181.5t177.5 -72.5q55 0 100 17.5t79 45t56.5 61t34.5 66.5l238 -123q-92 -154 -229.5 -231.5t-303.5 -77.5q-123 0 -222 38 t-170 108.5t-109.5 174t-38.5 232.5zM387 666h438q-4 90 -59 150.5t-154 60.5q-55 0 -96 -20.5t-67.5 -52.5t-41 -69t-20.5 -69z" />
<glyph unicode="f" horiz-adv-x="724" d="M20 852v192h168v154q0 70 25 120t68 84t101 50t128 16q29 0 59.5 -3t58 -6t47 -6t23.5 -3v-238h-57q-49 0 -77.5 -5t-42 -17t-17.5 -32.5t-4 -49.5v-64h211v-192h-209v-852h-314v852h-168z" />
<glyph unicode="g" horiz-adv-x="1236" d="M63 565q0 121 33 217.5t92.5 164t140.5 104t177 36.5q117 0 185.5 -37.5t111.5 -78.5v98h297v-1042q0 -211 -134.5 -310.5t-396.5 -99.5q-109 0 -198.5 21.5t-154 65.5t-100.5 109.5t-36 153.5v33h326q0 -27 7 -57.5t28.5 -56t59.5 -43t99 -17.5q88 0 137 39t49 131v145 q-27 -18 -54 -34.5t-59 -28.5t-73 -20.5t-94 -8.5q-66 0 -142.5 22.5t-143 80t-112 158t-45.5 255.5zM389 578q0 -57 7 -109.5t28.5 -92.5t61.5 -63.5t104 -23.5q70 0 109.5 28.5t59 70.5t23.5 90t4 91q0 49 -6 100.5t-27.5 91.5t-61.5 65.5t-109 25.5q-68 0 -107 -34 t-58.5 -79t-23.5 -91t-4 -70z" />
<glyph unicode="h" horiz-adv-x="1236" d="M139 0v1446h316v-492q43 49 88 77t85 43.5t74.5 19.5t57.5 4q166 0 253 -97.5t87 -269.5v-731h-314v578q0 41 -3 86t-19 81.5t-48 60t-91 23.5q-98 0 -134 -69.5t-36 -196.5v-563h-316z" />
<glyph unicode="i" horiz-adv-x="598" d="M141 0v1069h314v-1069h-314zM141 1202v244h314v-244h-314z" />
<glyph unicode="j" horiz-adv-x="598" d="M0 -292.5q0 36.5 1 72.5t1 64.5v44.5q4 0 15.5 -1t21.5 -1q37 0 58.5 10.5t30.5 31t11 48t2 62.5v1030h312v-1061q0 -106 -16.5 -178t-53.5 -115t-95.5 -61.5t-144.5 -18.5h-69.5t-73.5 5v67.5zM141 1204v242h312v-242h-312z" />
<glyph unicode="k" horiz-adv-x="1193" d="M137 0v1446h309v-744l347 367h378l-368 -381l416 -688h-365l-274 461l-136 -129v-332h-307z" />
<glyph unicode="l" horiz-adv-x="598" d="M141 0v1446h314v-1446h-314z" />
<glyph unicode="m" horiz-adv-x="1835" d="M137 0v1069h314v-111q10 12 32.5 36t59.5 46.5t88 40t121 17.5q109 0 179 -33t120 -92q23 18 52.5 39.5t68 41t88 32t108.5 12.5q147 0 237.5 -77t90.5 -237v-784h-314v616q0 109 -30.5 167.5t-116.5 58.5t-124 -51.5t-38 -149.5v-641h-313v639q0 113 -40 157t-114 44 q-53 0 -83.5 -21.5t-47 -55.5t-21.5 -72t-5 -73v-618h-312z" />
<glyph unicode="n" horiz-adv-x="1236" d="M143 0v1069h320v-94q39 47 113.5 84t187.5 37q164 0 248 -82t84 -246v-768h-316v659q0 37 -6 71t-23.5 59.5t-48 40t-77.5 14.5q-55 0 -88 -18.5t-50.5 -51.5t-22.5 -78t-5 -98v-598h-316z" />
<glyph unicode="o" horiz-adv-x="1280" d="M66 541q0 102 31.5 202.5t100 180.5t175 129t256.5 49q168 0 280.5 -52.5t180 -135.5t96 -183t28.5 -199q0 -129 -39.5 -233t-113.5 -178t-180.5 -114t-241.5 -40q-104 0 -206.5 31t-184.5 98.5t-132 177t-50 267.5zM383 539q0 -68 14.5 -126.5t46 -101.5t80.5 -67.5 t119 -24.5q66 0 113 25.5t77.5 67.5t46 97.5t15.5 116.5q0 170 -69.5 248t-198.5 78q-45 0 -88 -17.5t-78 -55.5t-56.5 -97t-21.5 -143z" />
<glyph unicode="p" horiz-adv-x="1236" d="M131 -371v1440h283v-104q8 12 29.5 34.5t57.5 43t89 36t123 15.5q115 0 201.5 -45t145 -122t88.5 -178.5t30 -211.5q0 -129 -33 -232.5t-93.5 -175.5t-146.5 -110.5t-192 -38.5q-43 0 -76 6t-62.5 17t-59.5 28.5t-64 38.5v-441h-320zM436 518q0 -66 13.5 -123t41 -99 t67.5 -65.5t95 -23.5q61 0 103.5 30.5t68 80t37.5 112t12 123.5q0 27 -6 80t-28.5 105.5t-64.5 92t-113 39.5q-43 0 -84 -19.5t-73 -62.5t-50.5 -109.5t-18.5 -160.5z" />
<glyph unicode="q" horiz-adv-x="1236" d="M63 522q0 104 27 206.5t84 184.5t144.5 133.5t207.5 51.5q94 0 155.5 -31t129.5 -90v92h287v-1438h-316v445q-53 -39 -113.5 -69t-162.5 -30q-84 0 -164 33t-141.5 100.5t-99.5 170t-38 241.5zM375 539q0 -76 17.5 -136.5t47 -103.5t68.5 -65.5t82 -22.5q86 0 150.5 83 t64.5 253q0 158 -61.5 241.5t-147.5 83.5q-61 0 -103 -30.5t-69 -79.5t-38 -108.5t-11 -114.5z" />
<glyph unicode="r" horiz-adv-x="768" d="M137 0v1069h305v-111q20 16 46 37t79 43q66 27 111 34t74 9v-278l-105 -17q-61 -10 -100 -23t-60.5 -34.5t-28.5 -52.5t-7 -74v-602h-314z" />
<glyph unicode="s" horiz-adv-x="1067" d="M-4 180l199 180q59 -61 142 -104t169 -43q78 0 134 26.5t56 77.5q0 45 -42 62.5t-128 32.5l-96 16q-190 33 -274 114t-84 203q0 68 28.5 132.5t85 114.5t141.5 81t197 31q137 0 257 -43t218 -117l-194 -180q-53 43 -125 74.5t-148 31.5q-25 0 -51 -4t-47.5 -14t-35 -25.5 t-13.5 -38.5q0 -39 40 -56t134 -36l76 -14q86 -16 157.5 -43t122 -67t78 -96t27.5 -130q0 -100 -48 -171t-122 -116t-163 -65.5t-173 -20.5q-100 0 -182 20.5t-147.5 51.5t-112.5 68t-76 67z" />
<glyph unicode="t" horiz-adv-x="724" d="M23 852v192h155v334h311v-336h209v-192h-209v-512q0 -53 23 -70.5t59 -17.5q10 0 27.5 1t36.5 1h47v-244q-16 -4 -64.5 -10t-134.5 -6q-63 0 -119.5 12t-97.5 46t-64.5 92.5t-23.5 152.5v557h-155z" />
<glyph unicode="u" horiz-adv-x="1236" d="M131 352v717h318v-686q0 -27 6 -54.5t22.5 -51t46 -38t76.5 -14.5q96 0 138 51.5t42 124.5v668h314v-1069h-316v100q-10 -14 -35.5 -36.5t-64.5 -44t-92.5 -36t-118.5 -14.5q-178 0 -257 92.5t-79 290.5z" />
<glyph unicode="v" horiz-adv-x="1024" d="M-2 1069h334l190 -725l176 725h324l-346 -1069h-330z" />
<glyph unicode="w" horiz-adv-x="1622" d="M0 1069h332l149 -747l162 747h336l147 -754l166 754h326l-320 -1069h-342l-157 713l-160 -713h-346z" />
<glyph unicode="x" horiz-adv-x="1067" d="M0 0l362 580l-323 489h356l142 -272l151 272h338l-324 -500l363 -569h-336l-203 332l-178 -332h-348z" />
<glyph unicode="y" horiz-adv-x="1024" d="M0 1069h336l176 -766l176 766h336l-377 -1155q-18 -57 -40.5 -106.5t-63.5 -94.5q-49 -53 -100.5 -67.5t-123.5 -14.5h-227v252h135q66 0 86.5 24.5t20.5 53.5q0 23 -5 43.5t-18 58.5z" />
<glyph unicode="z" horiz-adv-x="1110" d="M70 0v236l577 591h-516v242h916v-242l-570 -583h570v-244h-977z" />
<glyph unicode="{" horiz-adv-x="649" d="M23 561v178q53 4 86.5 14.5t53 33t28 63.5t8.5 106v316q0 96 12 158.5t45 101.5t90 54.5t146 15.5h131v-172h-33q-37 0 -60.5 -11.5t-36 -37t-16.5 -67.5t-4 -102v-288q0 -63 -7 -107.5t-26.5 -75t-52.5 -53t-84 -41.5q49 -14 81 -34.5t52.5 -52.5t28.5 -77t8 -110v-283 q0 -51 3 -92t15.5 -70.5t38 -45t70.5 -15.5h25v-170h-129q-92 0 -150.5 16.5t-91.5 54t-44 101t-11 158.5v317q0 68 -7.5 109t-28 63.5t-54 31.5t-86.5 13z" />
<glyph unicode="|" horiz-adv-x="524" d="M125 -293v1888h272v-1888h-272z" />
<glyph unicode="}" horiz-adv-x="649" d="M25 -133h32q37 0 59.5 10t36 36t17.5 68t4 103v289q0 63 7 107t26.5 75t52.5 53.5t84 40.5q-94 29 -132 88.5t-38 186.5v293q0 47 -2 85.5t-13.5 66.5t-37 44.5t-72.5 16.5h-24v172h131q92 0 150.5 -17.5t90 -56.5t43 -102.5t11.5 -155.5v-318q0 -68 7 -107.5t26.5 -62 t53.5 -32t89 -15.5v-176q-51 -4 -85 -13t-54.5 -31.5t-28.5 -63.5t-8 -109v-317q0 -92 -11.5 -156t-44.5 -101.5t-89 -55t-148 -17.5h-133v172z" />
<glyph unicode="~" d="M143 707q82 111 154 157.5t172 46.5q25 0 48.5 -3t52 -12t64.5 -22.5t83 -35.5l117 -54q35 -16 59.5 -26t41.5 -15.5t31.5 -7.5t28.5 -2q33 0 60.5 8.5t56.5 26.5t60.5 49t72.5 76l94 -266q-92 -115 -172 -159t-166 -44q-47 0 -101 16.5t-146 61.5l-72 35q-72 35 -120 48 t-93 13q-53 0 -99 -25.5t-112 -111.5l-18 -25z" />
<glyph unicode="&#xa1;" horiz-adv-x="598" d="M84 0v420l96 532h137l93 -518v-434h-326zM84 1102v344h326v-344h-326z" />
<glyph unicode="&#xa2;" horiz-adv-x="1110" d="M66 520q0 147 46 255t116.5 178.5t155.5 104.5t163 34v229h158v-231q80 -12 138 -40t102 -62t76 -72.5t56 -73.5l-233 -135q-20 37 -38 59t-33 37.5t-31.5 24t-36.5 14.5v-619q47 12 78.5 42t68.5 108l233 -121q-20 -33 -48.5 -74t-72.5 -81t-107.5 -73.5t-154.5 -50.5 v-243h-155v239q-113 12 -193 49t-133 87.5t-84 109.5t-47 116.5t-20 107.5t-4 81zM391 532q0 -66 13.5 -115.5t35 -85.5t49 -59.5t58.5 -40.5v611q-68 -29 -112 -111t-44 -199z" />
<glyph unicode="&#xa3;" horiz-adv-x="1409" d="M33 219q0 37 15 81t54 84t104.5 66.5t166.5 26.5q23 0 52.5 -2t76.5 -8q-14 31 -25.5 51.5t-21 35.5t-18.5 28.5t-21 29.5h-297v201h157q-6 8 -18 29.5t-24.5 52.5t-21.5 70t-9 82q0 25 6 62.5t25.5 79.5t57.5 84t102.5 75.5t159.5 55t230 21.5q18 0 65.5 -2t106 -14 t118 -37.5t104.5 -73.5q41 -41 62.5 -96t30.5 -107.5t11 -92t2 -46.5l-313 -22q0 84 -20.5 132t-51.5 71.5t-66.5 30t-68.5 6.5q-119 0 -168 -47.5t-49 -118.5q0 -59 28.5 -103.5t61.5 -91.5h319v-201h-184q14 -29 33.5 -74.5t19.5 -121.5q0 -18 -2 -36t-6 -52 q33 -20 64.5 -47t70.5 -27q20 0 38 7t32 30.5t22.5 70t10.5 123.5l297 -22q-2 -66 -11.5 -148t-39 -154.5t-87 -122.5t-157.5 -50q-49 0 -93 13t-86 33.5t-82 47.5t-79 53q-27 -41 -68 -72.5t-89 -52t-100 -31t-104 -10.5q-51 0 -108.5 13.5t-105.5 43t-78.5 77t-30.5 116.5 zM256 227q0 -41 30.5 -60.5t65.5 -19.5q33 0 60.5 14.5t49 35t34 42t12.5 35.5q-8 4 -49 20.5t-88 16.5q-59 0 -87 -28.5t-28 -55.5z" />
<glyph unicode="&#xa5;" horiz-adv-x="1449" d="M4 1417h414l311 -483l309 483h412l-354 -483h174v-221h-336l-31 -43v-99h367v-221h-367v-350h-356v350h-369v221h369v88l-39 54h-330v221h172z" />
<glyph unicode="&#xa7;" horiz-adv-x="1236" d="M43 606q0 66 20.5 116t52 87t67.5 63.5t67 47.5q-33 41 -55.5 78.5t-22.5 101.5q0 86 39 146.5t97.5 97t130 53t134.5 16.5q88 0 166 -16.5t146.5 -42t130 -57t117.5 -62.5l-201 -160q-66 35 -153 72t-191 37q-41 0 -76 -12.5t-35 -47.5q0 -12 4 -23t20.5 -24.5t49.5 -32 t92 -45.5l209 -94q80 -37 145.5 -75.5t111.5 -85t70.5 -100.5t24.5 -120q0 -68 -21.5 -121t-53 -93t-66.5 -68.5t-62 -48.5q29 -41 49.5 -79t20.5 -96q0 -59 -27.5 -115.5t-78 -99.5t-122 -69.5t-159.5 -26.5q-80 0 -164 18.5t-160.5 46t-142 61.5t-108.5 65l198 161 q35 -20 77 -41.5t87 -39t92 -28.5t92 -11q59 0 87 21.5t28 43.5q0 47 -147 113l-205 94q-66 31 -132.5 65.5t-120.5 79.5t-88 106.5t-34 143.5zM326 659q0 -33 13 -58.5t47 -49t89 -51t141 -66.5q10 -4 43 -20.5t69 -36t67 -35.5t39 -20q29 29 56.5 62.5t27.5 84.5 q0 33 -15.5 57.5t-44.5 47t-73 45t-99 49.5l-268 133q-29 -20 -60.5 -52t-31.5 -90z" />
<glyph unicode="&#xa8;" horiz-adv-x="555" d="M-141 1221v254h321v-254h-321zM373 1221v254h323v-254h-323z" />
<glyph unicode="&#xa9;" horiz-adv-x="1685" d="M115 725q0 152 57 285t155.5 231t231.5 155.5t285 57.5q150 0 283 -56.5t232 -153.5t156.5 -227t57.5 -280q0 -158 -55.5 -294t-153.5 -235t-231.5 -155.5t-290.5 -56.5q-152 0 -284 57.5t-230.5 155.5t-155.5 231t-57 285zM215 723q0 -133 49 -250t134 -204t199 -137 t245 -50q129 0 243.5 50t200.5 136t136.5 200t50.5 245q0 139 -48.5 259t-132.5 208t-199.5 138t-248.5 50q-131 0 -246 -50t-200 -138t-134 -206t-49 -251zM410 729q0 104 32.5 192.5t92 151t141.5 98t178 35.5q109 0 187.5 -36.5t158.5 -127.5l-141 -163q-27 31 -50.5 52 t-47 33.5t-49 17.5t-58.5 5q-94 0 -151.5 -70.5t-57.5 -187.5t57.5 -185.5t151.5 -68.5q57 0 99 22.5t100 82.5l147 -170q-90 -98 -173 -131t-173 -33q-98 0 -180 35.5t-140.5 99t-91 153t-32.5 195.5z" />
<glyph unicode="&#xaa;" horiz-adv-x="681" d="M76 1047q0 55 23.5 89.5t60.5 55t79 31t78 18.5l105 23v14q0 23 -13.5 45.5t-60.5 22.5q-45 0 -58.5 -21.5t-17.5 -42.5h-174q4 94 68.5 138t181.5 44q41 0 83 -6t76 -24.5t56.5 -51t22.5 -84.5v-356q0 -20 3 -28.5t17 -28.5h-174q-2 10 -2 20v15v14q-27 -20 -63.5 -40 t-96.5 -20q-98 0 -146 51.5t-48 121.5zM248 1055q0 -16 11 -33.5t46 -17.5q41 0 63.5 17t34 39.5t14.5 46t3 34.5v8l-96 -29q-25 -8 -50.5 -21.5t-25.5 -43.5z" />
<glyph unicode="&#xab;" horiz-adv-x="854" d="M66 473v254l327 274v-282l-133 -117l133 -117v-280zM451 471v256l323 274v-282l-139 -117l139 -117v-280z" />
<glyph unicode="&#xac;" d="M139 524v275h1159v-750h-340v475h-819z" />
<glyph unicode="&#xae;" horiz-adv-x="1685" d="M115 725q0 152 57 285t155.5 231t231.5 155.5t285 57.5q150 0 283 -56.5t232 -153.5t156.5 -227t57.5 -280q0 -158 -55.5 -294t-153.5 -235t-231.5 -155.5t-290.5 -56.5q-152 0 -284 57.5t-230.5 155.5t-155.5 231t-57 285zM215 723q0 -133 49 -250t134 -204t199 -137 t245 -50q129 0 243.5 50t200.5 136t136.5 200t50.5 245q0 139 -48.5 259t-132.5 208t-199.5 138t-248.5 50q-131 0 -246 -50t-200 -138t-134 -206t-49 -251zM532 274v914h273q117 0 179.5 -11.5t107.5 -39.5q121 -76 120 -244q0 -92 -35.5 -150.5t-121.5 -101.5l168 -367 h-242l-123 330h-106v-330h-220zM750 780h114q66 0 92.5 25.5t26.5 87.5q0 109 -121 108h-112v-221z" />
<glyph unicode="&#xb0;" horiz-adv-x="724" d="M10 1192q0 74 28 138.5t75 112.5t111.5 75.5t137.5 27.5q74 0 138.5 -27.5t111.5 -75.5t75 -112.5t28 -140.5q0 -72 -28 -135.5t-76 -111.5t-112.5 -75.5t-136.5 -27.5t-136 27.5t-112 75.5t-76 112.5t-28 136.5zM215 1192q0 -59 44 -103.5t103 -44.5t103.5 44.5 t44.5 105.5q0 59 -44 101t-104 42q-61 0 -104 -42t-43 -103z" />
<glyph unicode="&#xb1;" d="M188 0v270h1106v-270h-1106zM188 768v266h385v377h338v-377h383v-266h-383v-391h-340v391h-383z" />
<glyph unicode="&#xb4;" horiz-adv-x="555" d="M16 1200l150 273h373l-314 -273h-209z" />
<glyph unicode="&#xb5;" horiz-adv-x="1202" d="M113 -442v1509h313v-479q0 -72 3 -136.5t18.5 -112.5t48 -75.5t92.5 -27.5q51 0 82.5 20t49 66.5t24 121t6.5 185.5v438h313v-719q0 -61 14.5 -86.5t48.5 -25.5q12 0 21.5 2t32.5 12v-250q-37 -12 -83 -18.5t-93 -6.5q-86 0 -137.5 37t-82.5 123q-29 -84 -71.5 -118.5 t-114.5 -34.5q-66 0 -107.5 28.5t-70.5 89.5q2 -135 4 -247q0 -47 1 -95.5t1 -88.5v-69.5v-41.5h-313z" />
<glyph unicode="&#xb6;" horiz-adv-x="1308" d="M135 1016q0 111 35 192.5t98.5 134t151.5 78t194 25.5h506v-170h-73v-1618h-181v1618h-231v-1618h-182v958q-145 25 -231.5 132.5t-86.5 267.5z" />
<glyph unicode="&#xb7;" horiz-adv-x="481" d="M76 422v342h330v-342h-330z" />
<glyph unicode="&#xb8;" horiz-adv-x="555" d="M78 -297l57 47q23 -29 48.5 -47t62.5 -18q29 0 50 16t21 47q0 23 -11 38t-27.5 25.5t-36 14.5t-37.5 4t-30.5 -1t-27.5 -5l-24 37l65 121h97l-43 -91q20 2 38.5 4.5t41.5 2.5q47 0 76.5 -13.5t47 -34t24.5 -43t7 -43.5q0 -39 -17.5 -69.5t-46 -52t-63.5 -33.5t-69 -12 q-63 0 -113.5 30.5t-89.5 75.5z" />
<glyph unicode="&#xba;" horiz-adv-x="724" d="M61 1169q0 139 81 218t223 79q49 0 101 -16t95 -51t70.5 -92.5t27.5 -139.5q0 -86 -27.5 -144t-71.5 -93t-97 -49.5t-105 -14.5q-37 0 -88 10.5t-97 43t-79 92t-33 157.5zM233 1159q0 -61 33 -107t101 -46q35 0 57 14t35.5 35.5t19.5 49.5t6 54q0 86 -33.5 127t-89.5 41 q-45 0 -70.5 -18.5t-38.5 -44t-16.5 -54t-3.5 -51.5z" />
<glyph unicode="&#xbb;" horiz-adv-x="854" d="M74 197v282l139 119l-139 117v278l325 -264v-256zM457 197v282l131 119l-131 117v278l325 -268v-252z" />
<glyph unicode="&#xbf;" horiz-adv-x="1236" d="M39 360q0 68 18.5 119t46 89t57 63.5t50.5 42.5q57 43 115.5 82t117.5 86q23 16 35.5 29.5t19.5 25.5t11 25.5t8 31.5h260q-2 -35 -4 -63.5t-11 -56t-25.5 -54t-45.5 -55.5q-41 -41 -85 -70.5t-89 -60.5q-12 -8 -35.5 -26.5t-45 -44t-38 -57.5t-16.5 -71q0 -18 5 -49 t24.5 -60.5t57.5 -52t103 -22.5q61 0 107.5 21.5t77 55.5t46 77t15.5 88l293 -95q-57 -188 -194.5 -284.5t-366.5 -96.5q-141 0 -238.5 34t-158 87.5t-88 123t-27.5 138.5zM483 1104v342h324v-342h-324z" />
<glyph unicode="&#xf7;" d="M162 520v285h1157v-285h-1157zM586 92v318h307v-318h-307zM586 913v320h309v-320h-309z" />
<glyph unicode="&#x192;" horiz-adv-x="681" d="M-162 -358l23 208q16 -2 32.5 -2h32.5q49 0 78 5.5t47.5 29t27.5 73.5t17 140l70 711h-146l19 190h149l21 150q8 53 27.5 102t58.5 87t98.5 60.5t145.5 22.5q41 0 86 -6t131 -22l-23 -209h-100q-20 0 -41 -4t-37 -16.5t-27.5 -37t-15.5 -65.5l-6 -62h186l-20 -190h-189 l-86 -811q-10 -100 -30.5 -173t-59.5 -120t-101.5 -69.5t-156.5 -22.5q-37 0 -84 6t-127 25z" />
<glyph unicode="&#x2c6;" horiz-adv-x="555" d="M-61 1204l206 271h261l210 -269h-241l-101 127l-94 -129h-241z" />
<glyph unicode="&#x2da;" horiz-adv-x="555" d="M76 1343q0 41 15 77t43 63.5t65 43t77 15.5q84 0 142.5 -58.5t58.5 -142.5t-58.5 -142t-142.5 -58t-142 58t-58 144zM195 1339q0 -33 23.5 -56t57.5 -23q35 0 58.5 23.5t23.5 57.5q0 35 -23.5 58.5t-58.5 23.5t-58 -23.5t-23 -60.5z" />
<glyph unicode="&#x2dc;" horiz-adv-x="555" d="M-84 1192q16 156 64.5 223.5t140.5 67.5q47 0 86 -14.5t74.5 -32t69.5 -31.5t67 -14q8 0 20.5 2t24.5 10t22.5 25.5t14.5 46.5h141q-4 -45 -13.5 -95.5t-29.5 -91.5t-55 -68.5t-90 -27.5q-47 0 -89 14.5t-81 32.5t-74 32.5t-70 14.5q-41 0 -56 -30.5t-20 -63.5h-147z" />
<glyph unicode="&#x3a9;" horiz-adv-x="1570" d="M82 0v264h367q-162 76 -245 217.5t-83 339.5q0 147 49 269t138 209t213 136.5t274 49.5q147 0 267 -42t205 -122t132 -193.5t47 -257.5q0 -209 -85 -366.5t-239 -239.5h367v-264h-615v268q102 66 150.5 186.5t48.5 309.5q0 201 -72.5 310.5t-207.5 109.5 q-141 0 -219 -117t-78 -334q0 -70 7 -137.5t28.5 -127.5t61.5 -111.5t103 -88.5v-268h-614z" />
<glyph unicode="&#x3c0;" horiz-adv-x="1304" d="M59 829v240h1164v-240h-107v-436q0 -43 4 -70.5t16.5 -43t35 -20.5t59.5 -5h20v-254q-45 -2 -80.5 -2h-64.5q-86 0 -145.5 15.5t-94.5 52t-50 97t-15 152.5v514h-322v-829h-313v829h-107z" />
<glyph unicode="&#x401;" horiz-adv-x="1323" d="M139 0v1446h1069v-283h-704v-262h657v-274h-657v-344h768v-283h-1133zM283 1597v238h327v-238h-327zM737 1597v238h330v-238h-330z" />
<glyph unicode="&#x402;" horiz-adv-x="1679" d="M16 1163v283h1147v-283h-405v-319q63 27 157.5 48t223.5 21q88 0 173 -18t150.5 -69.5t106.5 -140.5t41 -232q0 -158 -51.5 -248t-129 -135t-171 -57.5t-175.5 -12.5h-108v266h82q104 0 146 52.5t42 130.5t-45 130t-168 52q-72 0 -149.5 -21.5t-124.5 -48.5v-561h-365 v1163h-377z" />
<glyph unicode="&#x403;" horiz-adv-x="1228" d="M139 0v1446h1057v-283h-692v-1163h-365zM543 1602l125 235h368l-297 -235h-196z" />
<glyph unicode="&#x404;" horiz-adv-x="1445" d="M86 729q0 160 52 298t145.5 241.5t222.5 163t282 59.5q119 0 216.5 -27.5t173 -78t130 -119t89.5 -150.5l-287 -143q-12 41 -37.5 80t-65.5 69.5t-93.5 50t-120.5 19.5q-59 0 -118 -21.5t-107 -62.5t-80.5 -100.5t-41.5 -135.5h521v-262h-521q12 -98 47 -165.5 t84.5 -108.5t107.5 -58.5t118 -17.5q98 0 180 49t135 166l287 -145q-39 -76 -94.5 -143.5t-131 -119t-174 -81t-223.5 -29.5q-145 0 -272 51t-221 149.5t-148.5 243t-54.5 328.5z" />
<glyph unicode="&#x405;" horiz-adv-x="1409" d="M18 260l275 174q72 -88 186.5 -135t231.5 -47q41 0 87 9t86 29.5t66.5 52.5t26.5 77q0 39 -21.5 64.5t-56.5 42t-80 25.5t-94 15l-166 23q-94 12 -178 42t-147.5 79t-99.5 120.5t-36 165.5q0 106 39 195.5t114 153t183.5 99.5t247.5 36q115 0 209 -23.5t171 -62.5 t140.5 -88.5t116.5 -100.5l-266 -190q-78 82 -170 131t-209 49q-55 0 -96 -14.5t-67 -37t-39 -50t-13 -52.5q0 -59 46 -88.5t138 -44.5l160 -22q141 -20 242.5 -53t166 -82.5t94 -119t29.5 -161.5q0 -115 -44 -208t-129 -158.5t-206.5 -101.5t-277.5 -36q-127 0 -225.5 21.5 t-176 60.5t-140 93.5t-118.5 117.5z" />
<glyph unicode="&#x406;" horiz-adv-x="643" d="M139 0v1446h365v-1446h-365z" />
<glyph unicode="&#x407;" horiz-adv-x="757" d="M49 1597v238h266v-238h-266zM197 0v1446h364v-1446h-364zM442 1597v238h267v-238h-267z" />
<glyph unicode="&#x408;" horiz-adv-x="819" d="M33 0v293h71q63 0 104.5 5t65 19.5t32.5 40t9 64.5v1024h365v-1098q0 -102 -25.5 -169.5t-77 -107.5t-127 -55.5t-176.5 -15.5h-241z" />
<glyph unicode="&#x409;" horiz-adv-x="2285" d="M16 0v283h41q39 6 71 18t56.5 42t42 82t27.5 136t15 205t5 291v389h1102v-524h363q100 0 188 -26t151.5 -80t100.5 -140t37 -209q0 -70 -19.5 -150.5t-76 -151.5t-156.5 -118t-260 -47h-676v1163h-414v-123q0 -311 -23.5 -511.5t-86 -317.5t-171 -164t-276.5 -47h-41z M1376 266h207q59 0 108.5 9.5t85 32t55 60.5t19.5 95q0 63 -21.5 102t-55 58.5t-75.5 25.5t-81 6h-242v-389z" />
<glyph unicode="&#x40a;" horiz-adv-x="2252" d="M139 0v1446h348v-524h508v524h348v-524h363q100 0 188 -26t151.5 -80t100.5 -140t37 -209q0 -70 -19.5 -150.5t-75.5 -151.5t-156.5 -118t-260.5 -47h-676v618h-508v-618h-348zM1343 266h207q59 0 108.5 9.5t85.5 32t55.5 60.5t19.5 95q0 63 -21.5 102t-55.5 58.5 t-76 25.5t-81 6h-242v-389z" />
<glyph unicode="&#x40b;" horiz-adv-x="1679" d="M16 1163v283h1147v-283h-405v-299q59 18 143 33.5t170 15.5q260 0 381 -96t121 -315v-502h-365v391q0 76 -15 122t-44 72.5t-70 36t-92 9.5q-27 0 -58.5 -4t-64.5 -11.5t-60.5 -16.5t-45.5 -17v-582h-365v1163h-377z" />
<glyph unicode="&#x40c;" horiz-adv-x="1433" d="M139 0v1446h365v-533h158q63 0 101 12.5t59.5 38t31.5 67.5t20 104q20 125 44 194.5t69 116.5h381q-74 -66 -99.5 -160t-37.5 -186t-38 -149.5t-59.5 -89.5t-72.5 -46t-76 -22q59 -10 107.5 -26.5t85 -52.5t61.5 -95.5t35 -155.5q8 -86 19.5 -149.5t27.5 -117 t37.5 -100.5t50.5 -96h-381q-20 39 -33.5 77t-22.5 82t-15.5 96t-12.5 118q-6 61 -19.5 109t-39 81t-69.5 50.5t-111 17.5h-201v-631h-365zM625 1602l125 235h368l-297 -235h-196z" />
<glyph unicode="&#x40e;" horiz-adv-x="1335" d="M12 1446h418l283 -647l250 647h380l-464 -1043q-49 -131 -110.5 -210.5t-138.5 -122.5t-170 -56.5t-206 -13.5h-82v303h82q45 0 86 3t75 16.5t60.5 40t42.5 75.5zM346 1802l242 41q0 -66 36.5 -88t81.5 -22q20 0 42 5t38.5 17t27.5 33.5t11 54.5l242 -41 q-16 -135 -111.5 -200.5t-249.5 -65.5q-70 0 -132 14.5t-111 46t-80 82t-37 123.5z" />
<glyph unicode="&#x40f;" horiz-adv-x="1499" d="M139 0v1446h365v-1163h491v1163h365v-1446h-440v-348h-340v348h-441z" />
<glyph unicode="&#x410;" horiz-adv-x="1449" d="M-2 0l537 1446h376l533 -1446h-385l-72 231h-532l-72 -231h-385zM539 492h366l-188 610z" />
<glyph unicode="&#x411;" horiz-adv-x="1449" d="M139 0v1446h1110v-283h-745v-282h399q100 0 188.5 -25t152 -77t100 -134t36.5 -199q0 -66 -19.5 -143.5t-75.5 -145t-156.5 -112.5t-260.5 -45h-729zM504 262h244q119 0 193.5 38t74.5 142q0 59 -21.5 94t-55.5 53.5t-76 23.5t-81 5h-278v-356z" />
<glyph unicode="&#x412;" horiz-adv-x="1449" d="M139 0v1446h674q143 0 240.5 -30t158 -81t87 -119.5t26.5 -148.5q0 -92 -36 -152.5t-86 -97.5t-102 -53t-85 -21q51 -4 114.5 -22.5t119 -56t93 -101t37.5 -157.5q0 -100 -42 -176t-113.5 -127.5t-169 -77t-207.5 -25.5h-709zM483 262h254q43 0 92.5 3t91.5 20.5 t68.5 52.5t26.5 96q0 66 -23.5 101.5t-58.5 53t-73 20.5t-64 3h-314v-350zM483 874h275q29 0 66.5 3.5t70.5 18.5t55.5 47t22.5 87t-20.5 86t-49.5 46.5t-61.5 18.5t-59.5 3h-299v-310z" />
<glyph unicode="&#x413;" horiz-adv-x="1228" d="M139 0v1446h1057v-283h-692v-1163h-365z" />
<glyph unicode="&#x414;" horiz-adv-x="1720" d="M20 283q80 0 139.5 50t99.5 156.5t60.5 272.5t20.5 397v287h1143v-1163h184v-590h-340v307h-967v-307h-340v590zM510 283h608v880h-438v-67q0 -193 -14.5 -331t-38 -233.5t-54 -155t-63.5 -93.5z" />
<glyph unicode="&#x415;" horiz-adv-x="1323" d="M139 0v1446h1069v-283h-704v-262h657v-274h-657v-344h768v-283h-1133z" />
<glyph unicode="&#x416;" horiz-adv-x="2007" d="M16 0q29 49 51.5 96t39 100.5t27.5 117t20 149.5q8 96 32.5 155.5t61.5 95.5t85 52t107 27q-37 8 -75.5 22t-72.5 46t-59.5 89.5t-37.5 149.5t-38 186t-100 160h369q41 -47 63.5 -116.5t40.5 -194.5q8 -63 18.5 -106.5t31 -71t57.5 -40t100 -12.5h92v541h349v-541h92 q63 0 100 12.5t57.5 40t29.5 70.5t20 107q18 125 40.5 194.5t63.5 116.5h369q-74 -66 -101.5 -160t-38.5 -186q-10 -92 -35.5 -149.5t-59.5 -89.5t-72.5 -46t-75.5 -22q59 -10 107 -26.5t85 -52.5t61.5 -95.5t34.5 -155.5q8 -86 19.5 -149.5t28 -117t38 -100.5t50.5 -96 h-369q-20 39 -33.5 77t-23 82t-15.5 96t-12 118t-18.5 116t-37 84.5t-65.5 52t-104 17.5h-135v-643h-349v643h-135q-63 0 -104 -17.5t-65.5 -52t-37 -85t-18.5 -115.5q-6 -66 -12 -118t-15.5 -96t-22.5 -82t-34 -77h-369z" />
<glyph unicode="&#x417;" horiz-adv-x="1433" d="M41 260l274 174q72 -90 168.5 -137t225.5 -47q123 0 206.5 48t83.5 146q0 57 -30.5 90t-74.5 49.5t-94 19.5t-89 3h-219v266h225q106 0 178 43t72 121q0 45 -20.5 77t-54.5 52.5t-79 28.5t-96 8q-127 0 -217 -51t-164 -135l-266 190q53 51 116.5 100.5t143.5 88.5 t179 62.5t222 23.5q166 0 279.5 -31t184.5 -83t101.5 -122.5t30.5 -152.5q0 -94 -39 -156t-92 -99.5t-109.5 -55t-91.5 -21.5q53 -4 118 -22.5t120 -59.5t93 -106.5t38 -165.5q0 -109 -52 -191t-143.5 -137t-214.5 -83t-262 -28q-123 0 -220 21.5t-174 60.5t-139.5 92.5 t-117.5 118.5z" />
<glyph unicode="&#x418;" horiz-adv-x="1564" d="M139 0v1446h365v-823l557 667v156h364v-1446h-364v831l-557 -667v-164h-365z" />
<glyph unicode="&#x419;" horiz-adv-x="1564" d="M139 0v1446h365v-823l557 667v156h364v-1446h-364v831l-557 -667v-164h-365zM422 1802l242 41q0 -66 36.5 -88t81.5 -22q20 0 42 5t38.5 17t27.5 33.5t11 54.5l242 -41q-16 -135 -111.5 -200.5t-249.5 -65.5q-70 0 -132 14.5t-111.5 46t-80 82t-36.5 123.5z" />
<glyph unicode="&#x41a;" horiz-adv-x="1433" d="M139 0v1446h365v-533h158q63 0 101 12.5t59.5 38t31.5 67.5t20 104q20 125 44 194.5t69 116.5h381q-74 -66 -99.5 -160t-37.5 -186t-38 -149.5t-59.5 -89.5t-72.5 -46t-76 -22q59 -10 107.5 -26.5t85 -52.5t61.5 -95.5t35 -155.5q8 -86 19.5 -149.5t27.5 -117 t37.5 -100.5t50.5 -96h-381q-20 39 -33.5 77t-22.5 82t-15.5 96t-12.5 118q-6 61 -19.5 109t-39 81t-69.5 50.5t-111 17.5h-201v-631h-365z" />
<glyph unicode="&#x41b;" horiz-adv-x="1531" d="M16 0v283h41q39 6 71 18t56.5 42t42 82t27.5 136t15 205t5 291v389h1119v-1446h-365v1163h-414v-123q0 -311 -23.5 -511.5t-86 -317.5t-171 -164t-276.5 -47h-41z" />
<glyph unicode="&#x41c;" horiz-adv-x="1875" d="M139 0v1446h529l272 -1012l268 1012h529v-1446h-348q0 227 2 434q0 88 1 180.5t1 178.5t1 160.5t3 127.5l-301 -1081h-314l-299 1081q2 -37 3 -103.5t1 -149.5t1 -177t1 -186q2 -217 3 -465h-353z" />
<glyph unicode="&#x41d;" horiz-adv-x="1536" d="M139 0v1446h365v-522h528v522h365v-1446h-365v616h-528v-616h-365z" />
<glyph unicode="&#x41e;" horiz-adv-x="1617" d="M86 729q0 123 38 258t123 247t221 184.5t333 72.5t336 -74t226 -187.5t128 -250.5t41 -266q0 -145 -48 -281.5t-141.5 -242t-228.5 -169t-309 -63.5q-178 0 -313.5 64.5t-225.5 172t-135 246.5t-45 289zM446 733q0 -88 20.5 -173t64.5 -151.5t113 -107.5t165 -41 q100 0 169 43t112 108.5t62 146.5t19 159q0 98 -21.5 184t-67.5 149.5t-115.5 100.5t-163.5 37q-102 0 -171 -44t-110 -110.5t-58.5 -146.5t-17.5 -154z" />
<glyph unicode="&#x41f;" horiz-adv-x="1507" d="M139 0v1446h1229v-1446h-364v1163h-500v-1163h-365z" />
<glyph unicode="&#x420;" horiz-adv-x="1409" d="M139 0v1446h715q258 0 390 -122t132 -372q0 -137 -54 -228t-139 -146.5t-188.5 -79t-201.5 -23.5h-289v-475h-365zM504 741h233q61 0 112.5 9.5t88.5 34t57.5 68.5t20.5 116q0 78 -29 121t-72 62t-92 23.5t-92 4.5h-227v-439z" />
<glyph unicode="&#x421;" horiz-adv-x="1441" d="M86 725q0 160 52 300t144.5 243.5t221.5 163t282 59.5q119 0 216.5 -27.5t174 -78t131 -119t89.5 -150.5l-287 -143q-12 41 -37.5 80t-64.5 69.5t-90.5 50t-114.5 19.5q-88 0 -154.5 -38t-111.5 -100.5t-68 -145.5t-23 -173q0 -119 29 -208t77 -148.5t112.5 -89 t138.5 -29.5q70 0 123 21.5t91 54.5t61.5 70.5t37.5 68.5l285 -145q-37 -76 -92.5 -143.5t-131 -119t-175 -81t-224.5 -29.5q-143 0 -269 51t-220 149.5t-148.5 241t-54.5 326.5z" />
<glyph unicode="&#x422;" horiz-adv-x="1150" d="M16 1163v283h1119v-283h-377v-1163h-365v1163h-377z" />
<glyph unicode="&#x423;" horiz-adv-x="1335" d="M12 1446h418l283 -647l250 647h380l-464 -1043q-49 -131 -110.5 -210.5t-138.5 -122.5t-170 -56.5t-206 -13.5h-82v303h82q45 0 86 3t75 16.5t60.5 40t42.5 75.5z" />
<glyph unicode="&#x424;" horiz-adv-x="1802" d="M49 731q0 145 42 248.5t117 170.5t179.5 97.5t228.5 30.5h103v197h364v-197h103q125 0 228.5 -30.5t179 -97.5t117.5 -170t42 -249q0 -127 -42 -227.5t-117.5 -172t-179 -109.5t-228.5 -38h-103v-204h-364v204h-103q-125 0 -229 38t-179 109.5t-117 172t-42 227.5z M401 731q0 -49 13.5 -97t42 -85t76 -59.5t112.5 -22.5h82v528h-98q-59 0 -102.5 -22.5t-71 -59t-41 -85t-13.5 -97.5zM1075 467h82q66 0 112 22.5t75.5 59.5t43 85t13.5 97t-13.5 97.5t-41 85t-70.5 59t-102 22.5h-99v-528z" />
<glyph unicode="&#x425;" horiz-adv-x="1579" d="M0 0l559 784l-481 662h428l278 -436l283 436h420l-477 -662l565 -784h-416l-371 547l-374 -547h-414z" />
<glyph unicode="&#x426;" horiz-adv-x="1597" d="M139 0v1446h365v-1163h491v1163h365v-1163h184v-590h-340v307h-1065z" />
<glyph unicode="&#x427;" horiz-adv-x="1449" d="M106 903v543h365v-432q0 -76 15.5 -123t44 -72.5t69.5 -35t92 -9.5q29 0 66 4t71.5 11.5t66.5 15.5t50 18v623h365v-1446h-365v541q-63 -18 -154.5 -33.5t-183.5 -15.5q-260 0 -381 96t-121 315z" />
<glyph unicode="&#x428;" horiz-adv-x="2101" d="M139 0v1446h348v-1163h390v1163h348v-1163h389v1163h348v-1446h-1823z" />
<glyph unicode="&#x429;" horiz-adv-x="2199" d="M139 0v1446h348v-1163h390v1163h348v-1163h389v1163h348v-1163h184v-590h-340v307h-1667z" />
<glyph unicode="&#x42a;" horiz-adv-x="1679" d="M16 1176v270h734v-524h383q100 0 188 -26t151.5 -80t100.5 -140t37 -209q0 -70 -19.5 -150.5t-76 -151.5t-157 -118t-259.5 -47h-713v1176h-369zM750 266h227q59 0 108.5 9.5t85 32t55 60.5t19.5 95q0 63 -21.5 102t-55 58.5t-75.5 25.5t-81 6h-262v-389z" />
<glyph unicode="&#x42b;" horiz-adv-x="1966" d="M139 0v1446h348v-524h347q100 0 188 -26t151.5 -80t100.5 -140t37 -209q0 -70 -19.5 -150.5t-76 -151.5t-157 -118t-259.5 -47h-660zM487 266h207q59 0 108.5 9.5t85.5 32t55.5 60.5t19.5 95q0 63 -21.5 102t-55.5 58.5t-76 25.5t-81 6h-242v-389zM1462 0v1446h365v-1446 h-365z" />
<glyph unicode="&#x42c;" horiz-adv-x="1433" d="M139 0v1446h365v-524h383q100 0 188 -26t151.5 -80t100.5 -140t37 -209q0 -70 -19.5 -150.5t-76 -151.5t-156.5 -118t-260 -47h-713zM504 266h227q59 0 108.5 9.5t85.5 32t55 60.5t19 95q0 63 -21.5 102t-55 58.5t-75.5 25.5t-81 6h-262v-389z" />
<glyph unicode="&#x42d;" horiz-adv-x="1445" d="M41 330l287 145q53 -117 135 -166t180 -49q57 0 116.5 15.5t109 54.5t84 106.5t46.5 173.5h-520v262h520q-8 82 -39.5 141.5t-78.5 99.5t-104.5 59.5t-114.5 19.5q-39 0 -83 -8t-87 -33t-82 -68t-66 -110l-287 143q74 121 150 194.5t153.5 113.5t157.5 53.5t160 13.5 q123 0 244.5 -44t219 -136t158 -236.5t60.5 -345.5q0 -158 -49 -298t-140.5 -245.5t-219.5 -167t-287 -61.5q-88 0 -174.5 19.5t-167 63.5t-152.5 114.5t-129 175.5z" />
<glyph unicode="&#x42e;" horiz-adv-x="2211" d="M139 0v1446h348v-535h261q10 66 36.5 141.5t73.5 147.5q27 41 72 91t112.5 95.5t159.5 75t215 29.5q100 0 182 -20.5t144.5 -51t106.5 -65.5t73 -66q49 -53 86 -121.5t63.5 -144.5t40 -156t13.5 -153q0 -84 -17.5 -168t-50.5 -163t-81 -148.5t-111 -122.5 q-29 -25 -69 -51.5t-94 -50t-124 -38t-158 -14.5q-31 0 -89 4t-128.5 24.5t-146.5 60.5t-144 114q-51 55 -84.5 117.5t-53 125t-29 121t-13.5 105.5h-246v-629h-348zM1081 733q0 -106 21.5 -193t64.5 -149.5t106.5 -96.5t149.5 -34q80 0 143.5 35t107.5 93t67.5 136 t23.5 164t-15 175t-55 162t-107.5 118t-170.5 45q-96 0 -160.5 -44t-103.5 -110.5t-55.5 -146.5t-16.5 -154z" />
<glyph unicode="&#x42f;" horiz-adv-x="1449" d="M33 0q37 35 59.5 89t38.5 115.5t33.5 126t43 121t65.5 97.5t104 57q-74 14 -124 51t-81 88.5t-44 114t-13 129.5q0 86 27.5 169t93 146.5t173 102.5t267.5 39h635v-1446h-365v512h-198q-72 0 -117 -29.5t-73 -77t-43 -104.5t-28.5 -114.5t-29 -106.5t-43.5 -80h-381z M475 971q0 -193 236 -193h235v402h-248q-96 0 -159.5 -47.5t-63.5 -161.5z" />
<glyph unicode="&#x430;" horiz-adv-x="1193" d="M90 297q0 100 62.5 183t162.5 124q55 23 150.5 44.5t271.5 53.5v60q0 14 -3 35.5t-14 42t-36 36t-68 15.5q-49 0 -80.5 -13.5t-49 -32t-24.5 -40t-11 -39.5h-316q0 88 38 151.5t100.5 103.5t143.5 58.5t169 18.5q70 0 150.5 -11.5t149 -45t115 -94t46.5 -156.5v-625 q0 -70 5 -103.5t25 -62.5h-309v96q-31 -20 -63.5 -42.5t-70.5 -41t-85 -30t-109 -11.5q-92 0 -157.5 30t-108.5 76t-63.5 104.5t-20.5 115.5zM399 311q0 -14 6.5 -32.5t20.5 -35t37.5 -28.5t56.5 -12q47 0 86 19.5t69 54t46 83t16 105.5v47l-202 -68q-82 -27 -109 -62.5 t-27 -70.5z" />
<glyph unicode="&#x431;" horiz-adv-x="1290" d="M74 545q0 160 20.5 306t82 262t174 191.5t298.5 92.5q104 10 169 27.5t67 66.5h299q-8 -68 -25.5 -125t-62.5 -101t-124 -74t-210 -38q-113 -8 -183.5 -31.5t-111.5 -60.5t-59.5 -83t-26.5 -99q37 37 82 61.5t91 39.5t89 21.5t78 6.5q92 0 182 -30t162 -91.5t116 -152.5 t44 -214q0 -86 -28 -183t-93.5 -179t-177 -136.5t-279.5 -54.5q-268 0 -420.5 143.5t-152.5 434.5zM393 496q0 -43 13.5 -92.5t43 -91.5t77.5 -68.5t118 -26.5q74 0 124 28.5t81 71.5t43 94.5t12 98.5q0 45 -11 94t-40 91t-78 69t-125 27q-119 0 -188.5 -79t-69.5 -216z" />
<glyph unicode="&#x432;" horiz-adv-x="1228" d="M139 0v1069h643q61 0 122 -13.5t107 -44t74.5 -81.5t28.5 -129q0 -31 -4 -61.5t-21.5 -61.5t-50 -58.5t-88.5 -48.5q63 -16 103.5 -43.5t63 -64.5t30.5 -79t8 -85q0 -61 -22.5 -116.5t-66.5 -95.5t-109.5 -63.5t-151.5 -23.5h-666zM438 238h285q66 0 101.5 22.5 t35.5 81.5q0 55 -34.5 79.5t-90.5 24.5h-297v-208zM438 643h283q43 0 70.5 22.5t27.5 73.5q0 41 -25.5 66.5t-66.5 25.5h-289v-188z" />
<glyph unicode="&#x433;" horiz-adv-x="942" d="M139 0v1069h783v-250h-467v-819h-316z" />
<glyph unicode="&#x434;" horiz-adv-x="1384" d="M33 244q84 27 133 91t73.5 157.5t32 209t7.5 242.5v125h913v-827h151v-488h-286v246h-738v-246h-286v490zM418 242h459v585h-299v-79q0 -53 -7.5 -125t-26 -144.5t-49 -136t-77.5 -100.5z" />
<glyph unicode="&#x435;" horiz-adv-x="1193" d="M66 514q0 100 26.5 204.5t91 189.5t170 139.5t260.5 54.5q152 0 254.5 -55.5t165 -143.5t90 -198.5t27.5 -221.5v-14h-764v-12q0 -109 66.5 -181.5t177.5 -72.5q55 0 100 17.5t79 45t56.5 61t34.5 66.5l238 -123q-92 -154 -229.5 -231.5t-303.5 -77.5q-123 0 -222 38 t-170 108.5t-109.5 174t-38.5 232.5zM387 666h438q-4 90 -59 150.5t-154 60.5q-55 0 -96 -20.5t-67.5 -52.5t-41 -69t-20.5 -69z" />
<glyph unicode="&#x436;" horiz-adv-x="1556" d="M12 0q37 41 54.5 97.5t27.5 119t20.5 123.5t33 112.5t64.5 87t116 46.5q-63 10 -98 38.5t-51.5 68.5t-24 89t-18.5 99.5t-32.5 98.5t-66.5 89h319q27 -33 39.5 -74t19.5 -84t13 -84t20.5 -72.5t40 -51t72.5 -19.5h68v385h299v-385h67q47 0 73 19.5t40 51t20.5 72.5 t13.5 84t19.5 84t38.5 74h320q-45 -39 -66.5 -88t-33 -99.5t-18.5 -99.5t-23.5 -89t-51.5 -68.5t-98 -38.5q74 -10 115.5 -46t64.5 -87.5t33 -112.5t20.5 -123.5t27.5 -119t54 -97.5h-319q-23 33 -33 80t-15.5 98t-11.5 101.5t-21.5 90.5t-46 64.5t-85.5 24.5h-84v-459h-299 v459h-84q-55 0 -86 -24.5t-46.5 -64.5t-21.5 -90.5t-11 -101.5t-15.5 -98t-32.5 -80h-320z" />
<glyph unicode="&#x437;" horiz-adv-x="1138" d="M41 238l238 122q59 -86 133.5 -118.5t152.5 -32.5q33 0 66 6t59.5 20.5t43 37t16.5 57.5q0 14 -4.5 32.5t-19.5 35t-45 28.5t-83 12h-203v217h156q78 0 122 22.5t44 80.5q0 57 -42 83.5t-114 26.5q-76 0 -142.5 -33.5t-111.5 -103.5l-233 133q41 61 98 106.5t122.5 75 t136.5 43t138 13.5q86 0 167 -14.5t145.5 -49t103.5 -93t39 -144.5q0 -31 -6 -61.5t-24.5 -61.5t-50.5 -58.5t-83 -48.5q61 -16 101 -43.5t64 -63.5t32 -78t8 -87q0 -70 -33 -130t-97.5 -105.5t-159.5 -71t-218 -25.5q-158 0 -281.5 61.5t-234.5 209.5z" />
<glyph unicode="&#x438;" horiz-adv-x="1286" d="M139 0v1069h316v-549l376 406v143h316v-1069h-316v598l-376 -405v-193h-316z" />
<glyph unicode="&#x439;" horiz-adv-x="1286" d="M139 0v1069h316v-549l376 406v143h316v-1069h-316v598l-376 -405v-193h-316zM324 1434l208 41q0 -72 35 -98.5t76 -26.5q39 0 75 25.5t36 99.5l209 -41q-16 -133 -98.5 -199t-221.5 -66q-61 0 -116.5 14.5t-98.5 46.5t-70.5 82t-33.5 122z" />
<glyph unicode="&#x43a;" horiz-adv-x="1187" d="M139 0v1069h316v-377h123q84 0 115.5 41t44 99.5t25.5 124t60 112.5h328q-45 -39 -66.5 -88t-33 -99.5t-18.5 -99.5t-23.5 -89t-51 -68.5t-98.5 -38.5q74 -10 116 -46t64.5 -87.5t32.5 -112.5t20.5 -123.5t28 -119t54.5 -97.5h-328q-27 33 -38 79t-18.5 96t-14.5 99.5 t-26.5 88t-55.5 63.5t-101 25h-139v-451h-316z" />
<glyph unicode="&#x43b;" horiz-adv-x="1228" d="M-4 0v250h33q53 0 82.5 27.5t44 70.5t17.5 96.5t3 106.5v518h914v-1069h-316v827h-299v-290q0 -133 -14.5 -233.5t-61.5 -168t-135 -101.5t-235 -34h-33z" />
<glyph unicode="&#x43c;" horiz-adv-x="1626" d="M139 0v1069h504l170 -680l174 680h500v-1069h-303q2 150 4 307q2 135 4 299t6 322l-244 -928h-286l-246 924q4 -143 8 -304t8 -301q4 -162 4 -319h-303z" />
<glyph unicode="&#x43d;" horiz-adv-x="1245" d="M139 0v1069h316v-385h336v385h315v-1069h-315v434h-336v-434h-316z" />
<glyph unicode="&#x43e;" horiz-adv-x="1282" d="M66 541q0 100 31.5 200.5t100 180t175 130t258.5 50.5q168 0 280.5 -52.5t180 -135.5t96.5 -183t29 -196q0 -129 -40 -234.5t-114 -179.5t-180.5 -114t-241.5 -40q-104 0 -207.5 31t-184.5 98.5t-132 177t-51 267.5zM385 539q0 -68 14.5 -126.5t46 -102.5t80.5 -68.5 t119 -24.5q66 0 113 25.5t77.5 67.5t46 97.5t15.5 116.5q0 172 -69.5 250t-198.5 78q-45 0 -88 -17.5t-78 -55.5t-56.5 -97t-21.5 -143z" />
<glyph unicode="&#x43f;" horiz-adv-x="1236" d="M139 0v1069h959v-1069h-316v827h-327v-827h-316z" />
<glyph unicode="&#x440;" horiz-adv-x="1245" d="M139 -369v1438h279v-104q8 12 29.5 34.5t57.5 43t88 36t124 15.5q115 0 201 -45t144 -122t88 -178.5t30 -211.5q0 -129 -33 -232.5t-93.5 -175.5t-145.5 -110.5t-191 -38.5q-43 0 -76 6t-62.5 17t-59.5 27.5t-64 39.5v-439h-316zM442 520q0 -68 13.5 -125t40 -99 t67.5 -65.5t94 -23.5q59 0 101.5 29.5t68 80t38 114t12.5 130.5q0 31 -7.5 83t-30 102.5t-63.5 87t-110 36.5q-43 0 -83 -19.5t-72 -62.5t-50.5 -109.5t-18.5 -158.5z" />
<glyph unicode="&#x441;" horiz-adv-x="1105" d="M66 528q0 160 50 269.5t128 177t173 97.5t185 30q66 0 129.5 -9.5t122.5 -37t111.5 -78.5t95.5 -133l-234 -133q-6 23 -21 48t-40 47.5t-61.5 38t-88.5 15.5q-63 0 -107 -27.5t-71.5 -73.5t-40 -103.5t-12.5 -116.5q0 -57 13.5 -114.5t42 -104t74.5 -75t112 -28.5 q47 0 81.5 15.5t60.5 39t42 52t25 53.5l237 -123q-78 -158 -196.5 -222.5t-280.5 -64.5q-94 0 -188.5 31t-170 98.5t-123.5 174t-48 257.5z" />
<glyph unicode="&#x442;" horiz-adv-x="1028" d="M20 819v250h988v-250h-336v-819h-316v819h-336z" />
<glyph unicode="&#x443;" horiz-adv-x="1024" d="M0 1069h336l176 -766l176 766h336l-377 -1155q-18 -57 -40.5 -106.5t-63.5 -94.5q-49 -53 -100.5 -67.5t-123.5 -14.5h-227v252h135q66 0 86.5 24.5t20.5 53.5q0 23 -5 43.5t-18 58.5z" />
<glyph unicode="&#x444;" horiz-adv-x="1597" d="M66 532q0 113 32.5 211.5t101 171t178 113.5t263.5 41v377h315v-377q109 0 212.5 -20.5t184.5 -79t130 -163t49 -274.5q0 -150 -44 -252t-122 -164.5t-183.5 -89t-226.5 -26.5v-369h-315v369q-127 0 -232.5 30.5t-181 95t-118.5 165t-43 241.5zM373 539 q0 -166 73.5 -231.5t200.5 -65.5v585q-152 0 -213 -77.5t-61 -210.5zM950 242q80 0 133.5 24.5t84 65.5t44 94t13.5 113q0 162 -67.5 225t-207.5 63v-585z" />
<glyph unicode="&#x445;" horiz-adv-x="1067" d="M0 0l362 580l-323 489h356l142 -272l151 272h338l-324 -500l363 -569h-336l-203 332l-178 -332h-348z" />
<glyph unicode="&#x446;" horiz-adv-x="1290" d="M139 0v1069h316v-827h327v827h316v-827h151v-488h-286v246h-824z" />
<glyph unicode="&#x447;" horiz-adv-x="1191" d="M90 672v397h316v-324q0 -49 10 -77.5t29.5 -43t47 -18.5t62.5 -4q94 0 182 33v434h316v-1069h-316v401q-53 -16 -131 -28.5t-149 -12.5q-84 0 -151.5 14.5t-116 50.5t-74 95.5t-25.5 151.5z" />
<glyph unicode="&#x448;" horiz-adv-x="1789" d="M139 0v1069h299v-827h307v827h299v-827h308v827h299v-1069h-1512z" />
<glyph unicode="&#x449;" horiz-adv-x="1843" d="M139 0v1069h299v-827h307v827h299v-827h308v827h299v-827h151v-488h-286v246h-1377z" />
<glyph unicode="&#x44a;" horiz-adv-x="1269" d="M20 819v250h558v-348h278q166 0 263.5 -86t97.5 -273q0 -186 -102.5 -274t-323.5 -88h-529v819h-242zM578 242h204q53 0 90 28.5t37 91.5q0 35 -11 57.5t-28.5 36t-36 18.5t-32.5 5h-223v-237z" />
<glyph unicode="&#x44b;" horiz-adv-x="1597" d="M139 0v1069h299v-348h246q166 0 263 -86t97 -273q0 -186 -102 -274t-324 -88h-479zM438 242h185q53 0 90 28.5t37 91.5q0 35 -11.5 57.5t-29 36t-36 18.5t-32.5 5h-203v-237zM1159 0v1069h299v-1069h-299z" />
<glyph unicode="&#x44c;" horiz-adv-x="1146" d="M139 0v1069h316v-348h278q166 0 263.5 -86t97.5 -273q0 -186 -102.5 -274t-323.5 -88h-529zM455 242h204q53 0 90 28.5t37 91.5q0 35 -11 57.5t-28.5 36t-36 18.5t-32.5 5h-223v-237z" />
<glyph unicode="&#x44d;" horiz-adv-x="1130" d="M41 238l238 122q47 -86 107 -118.5t120 -32.5q57 0 102 22.5t75 56.5t46 73.5t21 76.5h-377v217h377q-18 94 -79 153.5t-159 59.5q-63 0 -124.5 -33.5t-102.5 -103.5l-234 133q39 61 93.5 106.5t116 75t127 43t130.5 13.5q137 0 239.5 -44t171 -121t102.5 -181.5 t34 -223.5t-35 -222t-103.5 -179t-170 -120t-234.5 -44q-166 0 -287.5 61.5t-193.5 209.5z" />
<glyph unicode="&#x44e;" horiz-adv-x="1802" d="M139 0v1069h299v-389h189q16 94 58 174t107.5 138.5t157.5 92t211 33.5q147 0 255 -45t179.5 -125t106.5 -187.5t35 -232.5q0 -123 -38 -226t-109.5 -178t-177 -116t-241.5 -41q-98 0 -192 25.5t-170 81t-125 145.5t-61 219h-185v-438h-299zM926 532q0 -66 13 -123 t44 -100t78 -67.5t115 -24.5q61 0 107 24.5t76 66.5t44 96.5t14 113.5q0 152 -57 243t-195 91q-106 0 -172.5 -85t-66.5 -235z" />
<glyph unicode="&#x44f;" horiz-adv-x="1212" d="M53 0q35 23 52.5 61.5t28.5 85t21.5 94.5t31 90t55 71.5t96.5 39.5q-90 16 -144.5 91t-54.5 182q0 37 10.5 97t48.5 116.5t111.5 98.5t200.5 42h563v-1069h-315v365h-119q-86 0 -123 -41t-53.5 -99.5t-26.5 -120t-43 -104.5h-340zM446 713q0 -70 40 -90.5t104 -20.5h168 v229h-172q-29 0 -54.5 -4t-44 -17t-30 -36.5t-11.5 -60.5z" />
<glyph unicode="&#x451;" horiz-adv-x="1193" d="M66 514q0 100 26.5 204.5t91 189.5t169 139.5t261.5 54.5q150 0 253.5 -55.5t166 -143.5t90 -198.5t27.5 -221.5v-14h-766v-12q0 -53 17.5 -100.5t50 -81t77.5 -53t101 -19.5q55 0 100 17.5t79 45t56.5 61t34.5 66.5l238 -123q-92 -154 -229.5 -231.5t-303.5 -77.5 q-123 0 -222 38t-170 108.5t-109.5 174t-38.5 232.5zM201 1200v246h315v-246h-315zM385 666h442q-4 90 -60 150.5t-155 60.5q-57 0 -97 -20.5t-67.5 -52.5t-42 -69t-20.5 -69zM711 1200v246h315v-246h-315z" />
<glyph unicode="&#x452;" horiz-adv-x="1269" d="M4 1094v213h164v139h315v-139h410v-213h-410v-303q43 49 88 76.5t85 43t75 19.5t57 4q168 0 255 -97.5t87 -269.5v-559q0 -106 -16 -178t-54 -115t-97.5 -61.5t-145.5 -18.5h-69.5t-73.5 5v249l39 -2q37 0 58.5 10.5t30.5 31t11 48t2 62.5v375q0 41 -3 86t-19.5 81.5 t-49 60.5t-90.5 24q-98 0 -134 -70t-36 -197v-399h-315v1094h-164z" />
<glyph unicode="&#x453;" horiz-adv-x="942" d="M139 0v1069h783v-250h-467v-819h-316zM385 1200l150 273h373l-314 -273h-209z" />
<glyph unicode="&#x454;" horiz-adv-x="1122" d="M66 532q0 119 33.5 223.5t102 181.5t171 121t239.5 44q141 0 265 -56.5t202 -181.5l-233 -133q-41 70 -102.5 103.5t-125.5 33.5q-98 0 -158.5 -59t-78.5 -154h377v-217h-377q2 -37 19.5 -76.5t47 -73.5t73.5 -56.5t104 -22.5q59 0 119.5 32.5t107.5 118.5l238 -122 q-72 -147 -194 -209t-288 -62q-133 0 -234.5 44t-170 120t-103 179.5t-34.5 221.5z" />
<glyph unicode="&#x455;" horiz-adv-x="1067" d="M-4 180l199 180q59 -61 142 -104t169 -43q78 0 134 26.5t56 77.5q0 45 -42 62.5t-128 32.5l-96 16q-190 33 -274 114t-84 203q0 68 28.5 132.5t85 114.5t141.5 81t197 31q137 0 257 -43t218 -117l-194 -180q-53 43 -125 74.5t-148 31.5q-25 0 -51 -4t-47.5 -14t-35 -25.5 t-13.5 -38.5q0 -39 40 -56t134 -36l76 -14q86 -16 157.5 -43t122 -67t78 -96t27.5 -130q0 -100 -48 -171t-122 -116t-163 -65.5t-173 -20.5q-100 0 -182 20.5t-147.5 51.5t-112.5 68t-76 67z" />
<glyph unicode="&#x456;" horiz-adv-x="593" d="M139 0v1069h316v-1069h-316zM139 1200v246h316v-246h-316z" />
<glyph unicode="&#x457;" horiz-adv-x="745" d="M61 1200v246h246v-246h-246zM215 0v1069h315v-1069h-315zM438 1200v246h246v-246h-246z" />
<glyph unicode="&#x458;" horiz-adv-x="593" d="M-2 -111l39 -2q37 0 58.5 10.5t30.5 31t11 48t2 62.5v1030h316v-1061q0 -106 -16.5 -178t-54.5 -115t-97.5 -61.5t-145.5 -18.5h-69.5t-73.5 5v249zM139 1200v246h316v-246h-316z" />
<glyph unicode="&#x459;" horiz-adv-x="1732" d="M-4 0v250h33q53 0 82.5 27.5t44 70.5t17.5 96.5t3 106.5v518h885v-348h258q166 0 263 -86t97 -273q0 -186 -102 -274t-324 -88h-491v827h-299v-290q0 -133 -14.5 -233.5t-59.5 -168t-131 -101.5t-229 -34h-33zM1061 242h184q53 0 90 28.5t37 91.5q0 35 -11 57.5t-28.5 36 t-36 18.5t-32.5 5h-203v-237z" />
<glyph unicode="&#x45a;" horiz-adv-x="1732" d="M139 0v1069h299v-385h324v385h299v-385h258q166 0 263 -81t97 -257q0 -180 -102 -263t-324 -83h-491v434h-324v-434h-299zM1061 242h184q53 0 90 26.5t37 85.5q0 31 -11 51.5t-28.5 33t-36 16.5t-32.5 4h-203v-217z" />
<glyph unicode="&#x45b;" horiz-adv-x="1269" d="M4 1094v213h164v139h315v-139h410v-213h-410v-303q43 49 88 76.5t85 43t75 19.5t57 4q168 0 255 -97.5t87 -269.5v-567h-315v414q0 41 -3 86t-19.5 81.5t-49 60.5t-90.5 24q-98 0 -134 -70t-36 -197v-399h-315v1094h-164z" />
<glyph unicode="&#x45c;" horiz-adv-x="1187" d="M139 0v1069h316v-377h123q84 0 115.5 41t44 99.5t25.5 124t60 112.5h328q-45 -39 -66.5 -88t-33 -99.5t-18.5 -99.5t-23.5 -89t-51 -68.5t-98.5 -38.5q74 -10 116 -46t64.5 -87.5t32.5 -112.5t20.5 -123.5t28 -119t54.5 -97.5h-328q-27 33 -38 79t-18.5 96t-14.5 99.5 t-26.5 88t-55.5 63.5t-101 25h-139v-451h-316zM487 1200l150 273h373l-314 -273h-209z" />
<glyph unicode="&#x45e;" horiz-adv-x="1024" d="M0 1069h336l176 -766l176 766h336l-377 -1155q-18 -57 -40.5 -106.5t-63.5 -94.5q-49 -53 -100.5 -67.5t-123.5 -14.5h-227v252h135q66 0 86.5 24.5t20.5 53.5q0 23 -5 43.5t-18 58.5zM190 1434l209 41q0 -72 35 -98.5t75 -26.5q39 0 75 25.5t36 99.5l209 -41 q-16 -133 -98 -199t-222 -66q-61 0 -116.5 14.5t-98.5 46.5t-70.5 82t-33.5 122z" />
<glyph unicode="&#x45f;" horiz-adv-x="1236" d="M139 0v1069h316v-827h327v827h316v-1069h-336v-287h-287v287h-336z" />
<glyph unicode="&#x490;" horiz-adv-x="1228" d="M139 0v1446h738v307h319v-590h-692v-1163h-365z" />
<glyph unicode="&#x491;" horiz-adv-x="942" d="M139 0v1069h512v246h271v-496h-467v-819h-316z" />
<glyph unicode="&#x2013;" horiz-adv-x="1282" d="M78 485v293h1126v-293h-1126z" />
<glyph unicode="&#x2014;" horiz-adv-x="1880" d="M78 485v293h1724v-293h-1724z" />
<glyph unicode="&#x2018;" horiz-adv-x="512" d="M94 762v319q0 152 88 253.5t238 123.5v-141q-76 -31 -97.5 -84t-29.5 -127h127v-344h-326z" />
<glyph unicode="&#x2019;" horiz-adv-x="512" d="M92 754v145q41 12 66.5 31.5t40 46.5t19.5 60.5t5 72.5h-131v336h326v-295q0 -68 -16.5 -134.5t-55.5 -121.5t-100.5 -93t-153.5 -48z" />
<glyph unicode="&#x201a;" horiz-adv-x="512" d="M92 0v344h328v-281q0 -90 -18.5 -158.5t-57.5 -117.5t-100.5 -84t-149.5 -57v145q37 14 60.5 34.5t36 47.5t18.5 58.5t8 68.5h-125z" />
<glyph unicode="&#x201c;" horiz-adv-x="980" d="M94 760v303q0 160 79 267.5t245 129.5v-145q-41 -12 -66.5 -32.5t-39 -47.5t-18.5 -60.5t-5 -72.5h129v-342h-324zM565 760v303q0 160 80 267.5t244 129.5v-145q-41 -12 -66.5 -32.5t-39 -47.5t-18.5 -60.5t-5 -72.5h129v-342h-324z" />
<glyph unicode="&#x201d;" horiz-adv-x="980" d="M94 748v145q41 12 66.5 32.5t39 47t18.5 59.5t5 72h-129v342h324v-307q0 -72 -20.5 -139.5t-60.5 -121t-100.5 -88t-142.5 -42.5zM565 748v145q41 12 66.5 32.5t39 47t18.5 59.5t5 72h-129v342h324v-303q0 -68 -17.5 -133.5t-56.5 -120.5t-100.5 -93t-149.5 -48z" />
<glyph unicode="&#x201e;" horiz-adv-x="980" d="M94 0v342h324v-303q0 -162 -80 -265.5t-244 -131.5v145q82 29 104.5 82t24.5 131h-129zM565 0v342h324v-303q0 -158 -81 -266.5t-243 -130.5v145q41 12 66.5 32.5t39 47.5t18.5 59.5t5 73.5h-129z" />
<glyph unicode="&#x2020;" horiz-adv-x="1193" d="M80 713v260h377v479h276v-479h379v-260h-379v-957h-276v957h-377z" />
<glyph unicode="&#x2021;" horiz-adv-x="1193" d="M137 125v250h324v477h-324v248h326v346h266v-346h330v-250h-332v-475h330v-252h-328v-369h-268v371h-324z" />
<glyph unicode="&#x2022;" horiz-adv-x="681" d="M86 463v508h510v-508h-510z" />
<glyph unicode="&#x2026;" horiz-adv-x="2048" d="M209 0v258h262v-258h-262zM893 0v258h262v-258h-262zM1577 0v258h260v-258h-260z" />
<glyph unicode="&#x2030;" horiz-adv-x="2560" d="M53 938q0 74 14.5 157t51.5 152.5t101.5 115.5t164.5 46q86 0 147.5 -40t99.5 -105.5t56.5 -152.5t18.5 -179q0 -76 -15.5 -159t-52.5 -150.5t-98.5 -111.5t-153.5 -44t-155.5 38t-103.5 101.5t-57.5 149.5t-17.5 182zM262 922q0 -131 27.5 -206t95.5 -75q55 0 84 76 t29 219q0 57 -5.5 110.5t-19.5 94.5t-36.5 65.5t-57.5 24.5q-63 0 -90 -84t-27 -225zM430 0l768 1477l164 -86l-770 -1477zM1081 459q0 74 14.5 156.5t51.5 152.5t101.5 116t164.5 46q86 0 147.5 -39t99.5 -105.5t56.5 -152.5t18.5 -180q0 -76 -14.5 -159t-51.5 -150.5 t-99.5 -111.5t-158.5 -44q-94 0 -156.5 41t-101.5 107.5t-55.5 150.5t-16.5 172zM1292 442q0 -131 28 -205.5t95 -74.5q55 0 84 75.5t29 219.5q0 57 -5 110.5t-19.5 94t-37 65.5t-57.5 25q-63 0 -90 -84t-27 -226zM1849 459q0 74 14.5 156.5t51.5 152.5t101.5 116t164.5 46 q86 0 147.5 -39t99.5 -105.5t56.5 -152.5t18.5 -180q0 -76 -14.5 -159t-51.5 -150.5t-99.5 -111.5t-158.5 -44q-94 0 -156.5 41t-101.5 107.5t-55.5 150.5t-16.5 172zM2060 442q0 -131 28 -205.5t95 -74.5q55 0 84 76t29 219q0 57 -5 110.5t-19.5 94t-37 65.5t-57.5 25 q-63 0 -90 -84t-27 -226z" />
<glyph unicode="&#x2039;" horiz-adv-x="468" d="M66 471v256l323 274v-282l-137 -117l139 -117v-280z" />
<glyph unicode="&#x203a;" horiz-adv-x="468" d="M74 197v282l131 119l-131 117v278l325 -268v-252z" />
<glyph unicode="&#x2044;" horiz-adv-x="256" d="M-338 0l768 1477l164 -86l-770 -1477z" />
<glyph unicode="&#x20ac;" horiz-adv-x="1452" d="M70 504l55 149h78q-2 8 -2 16.5v16.5q0 12 1 23.5t3 23.5h-135l55 150h100q59 272 245.5 411.5t461.5 139.5q70 0 128 -7.5t112.5 -26t104.5 -48t105 -72.5l-122 -293q-68 78 -144 117t-180 39q-137 0 -221 -65.5t-125 -194.5h635l-54 -150h-608v-39.5t2 -40.5h582 l-55 -149h-504q43 -137 144.5 -201.5t242.5 -64.5q96 0 191.5 47t154.5 125v-363q-94 -49 -198.5 -68.5t-209.5 -19.5q-283 0 -455.5 133t-234.5 412h-153z" />
<glyph unicode="&#x2116;" horiz-adv-x="2306" d="M139 0v1446h340l453 -848v848h325v-1446h-337l-455 827v-827h-326zM1397 995q0 70 17.5 150t63.5 146.5t125.5 110.5t204.5 44q109 0 186 -38t125 -101.5t70.5 -145.5t22.5 -170q0 -74 -19.5 -151.5t-65.5 -142t-123 -106.5t-194 -42q-115 0 -193.5 36t-127.5 97 t-70.5 142t-21.5 171zM1427 205v250h746v-250h-746zM1626 981q0 -111 40 -175.5t142 -64.5q86 0 130 64.5t44 187.5q0 49 -8 96.5t-29.5 84t-56.5 58t-86 21.5q-96 0 -136 -74.5t-40 -197.5z" />
<glyph unicode="&#x2122;" horiz-adv-x="1507" d="M23 1307v139h555v-139h-187v-541h-176v541h-192zM653 766q0 10 1 45t1 84v109.5v121.5v320h258l111 -434l109 434h256v-322v-121.5t1 -109.5t1 -83v-44h-166q0 12 1 40t1 65.5v83.5v92v237l-133 -518h-142l-139 526q2 -137 4 -250q0 -47 1 -94t2 -85t1 -64.5v-32.5h-168z " />
<glyph unicode="&#x2202;" horiz-adv-x="1179" d="M68 422q0 109 31.5 197t90 151.5t140.5 98t180 34.5q68 0 125 -17.5t115 -64.5v17q0 190 -56.5 277t-181.5 87q-35 0 -72 -6t-114 -27l-33 258q72 23 149.5 35.5t149.5 12.5q258 0 378 -170t120 -533q0 -408 -136.5 -604.5t-421.5 -196.5q-104 0 -190 32t-147.5 91.5 t-94 142t-32.5 185.5zM395 432q0 -92 44 -148.5t116 -56.5q88 0 130 81t44 251q-35 39 -80 60.5t-92 21.5q-74 0 -118 -57.5t-44 -151.5z" />
<glyph unicode="&#x2206;" horiz-adv-x="1525" d="M0 0l561 1446h414l553 -1446h-1528zM496 285h534l-274 821z" />
<glyph unicode="&#x220f;" horiz-adv-x="1536" d="M139 -250v1696h1256v-1696h-365v1417h-528v-1417h-363z" />
<glyph unicode="&#x2211;" horiz-adv-x="1259" d="M53 16l488 588l-488 570v272h1159v-279h-743l475 -551l-493 -581h761v-285h-1159v266z" />
<glyph unicode="&#x221a;" d="M68 352l432 162l194 -473l355 1405h340l-515 -1825h-321l-236 522l-147 -53z" />
<glyph unicode="&#x221e;" d="M63 653q0 96 27 178t74 141.5t111.5 93.5t140.5 34q51 0 94 -11.5t82 -38t76.5 -67.5t76.5 -100q82 115 156 167t176 52q76 0 138.5 -32t107.5 -89t70.5 -136t25.5 -173q0 -98 -25.5 -181t-71.5 -141.5t-110.5 -91.5t-142.5 -33q-102 0 -178 46t-160 163q-39 -55 -76 -95 t-74.5 -65.5t-79.5 -38t-93 -12.5q-78 0 -141.5 31t-108.5 86t-70 135t-25 178zM317 659q0 -72 27 -114.5t72 -42.5q35 0 74 35.5t92 119.5q-51 86 -89 123t-73 37q-47 0 -75 -43t-28 -115zM905 655q53 -88 89 -123.5t73 -35.5q45 0 72.5 44t27.5 115q0 70 -26.5 113 t-69.5 43q-35 0 -74 -37t-92 -119z" />
<glyph unicode="&#x222b;" horiz-adv-x="774" d="M39 -55q35 -25 55.5 -33t42.5 -8q47 0 60.5 30.5t13.5 118.5v1006q0 98 14.5 175t51 129t102 78.5t168.5 26.5q51 0 92 -8t90 -24v-275q-33 25 -55.5 35t-46.5 10q-45 0 -60.5 -31.5t-15.5 -117.5v-981q0 -115 -15.5 -197t-54.5 -135t-102.5 -78.5t-159.5 -25.5 q-47 0 -87 8t-93 24v273z" />
<glyph unicode="&#x2248;" d="M143 459q43 55 80 92t75 59.5t79 32.5t92 10q49 0 101.5 -14t146.5 -55l117 -52q35 -14 59.5 -24t41.5 -15.5t31.5 -7.5t28.5 -2q33 0 60.5 7.5t57.5 26t61.5 48t70.5 72.5l94 -256q-92 -109 -172 -152t-166 -43q-47 0 -101 17.5t-146 58.5l-72 33q-72 33 -120 47t-93 14 q-53 0 -99 -25.5t-112 -107.5l-18 -22zM143 942q43 55 80 92t75 60.5t79 34t92 10.5q49 0 101.5 -14.5t146.5 -55.5l117 -51q70 -31 100.5 -40t60.5 -9q31 0 58.5 7t56.5 23.5t61.5 47t73.5 75.5l94 -256q-92 -109 -172 -151.5t-166 -42.5q-47 0 -102 17.5t-145 58.5l-72 32 q-72 33 -120 46.5t-93 13.5q-31 0 -54.5 -5.5t-47 -19.5t-49 -39.5t-60.5 -68.5l-18 -23z" />
<glyph unicode="&#x2260;" d="M203 276v269h375l84 174h-459v270h592l135 273h258l-135 -273h227v-270h-360l-86 -174h446v-269h-578l-141 -288h-258l141 288h-241z" />
<glyph unicode="&#x2264;" d="M254 0v270h950v-270h-950zM254 760v313l950 397v-313l-647 -239l647 -248v-344z" />
<glyph unicode="&#x2265;" d="M279 0v270h950v-270h-950zM279 326v313l647 238l-647 249v344l950 -436v-311z" />
<glyph unicode="&#x25ca;" d="M182 725l406 721h317l398 -721l-402 -725h-317zM522 723l213 -440l226 442l-211 449z" />
<glyph unicode="&#x25fc;" horiz-adv-x="1064" d="M0 0v1065h1065v-1065h-1065z" />
</font>
</defs>
</svg>
