<?xml version="1.0" standalone="no"?>
<!DOCTYPE svg PUBLIC "-//W3C//DTD SVG 1.1//EN" "http://www.w3.org/Graphics/SVG/1.1/DTD/svg11.dtd" >
<svg xmlns="http://www.w3.org/2000/svg" xmlns:xlink="http://www.w3.org/1999/xlink" version="1.1">
<metadata></metadata>
<defs>
<font id="nissan_agregular" horiz-adv-x="1482" >
<font-face units-per-em="2048" ascent="1536" descent="-512" />
<missing-glyph horiz-adv-x="555" />
<glyph unicode="&#xfb01;" horiz-adv-x="980" d="M23 829v136h159v84v85.5t3 66.5t7.5 54.5t14.5 47.5q18 49 52 75.5t68.5 40t64.5 15.5t44 2q16 0 47 -2t72 -11v-129q-4 2 -33.5 6.5t-56.5 4.5q-63 0 -93 -37t-30 -119v-184h182v-136h-182v-829h-160v829h-159zM694 0v965h158v-965h-158zM694 1257v189h158v-189h-158z " />
<glyph unicode="&#xfb02;" horiz-adv-x="980" d="M23 829v136h159v84v85.5t3 66.5t7.5 54.5t14.5 47.5q18 49 52 75.5t68.5 40t64.5 15.5t44 2q16 0 47 -2t72 -11v-129q-4 2 -33.5 6.5t-56.5 4.5q-63 0 -93 -37t-30 -119v-184h182v-136h-182v-829h-160v829h-159zM692 0v1446h156v-1446h-156z" />
<glyph horiz-adv-x="0" />
<glyph unicode="&#xd;" horiz-adv-x="555" />
<glyph unicode=" "  horiz-adv-x="555" />
<glyph unicode="&#x09;" horiz-adv-x="555" />
<glyph unicode="&#xa0;" horiz-adv-x="555" />
<glyph unicode="!" horiz-adv-x="555" d="M236 0v184h161v-184h-161zM236 879v567h161v-590l-49 -555h-63z" />
<glyph unicode="&#x22;" horiz-adv-x="710" d="M90 1522h182l-57 -602h-65zM438 1522h180l-57 -602h-63z" />
<glyph unicode="#" horiz-adv-x="1366" d="M86 469v158h305l33 221h-291v158h311l64 438h164l-64 -438h226l65 438h160l-62 -438h283v-158h-303l-33 -221h285v-158h-307l-68 -469h-162l68 469h-228l-67 -469h-166l72 469h-285zM553 627h229l31 221h-227z" />
<glyph unicode="$" horiz-adv-x="1280" d="M41 418l209 22q27 -117 108.5 -203.5t229.5 -111.5v518q-66 18 -146 49t-149.5 80t-115.5 121t-46 174q0 104 46 178t114.5 121t148.5 70.5t148 29.5v226h137v-228q59 -8 131 -31.5t138.5 -67.5t119.5 -114.5t78 -171.5l-191 -18q-29 94 -97 162.5t-179 85.5v-484 q63 -18 150.5 -49t166 -82t133 -126.5t54.5 -184.5q0 -94 -42 -171t-109.5 -132t-155.5 -86t-181 -31h-16v-244h-137v244q-16 2 -51 8t-80 18.5t-95.5 34t-97.5 52.5q-61 41 -102 91t-65.5 97t-37 88t-18.5 66zM338 1090q0 -55 23.5 -93.5t60.5 -64t81 -40.5t85 -28v451 q-43 -2 -87 -17.5t-81 -43t-59.5 -69.5t-22.5 -95zM725 119q49 0 100.5 14t94.5 43t69.5 73t26.5 103q0 92 -69.5 148.5t-221.5 103.5v-485z" />
<glyph unicode="%" horiz-adv-x="1835" d="M53 928q0 74 16.5 155.5t55.5 152.5t103.5 117t158.5 46q66 0 126 -30t107.5 -89t75 -148.5t27.5 -207.5q0 -66 -14.5 -147t-51 -151.5t-101 -118.5t-167.5 -48q-80 0 -142.5 34.5t-105.5 97t-65.5 148t-22.5 189.5zM188 938q0 -23 3.5 -82t21.5 -120.5t59 -109.5 t117 -48q41 0 78 18t64.5 58t43 106t15.5 164q0 121 -22.5 191.5t-55.5 107.5t-67.5 48t-59.5 11q-53 0 -90 -27.5t-60.5 -74.5t-35 -109.5t-11.5 -132.5zM508 -6l651 1403l111 -54l-649 -1402zM1069 451q0 74 16.5 155.5t55.5 152t103.5 117t158.5 46.5q66 0 126 -30 t107 -89.5t75 -148.5t28 -208q0 -66 -14.5 -146.5t-51.5 -151t-101.5 -118.5t-166.5 -48q-80 0 -142.5 34.5t-105.5 97t-65.5 148t-22.5 189.5zM1204 461q0 -23 3 -82.5t21.5 -120.5t59.5 -109.5t117 -48.5q41 0 78 18.5t64.5 58.5t43 105.5t15.5 163.5q0 121 -22.5 192 t-55.5 107.5t-68 48t-59 11.5q-53 0 -90 -27.5t-60.5 -75t-35 -110t-11.5 -131.5z" />
<glyph unicode="&#x26;" horiz-adv-x="1236" d="M78 379q0 96 31.5 167.5t82 125t109.5 91.5t115 68q-27 70 -47.5 129.5t-20.5 137.5q0 70 23.5 132t66.5 107t102.5 72t131.5 27q61 0 115.5 -21.5t94.5 -59.5t63.5 -91.5t23.5 -116.5q0 -66 -25.5 -119t-58.5 -93t-66 -65.5t-47 -35.5q-29 -18 -58.5 -36t-58.5 -34 q41 -92 95.5 -184.5t109.5 -180.5q23 45 47.5 103.5t48.5 163.5h158q-10 -74 -30.5 -137.5t-43 -115t-45 -89l-37.5 -62.5q8 -10 23.5 -28.5t40.5 -36t58.5 -29.5t76.5 -12q16 0 57 6v-170q-25 -4 -46 -6t-31 -2q-63 0 -112.5 16t-85.5 39.5t-61.5 48.5t-39.5 43 q-53 -49 -107.5 -77.5t-103.5 -45t-89 -21.5t-65 -5q-55 0 -123.5 20.5t-129 67.5t-101.5 122.5t-41 186.5zM252 399q0 -47 17.5 -93t49 -83t78.5 -59.5t109 -22.5q45 0 84 13.5t69.5 32t51 36t30.5 25.5q-41 57 -74.5 116.5t-68.5 118.5q-25 43 -42 72t-29.5 50.5t-21.5 41 t-22 43.5q-72 -31 -116.5 -70.5t-70.5 -79.5t-35 -77t-9 -64zM512 1133q0 -35 15.5 -92.5t52.5 -133.5q125 53 176 125t51 135q0 57 -37 100.5t-100 43.5q-20 0 -47 -9.5t-51.5 -30t-42 -54t-17.5 -84.5z" />
<glyph unicode="'" horiz-adv-x="362" d="M90 1522h182l-57 -602h-65z" />
<glyph unicode="(" horiz-adv-x="645" d="M82 657q0 137 30.5 274.5t92 265.5t156 239.5t221.5 197.5l67 -82q-195 -170 -286 -383t-91 -497q0 -141 27 -275.5t76 -252t119.5 -216t158.5 -168.5l-65 -94q-242 180 -374 433t-132 558z" />
<glyph unicode=")" horiz-adv-x="653" d="M8 1546l68 94q246 -180 375 -436t129 -555q0 -145 -33 -285.5t-97.5 -267.5t-157.5 -235.5t-214 -188.5l-68 80q193 170 286 385t93 500q0 141 -26.5 274t-75.5 252t-120 216.5t-159 166.5z" />
<glyph unicode="*" horiz-adv-x="714" d="M37 1178l35 116l209 -55v211h127v-215l210 70l44 -111l-213 -76l129 -170l-99 -76l-135 175l-121 -175l-102 74l121 174z" />
<glyph unicode="+" d="M190 537v159h461v467h180v-467h461v-159h-461v-469h-180v469h-461z" />
<glyph unicode="," horiz-adv-x="468" d="M129 0v223h203v-123q0 -111 -19.5 -215t-64.5 -204h-96q27 76 47 157.5t20 161.5h-90z" />
<glyph unicode="-" horiz-adv-x="757" d="M92 537v155h574v-155h-574z" />
<glyph unicode="." horiz-adv-x="468" d="M131 0v231h203v-231h-203z" />
<glyph unicode="/" horiz-adv-x="681" d="M27 0l477 1438h153l-473 -1438h-157z" />
<glyph unicode="0" horiz-adv-x="1193" d="M100 686q0 152 34 282t96.5 224t154.5 147.5t209 53.5q104 0 196.5 -47.5t160 -136.5t106.5 -219t39 -294q0 -154 -33 -283.5t-95.5 -224t-155.5 -147.5t-216 -53q-80 0 -167 32.5t-159.5 112.5t-121 214t-48.5 339zM283 674q0 -115 19.5 -211t59 -167t99 -110t139.5 -39 q100 0 160.5 58.5t94.5 142.5t45 178.5t11 165.5q0 31 -3 82t-13 111.5t-29.5 122t-54.5 110.5t-86 81t-125 32q-98 0 -159.5 -50.5t-97.5 -130t-48 -178t-12 -198.5z" />
<glyph unicode="1" horiz-adv-x="1193" d="M242 1010v127q133 0 203.5 31.5t105.5 88.5q23 35 32 73t11 50h137v-1380h-192v1010h-297z" />
<glyph unicode="2" horiz-adv-x="1193" d="M158 961q0 18 3 56t15 84t38 95t73 90q37 33 115.5 70t201.5 37q18 0 51 -2t74 -12.5t85 -31t87 -57.5q72 -59 110 -148t38 -186q0 -156 -94.5 -304t-245.5 -273q-147 -119 -306 -221h662v-158h-903v174q25 12 61.5 33.5t89 57.5t121 91.5t156.5 139.5q51 47 99 98 t86 109.5t60.5 124t22.5 141.5q0 123 -68.5 193.5t-191.5 70.5q-74 0 -124 -22.5t-79.5 -59.5t-43 -86t-13.5 -104q0 -33 4 -68t20 -96h-180q-8 27 -16 65.5t-8 98.5z" />
<glyph unicode="3" horiz-adv-x="1193" d="M82 457h184q4 -66 18.5 -121t49.5 -96t96.5 -64.5t159.5 -23.5q20 0 70.5 4t101.5 27.5t90 73.5t39 142q0 104 -69.5 168t-233.5 64q-41 0 -73 -1t-62 -5v166q23 -2 49 -3.5t55 -1.5q57 0 111.5 10.5t96.5 35t67.5 67.5t25.5 109q0 61 -26.5 105t-66.5 72.5t-90 42 t-95 13.5q-68 0 -125.5 -26.5t-96.5 -88.5q-29 -47 -36 -101t-11 -107l-182 8q4 53 7 93t20 89q31 100 90 157.5t122.5 86t123 35t90.5 6.5q109 0 194.5 -30t145 -81t90 -121.5t30.5 -152.5q0 -98 -37.5 -171t-130.5 -122q39 -16 76 -44t67 -69t48 -95t18 -122q0 -18 -3 -48 t-13 -65.5t-31.5 -74.5t-58.5 -76q-49 -49 -104.5 -76t-107.5 -40t-95 -15t-66 -2q-100 0 -194.5 24.5t-167 79.5t-116.5 145.5t-44 219.5z" />
<glyph unicode="4" horiz-adv-x="1193" d="M86 332v166l659 882h144v-893h201v-155h-201v-332h-178v332h-625zM272 487h439v35t1 74t2 99.5t1 111.5q2 133 4 299z" />
<glyph unicode="5" horiz-adv-x="1193" d="M96 430l183 12q6 -51 25.5 -104t55 -96t90 -70t132.5 -27q33 0 85 12.5t100 49.5t83 104.5t35 177.5q0 66 -18.5 124.5t-55.5 101.5t-93 67.5t-132 24.5q-90 0 -161 -44t-112 -134h-166l46 751h784v-161h-645l-19 -363q18 16 46 35.5t66 36t86 28t107 11.5q113 0 199 -42 t143.5 -111t86 -156t28.5 -175q0 -94 -30.5 -183t-92 -158.5t-152.5 -111.5t-212 -42q-115 0 -197 32.5t-137 81t-87 102.5t-46 95q-8 23 -14.5 52.5t-10.5 78.5z" />
<glyph unicode="6" horiz-adv-x="1193" d="M127 674q0 141 25.5 271t84 229.5t153.5 159t233 59.5q72 0 137 -18.5t120.5 -59.5t97.5 -109.5t64 -169.5l-178 -24q-14 98 -74.5 161.5t-164.5 63.5q-94 0 -156.5 -45t-99.5 -116.5t-51.5 -159t-14.5 -173.5q18 29 50 58.5t75 54.5t97.5 40t119.5 15q70 0 146.5 -25.5 t141 -79.5t105.5 -138t41 -201q0 -74 -24.5 -158t-78.5 -155.5t-141 -118.5t-214 -47q-49 0 -102.5 11t-103.5 35.5t-95.5 63.5t-81.5 95q-31 49 -52.5 99t-35 108.5t-18.5 125t-5 148.5zM332 449q0 -63 21.5 -118t60.5 -94.5t93 -62t118 -22.5q63 0 114.5 24.5t86 65.5 t54 94t19.5 113q0 39 -12.5 90t-44 97t-86 77.5t-138.5 31.5q-80 0 -135 -29.5t-89 -74.5t-48 -96t-14 -96z" />
<glyph unicode="7" horiz-adv-x="1193" d="M197 954v426h845v-198q0 -29 -4 -48.5t-13 -41t-24.5 -47t-37.5 -66.5l-72 -125q-57 -100 -111.5 -206.5t-98.5 -216t-76 -218.5t-44 -213h-217q14 115 58 242t104.5 250.5t127 240.5t128.5 211l61 96q23 35 36 57.5t20.5 40t9.5 36t2 43.5h-547v-263h-147z" />
<glyph unicode="8" horiz-adv-x="1193" d="M106 412q0 102 48.5 191t140.5 138q-80 53 -117 121t-37 164q0 174 116 270.5t343 96.5q158 0 249 -43t136 -102.5t56.5 -121t11.5 -100.5q0 -78 -34 -155t-122 -130q27 -16 60.5 -39.5t63.5 -61.5t50.5 -92t20.5 -132q0 -82 -29 -159t-88.5 -137.5t-153.5 -96 t-223 -35.5q-133 0 -226 39t-151.5 100t-86.5 136t-28 149zM293 412q0 -74 29.5 -123t75.5 -79t100.5 -42t103.5 -12q45 0 98.5 11t97.5 41t73.5 79t29.5 125q0 74 -27.5 121t-71.5 75.5t-99.5 39.5t-110.5 11q-88 0 -146.5 -23.5t-92.5 -60t-47 -79.5t-13 -84zM324 1030 q0 -31 9 -68.5t38.5 -70.5t83 -55.5t143.5 -22.5q98 0 152.5 26.5t80 63.5t31.5 74.5t6 62.5q0 31 -13 65t-45 62.5t-86 48t-134 19.5q-53 0 -101.5 -11.5t-85 -36t-58 -63.5t-21.5 -94z" />
<glyph unicode="9" horiz-adv-x="1193" d="M106 909q0 80 25 165t80 153.5t144 113.5t218 45t223.5 -47t156 -136t92 -216t30.5 -289q0 -33 -3 -96t-18.5 -141t-46 -161t-85.5 -155q-59 -78 -146.5 -117.5t-212.5 -39.5q-96 0 -166.5 31.5t-122 81t-82 110.5t-42.5 121l178 33q20 -96 76.5 -159t170.5 -63 q12 0 34 2t47.5 9.5t53 23t54.5 39.5q37 35 62.5 85t42 105.5t23.5 111.5t7 104q-16 -20 -44 -51t-69 -59t-98 -47.5t-131 -19.5q-100 0 -183 35t-142.5 96.5t-92.5 146.5t-33 185zM289 899q0 -74 24.5 -129t64.5 -90t92 -52.5t108 -17.5q82 0 139 27t94 67.5t53.5 90 t16.5 98.5q0 63 -19.5 124.5t-58.5 110t-97.5 77t-134.5 28.5q-88 0 -143 -36t-86 -87t-42 -108.5t-11 -102.5z" />
<glyph unicode=":" horiz-adv-x="555" d="M217 0v231h203v-231h-203zM217 772v229h203v-229h-203z" />
<glyph unicode=";" horiz-adv-x="555" d="M219 0v227h203v-125q0 -111 -16.5 -213t-63.5 -206h-92q25 78 38 157.5t13 159.5h-82zM219 778v226h203v-226h-203z" />
<glyph unicode="&#x3c;" d="M233 526v183l953 481v-180l-787 -389l787 -388v-186z" />
<glyph unicode="=" d="M203 334v158h1077v-158h-1077zM203 717v160h1077v-160h-1077z" />
<glyph unicode="&#x3e;" d="M295 43v182l786 387l-786 387v187l952 -477v-185z" />
<glyph unicode="?" horiz-adv-x="1150" d="M145 965v36q0 90 31 173t90.5 145.5t144.5 100.5t195 38q92 0 178 -31.5t150.5 -89t103.5 -139.5t39 -182q0 -92 -30.5 -164t-84 -122t-124 -78.5t-150.5 -33.5v-311h-162v484h64q68 0 125 14t100 44t67.5 77t24.5 112q0 63 -25.5 113.5t-68.5 84.5t-98.5 51.5 t-114.5 17.5q-84 0 -137 -30t-84 -76t-43 -99t-12 -103v-32h-179zM514 0v199h182v-199h-182z" />
<glyph unicode="@" horiz-adv-x="1835" d="M141 479q0 197 72 374t199 311t299 214t372 80q135 0 247 -41t193 -116.5t126 -185t45 -247.5q0 -152 -47 -299q-23 -66 -62 -140.5t-94 -138t-123 -105.5t-147 -42q-80 0 -125 47.5t-45 128.5q-55 -72 -126 -123t-169 -51q-70 0 -120 29t-83 75t-48.5 106.5t-15.5 121.5 q0 94 30 196.5t85 188.5t135 141.5t183 55.5q86 0 146 -47t89 -125l31 127h139l-67 -307q-18 -84 -38 -175.5t-20 -177.5q0 -31 13.5 -59.5t50.5 -28.5t73.5 28t59.5 56q86 102 131 240.5t45 271.5q0 115 -36 205t-101.5 152.5t-157.5 95.5t-205 33q-174 0 -323.5 -73 t-260 -192.5t-173 -276.5t-62.5 -325q0 -147 51 -263t141.5 -195.5t213 -121.5t264.5 -42q201 0 372.5 80.5t313.5 218.5l67 -84q-152 -152 -343 -240t-408 -88q-88 0 -181.5 18.5t-175.5 53.5q-215 92 -322.5 262t-107.5 399zM651 487q0 -39 9.5 -76.5t29 -67.5t50 -48.5 t75.5 -18.5q86 0 142.5 57.5t89 133.5t46 151.5t13.5 114.5q0 37 -11.5 73t-33 63.5t-54 44t-73.5 16.5q-68 0 -121 -45t-89 -111.5t-54.5 -143.5t-18.5 -143z" />
<glyph unicode="A" horiz-adv-x="1323" d="M20 0l551 1446h201l526 -1446h-202l-158 442h-551l-162 -442h-205zM449 604h432l-211 604z" />
<glyph unicode="B" horiz-adv-x="1409" d="M158 0v1446h694q78 0 152.5 -23.5t133 -70.5t94.5 -117t36 -160q0 -111 -59.5 -197.5t-161.5 -115.5q43 -12 90 -37t85 -67t63.5 -105.5t25.5 -153.5q0 -121 -45 -198.5t-114 -121.5t-147.5 -61.5t-146.5 -17.5h-700zM340 170h469q53 0 107.5 7t97.5 31.5t70.5 73 t27.5 132.5q0 131 -83 195.5t-214 64.5h-475v-504zM340 838h428q49 0 101.5 7t95.5 30.5t71.5 68.5t28.5 121q0 90 -56.5 150.5t-191.5 60.5h-477v-438z" />
<glyph unicode="C" horiz-adv-x="1564" d="M100 723q0 168 50.5 308t143.5 240.5t229 156t308 55.5q260 0 424 -117t236 -326l-195 -39q-18 61 -56 120t-95.5 105t-136 74.5t-179.5 28.5q-123 0 -219 -44t-162.5 -122t-100.5 -188.5t-34 -241.5q0 -156 40 -270.5t109.5 -189t165 -111.5t203.5 -37q84 0 163 24.5 t143.5 77t109.5 132t64 190.5l209 -25q-18 -88 -67.5 -186t-135.5 -181t-212 -138.5t-298 -55.5q-164 0 -294 55.5t-222 154.5t-141.5 239.5t-49.5 310.5z" />
<glyph unicode="D" horiz-adv-x="1449" d="M160 0v1446h573q131 0 242.5 -46t194.5 -136t130.5 -226.5t47.5 -316.5q0 -135 -31 -265t-107.5 -231.5t-206 -163t-325.5 -61.5h-518zM358 168h342q113 0 197 39t140.5 110.5t85 174t28.5 231.5q0 117 -25.5 218t-82 176t-143.5 117t-210 42h-332v-1108z" />
<glyph unicode="E" horiz-adv-x="1236" d="M162 0v1446h995v-170h-811v-447h705v-167h-705v-494h836v-168h-1020z" />
<glyph unicode="F" horiz-adv-x="1110" d="M160 0v1446h927v-172h-735v-426h684v-168h-684v-680h-192z" />
<glyph unicode="G" horiz-adv-x="1662" d="M102 705q0 184 57.5 328.5t158 243.5t236.5 152.5t294 53.5q86 0 181 -19.5t185.5 -66.5t169 -129t134.5 -205l-201 -51q-47 147 -169 229t-294 82q-139 0 -241.5 -51t-168 -135t-97.5 -191.5t-32 -218.5q0 -156 45.5 -268.5t119 -185t169.5 -107.5t201 -35 q100 0 190 29.5t159 88t110 141.5t41 192v20h-504v162h672v-764h-168v203q-20 -35 -63.5 -77t-109 -78t-154.5 -60.5t-202 -24.5q-162 0 -294 54.5t-226 152.5t-146.5 234.5t-52.5 300.5z" />
<glyph unicode="H" horiz-adv-x="1492" d="M162 0v1446h190v-615h787v615h194v-1446h-194v662h-787v-662h-190z" />
<glyph unicode="I" horiz-adv-x="468" d="M137 0v1446h195v-1446h-195z" />
<glyph unicode="J" horiz-adv-x="768" d="M18 -16v211l25 -13q41 -20 83 -24t83 -4q43 0 92 17t78 58q25 37 29 91.5t4 146.5v979h196v-1063q0 -86 -10 -155.5t-68 -137.5q-41 -47 -88 -72.5t-91 -38t-79.5 -14.5t-56.5 -2q-35 0 -80 3t-117 18z" />
<glyph unicode="K" horiz-adv-x="1280" d="M137 0v1446h193v-707l686 707h237l-585 -598l610 -848h-236l-507 713l-205 -209v-504h-193z" />
<glyph unicode="L" horiz-adv-x="1067" d="M139 0v1446h193v-1274h700v-172h-893z" />
<glyph unicode="M" horiz-adv-x="1662" d="M139 0v1446h250l447 -1186l442 1186h250v-1446h-189q0 6 1 62.5t3.5 142.5t3.5 194.5t1 221.5q6 262 14 591l-453 -1212h-149l-453 1194q4 -324 10 -582q2 -111 3.5 -217t3.5 -191t3 -140.5t1 -63.5h-189z" />
<glyph unicode="N" horiz-adv-x="1449" d="M160 0v1446h182l782 -1159q-2 313 -4 563q0 106 -1 209.5t-2 186.5t-1 137.5v62.5h174v-1446h-174l-792 1176q4 -322 8 -578q2 -109 3 -214t3 -188t3 -136.5t1 -59.5h-182z" />
<glyph unicode="O" horiz-adv-x="1662" d="M104 725q0 199 61.5 342t164 235.5t233.5 136.5t271 44q166 0 300 -55.5t229 -154.5t146.5 -236.5t51.5 -303.5q0 -131 -39 -268t-125 -249t-226.5 -182.5t-343.5 -70.5q-141 0 -271 46t-230.5 140.5t-161 237.5t-60.5 338zM313 721q0 -139 36 -251t103.5 -190.5 t165 -121.5t220.5 -43q106 0 200.5 36.5t164 112.5t109.5 193.5t40 277.5q0 106 -27 213t-87 191t-159.5 136t-244.5 52q-143 0 -242.5 -52t-161 -137t-89.5 -193.5t-28 -223.5z" />
<glyph unicode="P" horiz-adv-x="1280" d="M156 0v1446h686q104 0 183 -32t130 -87t76.5 -129t25.5 -160q0 -76 -21.5 -151.5t-71.5 -137t-131 -99.5t-197 -38h-494v-612h-186zM342 784h465q117 0 188.5 62.5t71.5 195.5q0 127 -73.5 182.5t-184.5 55.5h-467v-496z" />
<glyph unicode="Q" horiz-adv-x="1662" d="M96 723q0 141 43 277.5t134.5 244t230.5 173t332 65.5q158 0 291 -51.5t229 -149.5t150.5 -240.5t54.5 -324.5q0 -133 -31 -237.5t-103 -217.5l224 -192l-123 -144l-230 195q-113 -84 -222 -121t-251 -37q-152 0 -284.5 49t-231 145.5t-156 239t-57.5 326.5zM307 727 q0 -106 27.5 -215t89 -196t163 -142t249.5 -55q141 0 239.5 53t160.5 139t90 192.5t28 215.5q0 119 -31 230.5t-95.5 196.5t-163.5 136t-235 51q-139 0 -237 -53t-161.5 -138t-93.5 -193.5t-30 -221.5z" />
<glyph unicode="R" horiz-adv-x="1366" d="M160 0v1446h651q104 0 190 -24.5t147.5 -77t96.5 -132t35 -188.5q0 -66 -16.5 -130.5t-55.5 -118.5t-104.5 -93t-163.5 -55l406 -627h-230l-395 614h-373v-614h-188zM348 776h426q61 0 118.5 11.5t101.5 39t70 75.5t26 122q0 123 -75 192.5t-214 69.5h-453v-510z" />
<glyph unicode="S" horiz-adv-x="1366" d="M76 463l207 26q0 -14 3 -47.5t16 -74.5t39 -86t72 -82t115.5 -60.5t169.5 -23.5q45 0 107.5 11t119 43t95.5 88t39 146q0 61 -21.5 101.5t-58.5 68t-87 43t-108 27.5l-131 27q-123 25 -217 58.5t-158.5 81.5t-98.5 114.5t-34 156.5q0 86 36 158t102 125q51 43 106 66.5 t106.5 36t93.5 14.5t68 2q109 0 210.5 -20.5t189.5 -88.5q47 -37 78.5 -74.5t52 -78.5t32 -86t21.5 -97l-194 -12q0 31 -12.5 83t-51.5 101.5t-112.5 86t-196.5 36.5q-51 0 -109.5 -10t-107.5 -36.5t-81 -69.5t-32 -111q0 -53 22.5 -89t60.5 -62.5t91 -44t115 -31.5l264 -64 q25 -6 86 -24.5t123.5 -62.5t111 -118.5t48.5 -193.5q0 -23 -3 -55.5t-15.5 -72.5t-36 -84t-66.5 -85q-31 -29 -71 -57.5t-95 -50t-127 -35t-164 -13.5q-18 0 -60 2t-97.5 11.5t-118 30t-119.5 56.5q-72 47 -114 106.5t-64.5 117t-29.5 105.5t-9 71z" />
<glyph unicode="T" horiz-adv-x="1110" d="M23 1278v168h1060v-168h-434v-1278h-192v1278h-434z" />
<glyph unicode="U" horiz-adv-x="1409" d="M156 457v989h192v-957q0 -74 18.5 -139t59.5 -115.5t106.5 -79t161.5 -28.5q102 0 172 31.5t112 86t60.5 124t18.5 147.5v930h194v-969q0 -98 -32.5 -190t-102 -165t-175 -116t-249.5 -43q-135 0 -235.5 39t-168 106.5t-100 156.5t-32.5 192z" />
<glyph unicode="V" horiz-adv-x="1236" d="M23 1446h204l383 -1208l398 1208h204l-510 -1446h-190z" />
<glyph unicode="W" horiz-adv-x="2091" d="M37 1446h203l342 -1198l366 1198h189l381 -1198l337 1198h199l-442 -1446h-189l-381 1198l-368 -1198h-193z" />
<glyph unicode="X" horiz-adv-x="1280" d="M43 0l481 758l-454 688h229l338 -520l324 520h227l-443 -688l494 -758h-227l-375 588l-371 -588h-223z" />
<glyph unicode="Y" horiz-adv-x="1280" d="M29 1446h227l381 -612l385 612h229l-520 -784v-662h-194v662z" />
<glyph unicode="Z" horiz-adv-x="1236" d="M37 0v188l893 1082h-821v176h1040v-180l-889 -1092h909v-174h-1132z" />
<glyph unicode="[" horiz-adv-x="567" d="M139 -295v1890h377v-120h-213v-1649h213v-121h-377z" />
<glyph unicode="\" horiz-adv-x="681" d="M27 1438h157l473 -1438h-153z" />
<glyph unicode="]" horiz-adv-x="565" d="M47 -172h213v1649h-213v118h377v-1888h-377v121z" />
<glyph unicode="^" d="M231 588l418 858h187l415 -858h-186l-320 694l-321 -694h-193z" />
<glyph unicode="_" horiz-adv-x="1024" d="M-20 -285h1064v-153h-1064v153z" />
<glyph unicode="`" horiz-adv-x="555" d="M143 1362h183l86 -295h-99z" />
<glyph unicode="a" horiz-adv-x="1024" d="M66 250q0 16 3 41.5t14 53.5t31.5 57.5t55.5 56.5q37 27 85 46t101.5 32.5t105.5 19.5t99 10l148 11v32q0 33 -4.5 78t-23.5 86t-63.5 68.5t-123.5 27.5q-102 0 -155.5 -48t-53.5 -140v-14l-170 10q0 18 10 69.5t47 106.5t110.5 98t202.5 43q45 0 114 -11t128 -46 q51 -29 81 -63.5t44 -76.5t17 -94.5t3 -115.5v-340q0 -43 10.5 -78t63.5 -35q16 0 25.5 2t23.5 6v-137q-37 -12 -60.5 -15t-43.5 -3q-6 0 -41 3t-62 21q-29 23 -46 60t-19 59q-16 -18 -44 -45t-68 -52.5t-94 -43t-124 -17.5q-72 0 -132 19.5t-103 56.5t-67.5 88t-24.5 113z M246 254q0 -53 42 -98t140 -45q33 0 81 9t93 39.5t77 87t32 148.5v76q-29 -4 -76 -11t-97.5 -16.5t-97.5 -19.5t-75 -23q-12 -4 -32 -14t-39.5 -28.5t-33.5 -44t-14 -60.5z" />
<glyph unicode="b" horiz-adv-x="1150" d="M133 0v1446h164v-615q57 86 145 125t187 39q94 0 175 -34.5t140.5 -100t94 -161t34.5 -216.5q0 -106 -27.5 -200.5t-83 -164t-139.5 -109.5t-196 -40q-70 0 -124 16.5t-94 40t-68 50t-44 49.5v-125h-164zM293 477q0 -61 15.5 -126.5t51 -119t94 -88t146.5 -34.5 q47 0 100.5 17t97.5 61t72.5 119t28.5 192q0 86 -24.5 151.5t-65.5 108.5t-95.5 65.5t-113.5 22.5q-49 0 -103.5 -17.5t-99.5 -59.5t-74.5 -112.5t-29.5 -179.5z" />
<glyph unicode="c" horiz-adv-x="1067" d="M80 475q0 109 29.5 203t88 164.5t146.5 111.5t205 41q109 0 188.5 -30.5t133 -78.5t83 -105.5t39.5 -108.5l-180 -17q-18 106 -86 164t-176 58q-55 0 -107.5 -19.5t-93.5 -66t-65.5 -121t-24.5 -185.5q0 -172 76 -280.5t225 -108.5q70 0 119 20.5t81 56.5t50 85t25 107 l176 -17q-20 -104 -62.5 -177t-102 -118t-134 -64.5t-156.5 -19.5q-115 0 -203 38t-149.5 104.5t-93 160t-31.5 203.5z" />
<glyph unicode="d" horiz-adv-x="1150" d="M80 485q0 141 41 238.5t105.5 158t143.5 87t152 26.5q66 0 121 -16t98 -41t72 -52.5t41 -47.5v608h164v-1446h-164v123q-18 -23 -45 -49.5t-67 -49t-93 -39t-125 -16.5q-106 0 -189 39t-139.5 107.5t-86 163t-29.5 206.5zM256 477q0 -63 14.5 -127.5t49 -117t92 -85 t145.5 -32.5q53 0 107.5 18.5t97.5 61.5t69.5 116.5t26.5 184.5q0 74 -20.5 138t-59.5 111.5t-94 74t-123 26.5q-84 0 -141.5 -32t-94 -83t-53 -117.5t-16.5 -136.5z" />
<glyph unicode="e" horiz-adv-x="1067" d="M80 492q0 137 45 233t113.5 155.5t150.5 87t158 27.5q80 0 158.5 -27.5t141 -89t102.5 -159.5t40 -240v-26h-733v-13q0 -55 16.5 -116.5t53 -112.5t97 -85t146.5 -34q63 0 108.5 22.5t75 56.5t46 74t24.5 72l166 -22q-8 -25 -31.5 -79t-72.5 -109.5t-130 -96.5t-202 -41 q-90 0 -175 28t-150.5 90.5t-106.5 161.5t-41 243zM260 571h551q0 59 -20.5 113.5t-56.5 95.5t-87 64.5t-112 23.5q-66 0 -115 -24.5t-83 -66.5t-52.5 -95t-24.5 -111z" />
<glyph unicode="f" horiz-adv-x="555" d="M23 829v136h159v84v85.5t3 66.5t7.5 54.5t14.5 47.5q18 49 52 75.5t68.5 40t64.5 15.5t44 2q16 0 47 -2t72 -11v-129q-4 2 -33.5 6.5t-56.5 4.5q-63 0 -93 -37t-30 -119v-184h182v-136h-182v-829h-160v829h-159z" />
<glyph unicode="g" horiz-adv-x="1150" d="M84 477q0 84 21.5 176t72.5 168t138 125t216 49q176 0 316 -161v131h170v-983q0 -133 -39 -220.5t-101.5 -138.5t-143.5 -71.5t-167 -20.5q-84 0 -159.5 21.5t-135 65.5t-97.5 111.5t-46 159.5h184q0 -115 75 -170t192 -55q154 0 211 77t57 214v186q-41 -57 -85 -91 t-86 -52t-80 -23.5t-67 -5.5q-92 0 -173 34t-142 98.5t-96 159.5t-35 216zM252 481q0 -78 18.5 -144.5t55 -115.5t94 -76.5t137.5 -27.5t136.5 29.5t92 81t52 121t16.5 149.5q0 166 -85 258t-218 92q-61 0 -116.5 -23.5t-95.5 -69.5t-63.5 -115t-23.5 -159z" />
<glyph unicode="h" horiz-adv-x="1067" d="M135 0v1446h164v-580q41 45 83 71t80 39t71.5 16t58.5 3q111 0 178.5 -34.5t104 -89t50 -120t13.5 -126.5v-625h-166v565q0 41 -3 83t-15 77q-23 66 -76 96.5t-119 30.5q-16 0 -41.5 -4t-56.5 -16.5t-61.5 -36t-55.5 -64.5q-35 -59 -40 -123.5t-5 -128.5v-479h-164z" />
<glyph unicode="i" horiz-adv-x="425" d="M141 0v965h158v-965h-158zM141 1257v189h158v-189h-158z" />
<glyph unicode="j" horiz-adv-x="425" d="M-47 -315q29 -4 43 -5.5t31 -1.5q8 0 29.5 2.5t43.5 18.5q25 16 29 47t4 86v1133h160v-1178q0 -53 -6 -103.5t-45 -91.5q-41 -43 -89.5 -52t-76.5 -9q-31 0 -61.5 2t-61.5 6v146zM133 1255v191h160v-191h-160z" />
<glyph unicode="k" horiz-adv-x="937" d="M133 0v1446h166v-891l385 410h201l-359 -381l441 -584h-205l-346 463l-117 -123v-340h-166z" />
<glyph unicode="l" horiz-adv-x="425" d="M137 0v1446h156v-1446h-156z" />
<glyph unicode="m" horiz-adv-x="1579" d="M131 0v965h154v-131q59 72 128.5 116.5t161.5 44.5q12 0 35 -3t50.5 -12t58.5 -26.5t57 -48.5q18 -20 31.5 -42.5t28.5 -45.5q20 20 51 50t70.5 58.5t88 49t109.5 20.5q45 0 82 -12t65.5 -29.5t47 -35t28.5 -29.5q47 -55 56.5 -119.5t9.5 -132.5v-637h-162v643 q0 63 -18.5 102t-46 60.5t-57.5 29t-54 7.5q-35 0 -68.5 -12.5t-66.5 -34t-57.5 -50t-34.5 -63.5q-8 -23 -10.5 -54.5t-2.5 -84.5v-543h-159v629q0 72 -20.5 113.5t-48.5 63t-58.5 28t-51.5 6.5q-31 0 -66.5 -10.5t-67.5 -29t-57.5 -45t-37.5 -59.5q-10 -23 -12 -49t-2 -74 v-573h-154z" />
<glyph unicode="n" horiz-adv-x="1067" d="M131 0v965h164v-142q14 27 40.5 57.5t63.5 56.5t87.5 42t111.5 16q16 0 49 -4t72 -17t80 -40t73 -72q41 -59 50.5 -121.5t9.5 -130.5v-610h-162v633q0 55 -18.5 95t-49 65.5t-69.5 37t-82 11.5q-51 0 -97 -18.5t-82 -52.5t-56.5 -85t-20.5 -115v-571h-164z" />
<glyph unicode="o" horiz-adv-x="1110" d="M82 483q0 57 17.5 144.5t69.5 169.5t147.5 140t252.5 58q84 0 167 -29.5t147.5 -92t104.5 -157.5t40 -224t-38 -227.5t-102.5 -164t-150.5 -98.5t-182 -33q-102 0 -188 34t-149.5 98.5t-99.5 159.5t-36 222zM260 471q0 -43 9.5 -105.5t40 -122t89 -101.5t154.5 -42 q147 0 223 107.5t76 296.5q0 61 -13.5 125.5t-46 117t-88 85t-137.5 32.5q-115 0 -177 -52t-91 -119.5t-34 -132t-5 -89.5z" />
<glyph unicode="p" horiz-adv-x="1150" d="M133 -459v1424h160v-138q20 25 53 54.5t76 55.5t97 42t118 16q74 0 151.5 -29.5t140 -93t102.5 -161t40 -232.5q0 -84 -22.5 -173t-74.5 -164.5t-139 -124t-217 -48.5q-92 0 -182 35t-143 109v-572h-160zM293 463q0 -164 81 -257t222 -93q154 0 230.5 101t76.5 271 q0 98 -26.5 166t-69.5 110t-96.5 61.5t-104.5 19.5q-141 0 -227 -98.5t-86 -280.5z" />
<glyph unicode="q" horiz-adv-x="1150" d="M82 465q0 147 40 248.5t103.5 164t142 90t154.5 27.5q23 0 63 -4t86 -21.5t94 -52t87 -96.5v144h166v-1426h-166v576q-66 -82 -153 -114t-179 -32q-90 0 -170 30t-139 91.5t-94 154.5t-35 220zM260 469q0 -102 25.5 -172t66.5 -113t95.5 -62.5t113.5 -19.5q20 0 70.5 7.5 t101.5 41t91 103.5t40 197q0 51 -11 118.5t-45 128t-93.5 102.5t-153.5 42q-90 0 -147.5 -31t-92 -83t-48 -118.5t-13.5 -140.5z" />
<glyph unicode="r" horiz-adv-x="641" d="M133 0v965h164v-177q35 68 90 111q29 23 87 50.5t153 27.5v-176q-31 6 -64 6q-88 0 -157.5 -46t-94.5 -136q-10 -37 -12 -73t-2 -106v-446h-164z" />
<glyph unicode="s" horiz-adv-x="980" d="M63 311l187 27q0 -47 9 -89t44 -81q43 -47 100.5 -60.5t116.5 -13.5q31 0 69 6t72.5 23.5t58 49.5t23.5 83q0 43 -19 70.5t-48 44t-65 24.5t-68 15l-94 18q-98 18 -165 46t-107 62.5t-56.5 77.5t-16.5 95q0 80 34 134t88.5 88t121 49t131.5 15q76 0 135.5 -16t103.5 -42 t73.5 -55.5t48.5 -56.5q29 -45 38 -85t13 -62l-176 -21q-2 35 -4 54.5t-11 36.5q-10 20 -29.5 41.5t-49 40t-71.5 29.5t-93 11q-49 0 -86 -13t-59.5 -33.5t-34 -46t-11.5 -48.5q0 -63 61.5 -94t172.5 -57l94 -23q68 -16 126 -36.5t102 -53.5t68.5 -79t24.5 -112 q0 -70 -30.5 -126t-85 -96t-128 -61.5t-159.5 -21.5q-117 0 -198 27t-133 74t-79.5 108.5t-38.5 132.5z" />
<glyph unicode="t" horiz-adv-x="598" d="M33 829v136h155v305h168v-305h174v-136h-174v-620q0 -53 16.5 -74.5t55.5 -21.5q14 0 41 5t61 17v-135q-10 -2 -59 -9t-96 -7q-59 0 -96 11t-57.5 33.5t-27 55.5t-6.5 74v671h-155z" />
<glyph unicode="u" horiz-adv-x="1067" d="M133 344v621h162v-549q0 -78 3 -119t19 -76q16 -31 57.5 -61.5t119.5 -30.5q14 0 41.5 3t60.5 14.5t66.5 33t60.5 60.5q35 53 41 112.5t6 118.5v494h160v-965h-162v147q-53 -80 -142 -126t-186 -46q-12 0 -43.5 3.5t-70.5 15.5t-78 37.5t-66 70.5q-35 57 -42 119t-7 123z " />
<glyph unicode="v" horiz-adv-x="894" d="M25 965h170l256 -740l254 740h167l-348 -965h-147z" />
<glyph unicode="w" horiz-adv-x="1492" d="M23 965h176l241 -717l238 717h143l228 -717l251 717h173l-355 -965h-143l-232 719l-235 -719h-150z" />
<glyph unicode="x" horiz-adv-x="811" d="M18 0l299 489l-284 476h188l193 -332l194 332h185l-291 -476l291 -489h-185l-205 344l-200 -344h-185z" />
<glyph unicode="y" horiz-adv-x="894" d="M18 -309q18 -6 44 -11.5t65 -5.5q37 0 62.5 8.5t47 31t40 61.5t38.5 100l41 119l-327 971h174l241 -766l256 766h170l-405 -1141q-29 -82 -55.5 -139.5t-60.5 -93t-78 -52t-107 -16.5q-25 0 -60.5 3t-85.5 17v148z" />
<glyph unicode="z" horiz-adv-x="854" d="M27 0v135l555 688h-502v142h704v-131l-561 -699h574v-135h-770z" />
<glyph unicode="{" horiz-adv-x="575" d="M35 590v123q51 4 85 13t53.5 32.5t27.5 64.5t8 107v393q0 70 13.5 122t46 87t87 53.5t133.5 18.5h60v-119h-33q-51 0 -79.5 -12.5t-42 -37t-16.5 -61.5t-3 -84v-364q0 -63 -7.5 -107.5t-26.5 -75t-52 -53t-82 -41.5q47 -14 78.5 -34.5t52 -52.5t29 -78t8.5 -109v-402 q0 -90 30.5 -123.5t122.5 -33.5h21v-119h-82q-55 0 -102.5 11t-82 42t-54 86t-19.5 141v394q0 68 -7 108.5t-26.5 63t-53.5 33t-87 14.5z" />
<glyph unicode="|" horiz-adv-x="483" d="M158 -293v1888h164v-1888h-164z" />
<glyph unicode="}" horiz-adv-x="575" d="M25 -184h38q47 0 75 13t41.5 37.5t17.5 61.5t4 84v361q0 63 7 107t25.5 76t51 54.5t82.5 40.5q-90 23 -128 84.5t-38 177.5v408q0 90 -30 126t-122 36h-24v119h90q51 0 97 -12.5t80 -44.5t54.5 -87t20.5 -141v-412q0 -53 7 -88t25.5 -57.5t52 -33.5t87.5 -15v-123 q-49 -6 -83 -15.5t-53.5 -31t-27.5 -57t-8 -93.5v-403q0 -70 -11.5 -124t-42 -91t-83 -56.5t-132.5 -19.5h-73v119z" />
<glyph unicode="~" d="M152 588q76 109 150.5 158t172.5 49q27 0 52.5 -4.5t56 -13.5t69.5 -25.5t95 -40.5l92 -41q70 -31 100.5 -41.5t60.5 -10.5q55 0 111.5 32t128.5 118l92 -123q-92 -109 -169 -157t-154 -48q-29 0 -53.5 3t-54.5 12.5t-66.5 24t-85.5 38.5l-72 35q-72 35 -120 49t-93 14 q-31 0 -54.5 -7t-47 -22.5t-48 -43t-59.5 -66.5l-12 -14z" />
<glyph unicode="&#xa1;" horiz-adv-x="555" d="M158 0v590l49 555h63l49 -578v-567h-161zM158 1262v184h161v-184h-161z" />
<glyph unicode="&#xa2;" horiz-adv-x="1024" d="M57 485q0 90 26 174t77 152t130 114t185 60v197h121v-195q39 -6 90 -18.5t103.5 -46t100.5 -95t81 -163.5l-185 -17q-6 57 -27.5 94t-50 60.5t-59.5 35t-53 17.5v-745q37 6 73 21t66.5 45t51 77t24.5 117l180 -17q-25 -115 -73 -187.5t-104 -113.5t-114.5 -57.5 t-103.5 -18.5v-211h-123v211q-102 10 -179 55.5t-130 115t-80 157.5t-27 182zM231 485q0 -55 10.5 -114.5t37 -112.5t73.5 -93t121 -54v747q-49 -14 -93 -42t-77 -73t-52.5 -108.5t-19.5 -149.5z" />
<glyph unicode="&#xa3;" horiz-adv-x="1366" d="M74 575v134h268q-37 59 -61.5 107t-38 89t-19.5 77t-6 71q0 104 47 184t124 135t172 83t194 28q139 0 235 -46t156.5 -116t87.5 -150.5t27 -148.5l-216 -21v13q0 6 1.5 12t1.5 14q0 37 -12.5 87.5t-46.5 96.5t-94 78.5t-155 32.5q-63 0 -117.5 -18.5t-95.5 -52 t-64.5 -82.5t-23.5 -111q0 -55 14.5 -102t37 -89t50 -84t56.5 -87h428v-134h-354q18 -55 30.5 -93t12.5 -97q0 -20 -4 -61t-19 -95q14 -8 40 -22t58.5 -27.5t72.5 -24t83 -10.5q98 0 149.5 63.5t53.5 156.5l190 -13q-6 -59 -25.5 -124.5t-59.5 -122t-102.5 -93.5t-156.5 -37 q-61 0 -114.5 11.5t-100.5 28t-88 37t-78 36.5q-59 -53 -130.5 -86t-157.5 -33q-39 0 -79 11.5t-74 34t-55.5 58.5t-21.5 85q0 78 60.5 128t162.5 50q27 0 82.5 -7t122.5 -30q4 16 4 35q0 25 -7 56.5t-19.5 64t-28.5 64.5t-35 56h-362zM256 143q0 -16 15.5 -32.5t50.5 -16.5 q23 0 61.5 12.5t81.5 51.5q-35 14 -78 24.5t-65 10.5q-20 0 -43 -10.5t-23 -39.5z" />
<glyph unicode="&#xa5;" horiz-adv-x="1280" d="M29 1386h229l379 -587l387 587h227l-350 -505h229v-148h-325l-78 -106h403v-148h-399v-479h-192v479h-398v148h398l-66 104h-332v146h232z" />
<glyph unicode="&#xa7;" horiz-adv-x="1280" d="M76 760q0 98 55 182t139 131q-41 41 -63.5 82t-22.5 100q0 80 36 140.5t94.5 101.5t133 61.5t150.5 20.5q137 0 263 -45t245 -104l-82 -146q-100 57 -199.5 101.5t-220.5 44.5q-31 0 -71.5 -7.5t-76.5 -24t-60.5 -44t-24.5 -68.5q0 -37 16 -61.5t42 -42t55.5 -29.5 t58.5 -23q90 -33 178 -66.5t174 -74.5q61 -29 117.5 -63.5t99.5 -79.5t68.5 -103.5t25.5 -134.5q0 -100 -53 -186t-139 -135q45 -41 73.5 -92.5t28.5 -112.5q0 -51 -24.5 -109.5t-75.5 -107.5t-131 -82t-189 -33q-68 0 -137.5 14.5t-138 38t-134 53t-124.5 60.5l82 152 q96 -68 219 -112t239 -44q33 0 71 7t68.5 24.5t51 47t20.5 72.5q0 37 -17 63t-45 44t-61.5 31.5t-64.5 27.5q-61 27 -143 62t-165 77t-156 89t-114 98q-35 43 -53 96.5t-18 108.5zM262 780q0 -47 21.5 -82.5t56.5 -66.5q37 -31 104.5 -68t143.5 -71.5t147.5 -65.5t114.5 -51 q33 12 64.5 33.5t57 49t41 61.5t15.5 71q0 70 -49 123t-121 94t-153 71.5t-142 55.5l-131 53q-31 -10 -61.5 -31.5t-54 -49t-39 -60.5t-15.5 -66z" />
<glyph unicode="&#xa8;" horiz-adv-x="555" d="M-14 1108v211h178v-211h-178zM387 1108v211h182v-211h-182z" />
<glyph unicode="&#xa9;" horiz-adv-x="1720" d="M131 723q0 152 57.5 285t155.5 231t231.5 155.5t286.5 57.5q150 0 282 -56.5t231.5 -153.5t156.5 -227t57 -280q0 -158 -55 -294t-153.5 -235.5t-232.5 -155.5t-290 -56q-152 0 -284 57.5t-230 155.5t-155.5 231t-57.5 285zM205 721q0 -137 51 -257t139 -209t208 -140.5 t257 -51.5q133 0 253 51.5t209 139.5t141.5 206t52.5 251q0 143 -50.5 266t-138.5 213t-208 141t-259 51q-135 0 -255 -52t-209 -141t-140 -210t-51 -258zM438 707q0 109 33 198.5t92.5 155t142 102.5t181.5 37q147 0 236 -67.5t139 -214.5l-138 -39q-43 106 -95 147 t-144 41q-135 0 -215 -95t-80 -257q0 -154 74.5 -244t203.5 -90q104 0 166 51t96 162l140 -29q-47 -166 -146.5 -243.5t-257.5 -77.5q-96 0 -175 33.5t-135 94t-87 145.5t-31 190z" />
<glyph unicode="&#xaa;" horiz-adv-x="641" d="M61 1020q0 59 28 96t77 58.5t116.5 32t149.5 14.5v22q0 29 -3 54.5t-15.5 46t-35 31.5t-61.5 11q-12 0 -31.5 -2t-38 -12t-32.5 -32.5t-14 -61.5v-12l-113 8q14 111 74.5 153.5t152.5 42.5q43 0 83 -10t70 -34.5t48.5 -63.5t18.5 -94v-224q0 -10 1 -24t5 -26.5t13 -21.5 t26 -9q12 0 18 3t12 7v-94q-8 -4 -24.5 -8.5t-34.5 -4.5q-51 0 -75.5 23.5t-37.5 52.5q-33 -35 -74.5 -59.5t-113.5 -24.5q-35 0 -69 9.5t-60.5 28.5t-43 50t-16.5 74zM180 1024q0 -45 33 -61.5t68 -16.5q23 0 49 7.5t48.5 25.5t38 51t15.5 82v35l-43 -6q-117 -16 -163 -41 t-46 -76z" />
<glyph unicode="&#xab;" horiz-adv-x="811" d="M86 512v174l276 240v-187l-159 -139l159 -137v-182zM410 520v170l274 238v-183l-164 -145l164 -135v-176z" />
<glyph unicode="&#xac;" d="M143 535v163h1160v-686h-183v523h-977z" />
<glyph unicode="&#xae;" horiz-adv-x="1720" d="M131 723q0 152 57.5 285t155.5 231t231.5 155.5t286.5 57.5q150 0 282 -56.5t231.5 -153.5t156.5 -227t57 -280q0 -158 -55 -294t-153.5 -235.5t-232.5 -155.5t-290 -56q-152 0 -284 57.5t-230 155.5t-155.5 231t-57.5 285zM207 721q0 -137 51 -257t139 -209t207 -140.5 t256 -51.5q133 0 253 51.5t209 139.5t141.5 206t52.5 251q0 143 -50.5 266t-138.5 213t-208 141t-259 51q-135 0 -255 -52t-208 -141t-139 -210t-51 -258zM575 262v922h267q170 0 247.5 -62.5t77.5 -201.5q0 -106 -47 -168t-149 -90l209 -400h-158l-195 387h-110v-387h-142z M719 774h117q98 0 143 34t45 110t-47 108.5t-156 32.5h-102v-285z" />
<glyph unicode="&#xb0;" horiz-adv-x="724" d="M33 1217q0 68 25.5 128t70.5 105t105.5 70.5t127.5 25.5q70 0 130.5 -25.5t104.5 -70.5t69.5 -104.5t25.5 -131.5q0 -68 -25.5 -128t-70.5 -104t-104.5 -70.5t-129.5 -26.5t-130 26.5t-104 71.5t-69.5 105.5t-25.5 128.5zM201 1221q0 -66 48 -114t113 -48q68 0 115 47 t47 117q0 66 -47 112.5t-115 46.5t-114.5 -47t-46.5 -114z" />
<glyph unicode="&#xb1;" d="M190 0v162h1100v-162h-1100zM190 727v160h461v444h180v-444h461v-160h-461v-448h-180v448h-461z" />
<glyph unicode="&#xb4;" horiz-adv-x="555" d="M147 1069l84 295h177l-177 -295h-84z" />
<glyph unicode="&#xb5;" horiz-adv-x="1155" d="M176 -442v1405h164v-484q0 -115 9 -175t36 -99q29 -41 76 -65.5t100 -24.5q66 0 119 36.5t82 102.5q10 25 17 48.5t11.5 53t5.5 69.5t1 95v443h164v-711q0 -82 13 -110.5t54 -28.5q14 0 24.5 2t32.5 12v-131q-31 -8 -49 -11t-39 -3q-84 0 -126 37.5t-54 125.5 q-47 -92 -105.5 -130t-152.5 -38q-74 0 -126 28t-97 93q2 -135 4 -248q0 -47 1 -95t2 -88t1 -69.5v-39.5h-168z" />
<glyph unicode="&#xb6;" horiz-adv-x="1314" d="M156 1042q0 182 111.5 293t324.5 111h483v-111h-67v-1677h-117v1677h-299v-1677h-117v1004q-147 16 -233 118.5t-86 261.5z" />
<glyph unicode="&#xb7;" horiz-adv-x="409" d="M100 467v254h209v-254h-209z" />
<glyph unicode="&#xb8;" horiz-adv-x="555" d="M139 -197l150 230l59 -15l-59 -106l49 -27q41 -23 59.5 -59.5t18.5 -65.5q0 -43 -21.5 -76.5t-56.5 -55t-80 -33t-92 -11.5h-10v47q6 -2 20 -2q35 0 60.5 20.5t25.5 55.5q0 25 -13 40t-31.5 26.5t-40 18.5t-38.5 13z" />
<glyph unicode="&#xba;" horiz-adv-x="681" d="M53 1149q0 86 26.5 146.5t68.5 98.5t94.5 55t101.5 17q70 0 124 -26.5t89 -69.5t53.5 -98.5t18.5 -116.5q0 -66 -19.5 -120t-56.5 -95t-91 -63.5t-122 -22.5t-121 23.5t-90 63.5t-56.5 94.5t-19.5 113.5zM170 1157q0 -31 7 -67.5t25.5 -69.5t52.5 -54.5t87 -21.5 q68 0 119 48t51 171q0 35 -9 73t-28.5 68.5t-52.5 50t-82 19.5q-68 0 -119 -50t-51 -167z" />
<glyph unicode="&#xbb;" horiz-adv-x="811" d="M127 274v185l164 143l-164 137v174l274 -231v-170zM446 279v184l162 141l-162 135v183l277 -232v-172z" />
<glyph unicode="&#xbf;" horiz-adv-x="1150" d="M76 430q0 92 30.5 164t84 122t124 78.5t150.5 32.5v312h162v-484h-64q-68 0 -125 -14t-100 -44t-67.5 -77t-24.5 -112q0 -66 25.5 -115t68.5 -83t98.5 -51.5t114.5 -17.5q84 0 137 30t84 76t43 99t12 103v32h179v-37q0 -90 -31 -173t-90.5 -145.5t-144.5 -100t-195 -37.5 q-92 0 -178 31.5t-150.5 89t-103.5 139.5t-39 182zM455 1247v199h182v-199h-182z" />
<glyph unicode="&#xf7;" d="M162 532v166h1159v-166h-1159zM651 168v225h183v-225h-183zM651 838v225h183v-225h-183z" />
<glyph unicode="&#x192;" horiz-adv-x="894" d="M-8 -444l31 120q35 -14 63 -14q31 0 50.5 11.5t30.5 28.5t17 39.5t260 1096.5h-147l31 127h147l70 270q10 41 24.5 82t39 72.5t65.5 52t106 20.5q39 0 71 -8t44 -12l-29 -123q-23 8 -45 9t-28 1q-55 0 -73 -39t-32 -96l-55 -229h174l-31 -127h-172l-266 -1108 q-16 -66 -41 -106t-54.5 -60.5t-62.5 -26.5t-65 -6q-47 0 -74 8t-49 17z" />
<glyph unicode="&#x2c6;" horiz-adv-x="555" d="M6 1071l193 309h137l213 -309h-154l-125 195l-120 -195h-144z" />
<glyph unicode="&#x2da;" horiz-adv-x="555" d="M84 1245q0 39 15.5 75t41 62.5t60.5 42t75 15.5q45 0 82 -17.5t61.5 -46t38 -63.5t13.5 -70q0 -41 -15.5 -75.5t-41 -60.5t-61.5 -41t-77 -15t-75.5 15t-61 42t-41 61.5t-14.5 75.5zM172 1247q0 -43 30.5 -74.5t73.5 -31.5q45 0 76 31.5t31 76.5q0 41 -30.5 72t-76.5 31 q-45 0 -74.5 -31t-29.5 -74z" />
<glyph unicode="&#x2dc;" horiz-adv-x="555" d="M-8 1104q4 31 13 66.5t27.5 66.5t49.5 50.5t78 19.5q33 0 66.5 -10.5t64.5 -23.5t59.5 -23.5t50.5 -10.5q20 0 31.5 7t18 17.5t8.5 20.5t2 16h102q-4 -33 -12 -68.5t-24.5 -66t-46 -50t-77.5 -19.5q-33 0 -66.5 11t-65 23.5t-61.5 23.5t-54 11q-18 0 -30.5 -8t-20 -18.5 t-10.5 -20.5t-3 -14h-100z" />
<glyph unicode="&#x3a9;" horiz-adv-x="1519" d="M100 0v164h324q-299 178 -299 614q0 158 46 288t130 222t202 142.5t261 50.5q145 0 261 -46t195.5 -134.5t122.5 -213t43 -282.5q0 -219 -80.5 -384t-234.5 -257h346v-164h-555v164q94 33 156.5 98.5t99.5 150.5t52.5 179t15.5 184q0 125 -30 226.5t-85 172t-133 108.5 t-174 38q-205 0 -319.5 -152.5t-114.5 -425.5q0 -92 15 -182t53 -169t100.5 -138t156.5 -90v-164h-555z" />
<glyph unicode="&#x3c0;" horiz-adv-x="1146" d="M90 823v142h959v-142h-111v-544q0 -43 4 -71t16.5 -43t36 -21.5t62.5 -6.5h22v-137h-69q-70 0 -115 14.5t-71.5 42t-38 68.5t-11.5 92v606h-412v-823h-161v823h-111z" />
<glyph unicode="&#x401;" horiz-adv-x="1236" d="M160 0v1446h995v-168h-803v-449h697v-167h-697v-494h828v-168h-1020zM360 1593v209h181v-209h-181zM762 1593v209h180v-209h-180z" />
<glyph unicode="&#x402;" horiz-adv-x="1536" d="M25 1278v168h1060v-168h-434v-487q84 45 176.5 64t159.5 19q143 0 236.5 -38.5t145.5 -102t72.5 -143.5t20.5 -160q0 -78 -20.5 -154.5t-74.5 -138t-149.5 -99.5t-242.5 -38h-55v156q98 0 163.5 21.5t105.5 58t56.5 87t16.5 107.5q0 143 -74 210t-201 67 q-74 0 -159 -17.5t-177 -71.5v-618h-192v1278h-434z" />
<glyph unicode="&#x403;" horiz-adv-x="1110" d="M160 0v1446h927v-168h-735v-1278h-192zM537 1579l98 254h203l-178 -254h-123z" />
<glyph unicode="&#x404;" horiz-adv-x="1564" d="M102 723q0 168 50.5 308t143.5 240.5t228 156t307 55.5q106 0 208 -18.5t190 -65.5t157.5 -129t112.5 -209l-194 -37q-31 98 -89.5 157.5t-125 92.5t-133 43t-117.5 10q-236 0 -368 -137t-157 -371h754v-168h-754q8 -102 41 -198.5t94.5 -170t154.5 -118.5t226 -45 q90 0 171 27.5t145.5 75.5t107.5 112.5t60 138.5l205 -24q-37 -129 -107 -220.5t-164 -151t-206.5 -87t-235.5 -27.5q-162 0 -292 55.5t-222 154.5t-141.5 239.5t-49.5 310.5z" />
<glyph unicode="&#x405;" horiz-adv-x="1366" d="M76 463l207 26q0 -14 3 -47.5t16 -74.5t39 -86t72 -82t115.5 -60.5t169.5 -23.5q45 0 107.5 11t119 43t95.5 88t39 146q0 61 -21.5 101.5t-58.5 68t-87 43t-108 27.5l-131 27q-123 25 -217 58.5t-158.5 81.5t-98.5 114.5t-34 156.5q0 86 36 158t102 125q51 43 106 66.5 t106.5 36t93.5 14.5t68 2q109 0 210.5 -20.5t189.5 -88.5q47 -37 78.5 -74.5t52 -78.5t32 -86t21.5 -97l-194 -12q0 31 -12.5 83t-51.5 101.5t-112.5 86t-196.5 36.5q-51 0 -109.5 -10t-107.5 -36.5t-81 -69.5t-32 -111q0 -53 22.5 -89t60.5 -62.5t91 -44t115 -31.5l264 -64 q25 -6 86 -24.5t123.5 -62.5t111 -118.5t48.5 -193.5q0 -23 -3 -55.5t-15.5 -72.5t-36 -84t-66.5 -85q-31 -29 -71 -57.5t-95 -50t-127 -35t-164 -13.5q-18 0 -60 2t-97.5 11.5t-118 30t-119.5 56.5q-72 47 -114 106.5t-64.5 117t-29.5 105.5t-9 71z" />
<glyph unicode="&#x406;" horiz-adv-x="512" d="M160 0v1446h192v-1446h-192z" />
<glyph unicode="&#x407;" horiz-adv-x="573" d="M53 1593v209h172v-209h-172zM190 0v1446h193v-1446h-193zM348 1593v209h172v-209h-172z" />
<glyph unicode="&#x408;" horiz-adv-x="768" d="M18 -16v211l25 -13q41 -20 83 -24t83 -4q43 0 92 17t78 58q29 37 33 91.5t4 146.5v979h192v-1063q0 -86 -10 -155.5t-68 -137.5q-41 -47 -88 -72.5t-91 -38t-79.5 -14.5t-56.5 -2q-35 0 -80 3t-117 18z" />
<glyph unicode="&#x409;" horiz-adv-x="2170" d="M20 0v168h21q53 4 94 18.5t69.5 57.5t48 125t31 222t15.5 349t4 506h893v-606h446q137 0 225.5 -36t139.5 -94.5t70.5 -132t19.5 -147.5q0 -78 -20.5 -154.5t-74.5 -138t-149.5 -99.5t-242.5 -38h-606v1278h-517q0 -281 -7 -484.5t-25.5 -344t-50 -226.5t-81 -134 t-119 -66.5t-163.5 -22.5h-21zM1196 168h406q84 0 141 19.5t91 53t48 81t14 100.5q0 129 -73.5 189.5t-200.5 60.5h-426v-504z" />
<glyph unicode="&#x40a;" horiz-adv-x="2252" d="M160 0v1446h192v-606h733v606h193v-606h446q137 0 225.5 -36t139.5 -94.5t70.5 -132t19.5 -147.5q0 -78 -20.5 -154.5t-74.5 -138t-149.5 -99.5t-242.5 -38h-607v672h-733v-672h-192zM1278 168h405q84 0 141.5 19.5t91.5 53t48 81t14 100.5q0 129 -73.5 189.5 t-200.5 60.5h-426v-504z" />
<glyph unicode="&#x40b;" horiz-adv-x="1556" d="M25 1278v168h1060v-168h-434v-455q98 29 179 41.5t151 12.5q135 0 224 -27t142.5 -74t76 -114.5t22.5 -149.5v-512h-193v418q0 92 -17 148.5t-52 88t-90.5 43t-130.5 11.5q-66 0 -149 -12.5t-163 -41.5v-655h-192v1278h-434z" />
<glyph unicode="&#x40c;" horiz-adv-x="1351" d="M160 0v1446h192v-598h342q88 8 139.5 37.5t81 76t45 104.5t31 121.5t37 129t66.5 129.5h213q-63 -70 -95 -139.5t-50.5 -136t-31 -127t-35 -111.5t-65.5 -93t-121 -69q86 -20 135.5 -62t76 -99.5t41 -129t31.5 -150.5t47 -163t87 -166h-221q-43 59 -62.5 131t-32 145.5 t-27.5 143t-48 125t-93.5 92.5t-164.5 43h-326v-680h-192zM598 1579l98 254h203l-178 -254h-123z" />
<glyph unicode="&#x40e;" horiz-adv-x="1277" d="M29 1446h217l418 -926l389 926h204l-426 -967q-68 -156 -121 -250t-111 -145t-132 -67.5t-186 -16.5h-62v168h62q66 0 109.5 7t74.5 23.5t51.5 46t38.5 72.5zM344 1798l149 21q8 -33 25.5 -54.5t42.5 -34t52.5 -17.5t54.5 -5t55 5t53 17.5t42 34t24 54.5l147 -21 q-16 -109 -106.5 -171t-214.5 -62q-61 0 -118 16t-100 47t-70.5 74t-35.5 96z" />
<glyph unicode="&#x40f;" horiz-adv-x="1449" d="M160 0v1446h192v-1278h750v1278h188v-1446h-477v-348h-176v348h-477z" />
<glyph unicode="&#x410;" horiz-adv-x="1323" d="M20 0l551 1446h201l526 -1446h-202l-158 442h-551l-162 -442h-205zM449 604h432l-211 604z" />
<glyph unicode="&#x411;" horiz-adv-x="1392" d="M160 0v1446h1040v-168h-848v-438h512q137 0 225.5 -36t139.5 -94.5t70.5 -132t19.5 -147.5q0 -78 -20.5 -154.5t-75 -138t-149.5 -99.5t-243 -38h-671zM352 168h471q84 0 141.5 19.5t91.5 53t48 81t14 100.5q0 129 -73.5 189.5t-200.5 60.5h-492v-504z" />
<glyph unicode="&#x412;" horiz-adv-x="1409" d="M160 0v1446h694q84 0 160 -23.5t132 -70.5t90 -117t34 -160q0 -111 -59.5 -197.5t-161.5 -115.5q43 -12 90 -37t85 -67t63.5 -105.5t25.5 -153.5q0 -121 -45 -198.5t-114 -121.5t-147.5 -61.5t-146.5 -17.5h-700zM352 168h459q53 0 106.5 7t96.5 31.5t70.5 73t27.5 132.5 q0 131 -83 195.5t-212 64.5h-465v-504zM352 840h418q49 0 101.5 7t96.5 30.5t72.5 68.5t28.5 121q0 45 -13.5 83t-43 66.5t-77.5 45t-116 16.5h-467v-438z" />
<glyph unicode="&#x413;" horiz-adv-x="1110" d="M160 0v1446h927v-168h-735v-1278h-192z" />
<glyph unicode="&#x414;" horiz-adv-x="1544" d="M25 168q55 2 113.5 50t106.5 151.5t77.5 269.5t29.5 405v402h942v-1278h185v-475h-176v307h-1102v-307h-176v475zM324 168h778v1110h-565v-234q0 -102 -6.5 -229t-28 -250t-63.5 -228.5t-115 -168.5z" />
<glyph unicode="&#x415;" horiz-adv-x="1236" d="M160 0v1446h995v-168h-803v-449h697v-167h-697v-494h828v-168h-1020z" />
<glyph unicode="&#x416;" horiz-adv-x="1843" d="M20 0q57 82 87 166t47.5 163t32 150.5t41 129t75.5 99.5t135 62q-74 27 -113.5 69t-62 93t-34 111.5t-29 127t-48 136t-90.5 139.5h213q43 -63 63.5 -129t35 -129.5t30 -121.5t43 -104.5t75.5 -76t132 -37.5h172v598h193v-598h172q84 8 132 37.5t75.5 76t43 104.5 t30 121.5t35 129t63.5 129.5h213q-59 -70 -90 -139.5t-48.5 -136t-28.5 -127t-33.5 -111.5t-62.5 -93t-114 -69q86 -20 135 -62t75.5 -99.5t41 -129t32 -150.5t47 -163t87.5 -166h-221q-43 59 -62.5 131t-32 145.5t-28 143t-48 125t-93 92.5t-164.5 43h-156v-680h-193v680 h-155q-104 -6 -165 -43t-93.5 -92.5t-48 -125t-27.5 -143t-31.5 -145.5t-62.5 -131h-222z" />
<glyph unicode="&#x417;" horiz-adv-x="1355" d="M70 440l192 33q0 -117 48 -186.5t116 -107.5t141.5 -49t122.5 -11q94 0 163 24.5t112 66.5t63.5 97t20.5 119q0 33 -8.5 75t-36 79.5t-81 64.5t-143.5 27h-309v168h250q92 0 151.5 17t92 49t45 76t12.5 95q0 127 -89 188.5t-237 61.5q-168 0 -263 -84t-109 -219l-187 37 q14 104 61.5 183t119 132.5t166 80t206.5 26.5q268 0 402.5 -104.5t134.5 -299.5q0 -131 -61.5 -203.5t-159.5 -113.5q117 -29 184 -118t67 -222q0 -139 -49 -228.5t-130 -140.5t-183 -70.5t-207 -19.5q-104 0 -208.5 20.5t-191.5 74t-146.5 145.5t-71.5 237z" />
<glyph unicode="&#x418;" horiz-adv-x="1490" d="M160 0v1446h192v-1028l787 893v135h192v-1446h-192v1057l-787 -893v-164h-192z" />
<glyph unicode="&#x419;" horiz-adv-x="1490" d="M160 0v1446h192v-1028l787 893v135h192v-1446h-192v1057l-787 -893v-164h-192zM424 1798l147 21q8 -33 25.5 -54.5t42.5 -34t52.5 -17.5t53.5 -5q27 0 55.5 5t53.5 17.5t42 34t24 54.5l147 -21q-16 -109 -106.5 -171t-215.5 -62t-215 62.5t-106 170.5z" />
<glyph unicode="&#x41a;" horiz-adv-x="1351" d="M160 0v1446h192v-598h342q88 8 139.5 37.5t81 76t45 104.5t31 121.5t37 129t66.5 129.5h213q-63 -70 -95 -139.5t-50.5 -136t-31 -127t-35 -111.5t-65.5 -93t-121 -69q86 -20 135.5 -62t76 -99.5t41 -129t31.5 -150.5t47 -163t87 -166h-221q-43 59 -62.5 131t-32 145.5 t-27.5 143t-48 125t-93.5 92.5t-164.5 43h-326v-680h-192z" />
<glyph unicode="&#x41b;" horiz-adv-x="1404" d="M20 0v168h21q53 4 94 18.5t69.5 57.5t48 125t31 222t15.5 349t4 506h942v-1446h-192v1278h-566q0 -281 -7 -484.5t-25.5 -344t-50 -226.5t-81 -134t-119 -66.5t-163.5 -22.5h-21z" />
<glyph unicode="&#x41c;" horiz-adv-x="1662" d="M139 0v1446h250l442 -1186l447 1186h250v-1446h-193q0 6 1 62.5t3 142.5t4.5 194.5t4.5 221.5q6 262 14 591l-457 -1212h-149l-449 1194q4 -324 10 -582q2 -111 3.5 -217t3.5 -191t3 -140.5t1 -63.5h-189z" />
<glyph unicode="&#x41d;" horiz-adv-x="1490" d="M160 0v1446h192v-615h787v615h192v-1446h-192v664h-787v-664h-192z" />
<glyph unicode="&#x41e;" horiz-adv-x="1662" d="M102 725q0 199 61.5 342t164 235.5t234.5 136.5t272 44q166 0 300 -55.5t229 -154.5t146.5 -236.5t51.5 -301.5q0 -133 -39 -269t-125 -249t-226.5 -183.5t-343.5 -70.5q-141 0 -272 46t-231.5 140.5t-161 237.5t-60.5 338zM311 723q0 -139 36 -251t104.5 -190.5 t166 -120.5t220.5 -42q106 0 200.5 37t164 111.5t109.5 191t40 276.5q0 106 -27 213t-87 191t-159.5 136t-244.5 52t-245 -52t-161 -137t-89 -193.5t-28 -221.5z" />
<glyph unicode="&#x41f;" horiz-adv-x="1454" d="M160 0v1446h1134v-1446h-192v1278h-750v-1278h-192z" />
<glyph unicode="&#x420;" horiz-adv-x="1280" d="M160 0v1446h682q104 0 183 -32t130 -87t76.5 -129t25.5 -160q0 -76 -21.5 -151.5t-71.5 -136t-131 -98.5t-197 -38h-484v-614h-192zM352 782h455q115 0 186.5 62.5t71.5 195.5q0 63 -19.5 108.5t-54.5 74t-81 42t-101 13.5h-457v-496z" />
<glyph unicode="&#x421;" horiz-adv-x="1564" d="M102 723q0 168 50.5 308t143.5 240.5t228 156t307 55.5q260 0 424 -117t236 -326l-195 -39q-18 61 -56 120t-95.5 105t-136 73.5t-179.5 27.5q-125 0 -221 -44t-162.5 -122t-100.5 -187.5t-34 -240.5q0 -158 40 -272.5t110.5 -191t165 -113.5t204.5 -37q84 0 163 25.5 t143.5 77.5t109.5 134t64 193l209 -25q-18 -88 -67.5 -186t-135.5 -181t-212 -138.5t-298 -55.5q-162 0 -292 55.5t-222 154.5t-141.5 239.5t-49.5 310.5z" />
<glyph unicode="&#x422;" horiz-adv-x="1110" d="M25 1278v168h1060v-168h-434v-1278h-192v1278h-434z" />
<glyph unicode="&#x423;" horiz-adv-x="1277" d="M29 1446h217l418 -926l389 926h204l-426 -967q-68 -156 -121 -250t-111 -145t-132 -67.5t-186 -16.5h-62v168h62q66 0 109.5 7t74.5 23.5t51.5 46t38.5 72.5z" />
<glyph unicode="&#x424;" horiz-adv-x="1626" d="M90 725q0 123 24.5 220t94.5 165t191.5 102.5t316.5 34.5v228h192v-228q195 0 317 -34.5t191.5 -100t94 -162t24.5 -221.5t-24.5 -221t-94 -160.5t-191.5 -97.5t-317 -33v-237h-192v237q-195 0 -316.5 33t-191.5 97.5t-94.5 159.5t-24.5 218zM291 719q0 -94 18.5 -159.5 t66.5 -107.5t131 -60.5t210 -18.5v719q-127 0 -210 -21.5t-131 -68t-66.5 -117t-18.5 -166.5zM909 373q123 0 205 16.5t131 57t69.5 109.5t20.5 173q0 96 -17.5 165t-64.5 113t-130 64.5t-214 20.5v-719z" />
<glyph unicode="&#x425;" horiz-adv-x="1280" d="M43 0l481 758l-454 688h229l338 -520l324 520h227l-443 -688l494 -758h-227l-375 588l-371 -588h-223z" />
<glyph unicode="&#x426;" horiz-adv-x="1540" d="M160 0v1446h192v-1278h746v1278h192v-1278h185v-475h-177v307h-1138z" />
<glyph unicode="&#x427;" horiz-adv-x="1351" d="M111 913v533h192v-438q0 -92 20.5 -148.5t62.5 -88.5t106.5 -43t154.5 -11q150 0 352 37v692h193v-1446h-193v586q-111 -20 -201.5 -28.5t-168.5 -8.5q-150 0 -249 26.5t-159.5 73.5t-85 114.5t-24.5 149.5z" />
<glyph unicode="&#x428;" horiz-adv-x="1970" d="M160 0v1446h192v-1278h537v1278h192v-1278h537v1278h192v-1446h-1650z" />
<glyph unicode="&#x429;" horiz-adv-x="2060" d="M160 0v1446h192v-1278h537v1278h192v-1278h537v1278h192v-1278h185v-475h-176v307h-1659z" />
<glyph unicode="&#x42a;" horiz-adv-x="1613" d="M20 1278v168h578v-606h487q137 0 225.5 -36t139.5 -94.5t70.5 -132t19.5 -147.5q0 -78 -20.5 -154.5t-74.5 -138t-149.5 -99.5t-242.5 -38h-647v1278h-386zM598 168h446q84 0 141.5 19.5t91.5 53t48 81t14 100.5q0 129 -73.5 189.5t-200.5 60.5h-467v-504z" />
<glyph unicode="&#x42b;" horiz-adv-x="1761" d="M160 0v1446h192v-606h447q137 0 225 -36t139 -94.5t70.5 -132t19.5 -147.5q0 -78 -20.5 -154.5t-74.5 -138t-149.5 -99.5t-242.5 -38h-606zM352 168h406q84 0 141 19.5t91 53t48.5 81t14.5 100.5q0 129 -74 189.5t-201 60.5h-426v-504zM1409 0v1446h193v-1446h-193z" />
<glyph unicode="&#x42c;" horiz-adv-x="1368" d="M160 0v1446h192v-606h488q137 0 225 -36t139 -94.5t70.5 -132t19.5 -147.5q0 -78 -20.5 -154.5t-74.5 -138t-149.5 -99.5t-242.5 -38h-647zM352 168h447q84 0 141 19.5t91 53t48.5 81t14.5 100.5q0 129 -74 189.5t-201 60.5h-467v-504z" />
<glyph unicode="&#x42d;" horiz-adv-x="1589" d="M70 449l204 24q14 -74 58.5 -138.5t109 -112.5t145.5 -75.5t171 -27.5q123 0 215 46t155.5 121.5t99.5 171t46 193.5h-754v168h754q-12 117 -54 211t-107.5 159.5t-154 101.5t-192.5 36q-33 0 -92.5 -7t-128 -37t-134 -91.5t-110.5 -167.5l-195 37q51 131 132 213 t176.5 128t194 63.5t184.5 17.5q143 0 269 -48.5t220 -143.5t149.5 -234t55.5 -324q0 -152 -34 -268.5t-90 -202.5t-131 -143.5t-155 -92t-159.5 -49t-149.5 -14.5q-117 0 -227.5 27.5t-202.5 87t-162 150.5t-106 221z" />
<glyph unicode="&#x42e;" horiz-adv-x="2174" d="M160 0v1446h192v-615h328q16 170 80.5 293t160 203t213 118t244.5 38q193 0 326 -73t215 -183.5t118 -241.5t36 -250q0 -141 -42 -279.5t-129 -248t-219.5 -177t-312.5 -67.5q-133 0 -255 43t-217 129t-153.5 218t-64.5 311h-328v-664h-192zM881 723q0 -143 35.5 -255 t101 -189.5t155 -118.5t197.5 -41q104 0 195.5 43t157 123t103.5 194.5t38 255.5q0 109 -32 215.5t-93.5 190.5t-151.5 135t-209 51q-127 0 -220 -49t-154.5 -133t-92 -193.5t-30.5 -228.5z" />
<glyph unicode="&#x42f;" horiz-adv-x="1392" d="M41 0q53 47 81 108.5t44 130t28.5 137t38 127t69.5 103.5t126 66q-57 10 -108.5 34.5t-90.5 67.5t-62.5 103.5t-23.5 140.5q0 106 36 186t100.5 134.5t151.5 81t190 26.5h612v-1446h-193v618h-272q-129 0 -204 -33.5t-116.5 -88t-59 -122t-30 -136t-31 -132t-61.5 -106.5 h-225zM344 1024q0 -131 69.5 -184.5t221.5 -53.5h405v492h-434q-78 0 -129 -23.5t-80.5 -60.5t-41 -82t-11.5 -88z" />
<glyph unicode="&#x430;" horiz-adv-x="1024" d="M66 246q0 16 3 41.5t14 54.5t31.5 59.5t55.5 57.5q37 27 85 46t101.5 31.5t105.5 19.5t99 11l152 15v28q0 33 -4 78t-24.5 86t-65 68.5t-125.5 27.5q-102 0 -155.5 -48t-53.5 -140v-14l-170 10q0 18 10 69.5t47 106.5t110.5 98t202.5 43q45 0 118 -11t130 -44 q49 -31 77 -64.5t42 -76.5t17 -95.5t3 -115.5v-340q0 -45 10.5 -80t63.5 -35q16 0 25.5 2t23.5 6v-135q-37 -12 -60.5 -15t-43.5 -3q-6 0 -41 3t-62 21q-29 23 -46 60t-19 59q-16 -23 -44 -51.5t-68 -53t-94 -41t-124 -16.5q-72 0 -132 19.5t-103 56.5t-67.5 88t-24.5 113z M242 250q0 -55 44 -102.5t142 -47.5q33 0 82 9.5t94 40t77 88t32 153.5v80q-29 -4 -77 -11t-99.5 -16.5t-99.5 -19.5t-77 -23q-12 -4 -31.5 -15t-39 -29.5t-33.5 -44t-14 -62.5z" />
<glyph unicode="&#x431;" horiz-adv-x="1118" d="M94 520q0 225 33 379t104.5 249t184 141t274.5 57q59 4 100 22t41 78h164q0 -135 -76.5 -194.5t-232.5 -73.5q-109 -10 -185.5 -37t-127.5 -74t-80 -117.5t-41 -169.5q72 98 153.5 141.5t204.5 43.5q104 0 184 -36t134.5 -100.5t81 -154.5t26.5 -199q0 -88 -25.5 -178 t-81 -163t-143.5 -119t-215 -46q-121 0 -211 41t-149 114t-88 174t-29 222zM283 479q0 -182 84 -280.5t213 -98.5q55 0 105 25t89 73t62.5 119.5t23.5 167.5q0 68 -19.5 131.5t-55 112.5t-87 79t-116.5 30q-74 0 -129.5 -30t-93 -80t-57 -114.5t-19.5 -134.5z" />
<glyph unicode="&#x432;" horiz-adv-x="1024" d="M135 0v965h473q96 0 156.5 -21.5t94.5 -56.5t46.5 -78t12.5 -86q0 -84 -35 -135t-99 -86q92 -27 133 -85.5t41 -160.5q0 -123 -89 -189.5t-248 -66.5h-486zM295 135h297q98 0 152.5 32t54.5 116q0 33 -9.5 61.5t-33 49t-63.5 31.5t-101 11h-297v-301zM295 571h266 q41 0 77 4.5t62.5 18.5t42 38.5t15.5 65.5t-15.5 67t-42 40t-62.5 19t-77 5h-266v-258z" />
<glyph unicode="&#x433;" horiz-adv-x="851" d="M135 0v965h696v-136h-536v-829h-160z" />
<glyph unicode="&#x434;" horiz-adv-x="1171" d="M20 135q76 18 125.5 83t79 158t42 206.5t12.5 230.5v152h692v-830h159v-381h-143v246h-823v-246h-144v381zM256 135h555v694h-385v-77q0 -66 -7 -153t-26.5 -175t-52.5 -166t-84 -123z" />
<glyph unicode="&#x435;" horiz-adv-x="1067" d="M82 492q0 137 45 233t113.5 155.5t150.5 87t158 27.5q80 0 158.5 -27.5t141 -89t102.5 -159.5t40 -240v-26h-733v-13q0 -55 16.5 -115.5t53.5 -111.5t97 -84t146 -33q63 0 108.5 22.5t75 56.5t46 72t24.5 70l166 -22q-8 -25 -31.5 -79t-72.5 -109.5t-130 -96.5t-202 -41 q-90 0 -175 28t-150.5 90.5t-106.5 161.5t-41 243zM262 571h551q0 59 -20.5 113.5t-56.5 95.5t-87 64.5t-112 23.5q-66 0 -115 -24.5t-83 -66.5t-52.5 -95t-24.5 -111z" />
<glyph unicode="&#x436;" horiz-adv-x="1314" d="M25 0q37 45 56 96t30.5 103.5t20.5 102.5t28.5 93t54.5 76t96 49q-74 27 -98.5 79t-37.5 115.5t-31.5 130t-77.5 120.5h184q37 -49 48 -116t25.5 -126t46 -100t111.5 -41h97v383h159v-383h97q80 0 111.5 41t46 100t25.5 125.5t48 116.5h184q-59 -53 -77.5 -120 t-32 -130.5t-38 -115.5t-97.5 -79q61 -16 96 -49t54.5 -76t28.5 -93t20 -102.5t29.5 -103.5t57.5 -96h-184q-39 72 -49 150.5t-27.5 144t-61.5 108.5t-151 43h-80v-446h-159v446h-80q-106 0 -150.5 -43t-62 -108.5t-27.5 -144t-49 -150.5h-184z" />
<glyph unicode="&#x437;" horiz-adv-x="978" d="M61 299l160 25q10 -43 23.5 -83t43 -71t81 -50.5t137.5 -19.5q47 0 91 7.5t77 26t52 49t19 79.5q0 84 -50 126t-179 42h-123v135h103q33 0 71.5 4t70.5 20.5t53.5 48.5t21.5 85q0 27 -12.5 52.5t-37 46t-63.5 33.5t-94 13q-35 0 -75 -8t-77 -28.5t-64.5 -57.5t-37.5 -94 l-160 20q14 141 128 218t296 77q55 0 118.5 -11t119 -40t91.5 -78t36 -125q0 -78 -39 -136t-150 -93q66 -12 109 -37.5t67.5 -60.5t34.5 -74t10 -78q0 -137 -103 -215t-306 -78q-84 0 -159 14.5t-133 51.5t-98 100.5t-53 163.5z" />
<glyph unicode="&#x438;" horiz-adv-x="1105" d="M135 0v965h160v-650l516 547v103h160v-965h-160v666l-516 -547v-119h-160z" />
<glyph unicode="&#x439;" horiz-adv-x="1105" d="M135 0v965h160v-650l516 547v103h160v-965h-160v666l-516 -547v-119h-160zM256 1380l131 21q16 -82 65.5 -108.5t100.5 -26.5q25 0 52.5 6t50 21.5t40 41t23.5 66.5l131 -21q-16 -115 -98 -180t-199 -65t-199 65.5t-98 179.5z" />
<glyph unicode="&#x43a;" horiz-adv-x="978" d="M135 0v965h160v-383h194q59 0 93 19.5t53.5 50t29 71.5t18.5 83t22.5 84t39.5 75h185q-43 -35 -64.5 -79t-34 -90t-19.5 -91.5t-22.5 -83t-44 -64.5t-81.5 -37q61 -16 96 -49t54.5 -76t28.5 -93t20 -102.5t29.5 -103.5t57.5 -96h-184q-27 47 -39 99.5t-20.5 102.5 t-18.5 94t-33.5 78t-66.5 53t-115 19h-178v-446h-160z" />
<glyph unicode="&#x43b;" horiz-adv-x="1052" d="M20 0v135h25q53 0 88 23.5t55.5 90t28.5 184.5t8 308v224h693v-965h-160v829h-385v-88q0 -170 -5.5 -307t-36 -233.5t-97 -148.5t-189.5 -52h-25z" />
<glyph unicode="&#x43c;" horiz-adv-x="1310" d="M135 0v965h242l295 -801l295 801h209v-965h-144v793l-291 -793h-168l-278 809v-809h-160z" />
<glyph unicode="&#x43d;" horiz-adv-x="1085" d="M135 0v965h160v-392h496v392h159v-965h-159v438h-496v-438h-160z" />
<glyph unicode="&#x43e;" horiz-adv-x="1110" d="M82 481q0 39 7 92.5t26.5 110.5t53.5 112.5t88 99.5t131 71.5t181 27.5q94 0 178 -29.5t146.5 -92t98.5 -157.5t36 -224t-38 -227.5t-102.5 -164t-150.5 -98.5t-182 -33q-102 0 -188 34t-149.5 98.5t-99.5 159.5t-36 220zM258 473q0 -43 9 -106.5t40 -123t89.5 -101.5 t156.5 -42q147 0 223 107.5t76 296.5q0 61 -13.5 125.5t-46 117t-88 85t-137.5 32.5q-115 0 -178 -52t-92 -119.5t-34 -132t-5 -87.5z" />
<glyph unicode="&#x43f;" horiz-adv-x="1069" d="M135 0v965h799v-965h-160v829h-479v-829h-160z" />
<glyph unicode="&#x440;" horiz-adv-x="1150" d="M135 -459v1424h160v-138q20 25 53 54.5t76 55.5t97 42t118 16q74 0 151.5 -29.5t140 -93t102.5 -161t40 -232.5q0 -84 -22.5 -173t-74.5 -164.5t-139 -124t-216 -48.5q-92 0 -182.5 35t-143.5 109v-572h-160zM295 465q0 -166 81 -259t222 -93q147 0 223 101t76 271 q0 98 -26.5 167t-67.5 111t-93.5 61.5t-101.5 19.5q-141 0 -227 -98.5t-86 -280.5z" />
<glyph unicode="&#x441;" horiz-adv-x="1067" d="M82 475q0 109 29.5 203t88 164.5t146.5 111.5t205 41q109 0 188.5 -30.5t133 -78.5t83 -105.5t39.5 -108.5l-180 -17q-18 104 -85.5 158.5t-176.5 54.5q-55 0 -108.5 -19.5t-95.5 -64.5t-66.5 -118.5t-24.5 -180.5q0 -86 19.5 -156.5t57.5 -120.5t95 -79t133 -29 q70 0 119 20.5t81 55.5t50 84t25 105l176 -17q-20 -104 -62.5 -177t-101.5 -118t-134 -64.5t-157 -19.5q-115 0 -203 38t-149.5 104.5t-93 160t-31.5 203.5z" />
<glyph unicode="&#x442;" horiz-adv-x="860" d="M29 829v136h802v-136h-321v-829h-160v829h-321z" />
<glyph unicode="&#x443;" horiz-adv-x="894" d="M18 -309q18 -6 44 -11.5t65 -5.5q37 0 62.5 8.5t47 31t40 61.5t38.5 100l41 119l-327 971h174l241 -766l256 766h170l-405 -1141q-29 -82 -55.5 -139.5t-60.5 -93t-78 -52t-107 -16.5q-25 0 -60.5 3t-85.5 17v148z" />
<glyph unicode="&#x444;" horiz-adv-x="1310" d="M82 477q0 233 122 351t371 137v481h160v-481q139 -8 234.5 -46t153 -100.5t82 -146.5t24.5 -187q0 -133 -37 -224t-103.5 -148.5t-156.5 -84t-197 -28.5v-459h-160v459q-152 2 -247 44t-150 108.5t-75.5 151.5t-20.5 173zM258 473q0 -70 14.5 -129t51 -104t98 -73 t153.5 -36v703q-55 -6 -111 -21.5t-102.5 -53.5t-75 -106.5t-28.5 -179.5zM735 131q102 6 165 37t96.5 79t45 108.5t11.5 123.5q0 76 -14.5 137.5t-50.5 106.5t-97.5 72.5t-155.5 38.5v-703z" />
<glyph unicode="&#x445;" horiz-adv-x="811" d="M18 0l299 489l-284 476h188l193 -332l194 332h185l-291 -476l291 -489h-185l-205 344l-200 -344h-185z" />
<glyph unicode="&#x446;" horiz-adv-x="1134" d="M135 0v965h160v-830h479v830h160v-830h160v-381h-144v246h-815z" />
<glyph unicode="&#x447;" horiz-adv-x="966" d="M90 633v332h160v-289q0 -98 51 -136t156 -38q49 0 112.5 11t102.5 26v426h159v-965h-159v403q-59 -12 -125 -22t-144 -10q-147 0 -230 66.5t-83 195.5z" />
<glyph unicode="&#x448;" horiz-adv-x="1503" d="M135 0v965h160v-820h377v820h159v-820h377v820h160v-965h-1233z" />
<glyph unicode="&#x449;" horiz-adv-x="1568" d="M135 0v965h160v-820h377v820h159v-820h377v820h160v-830h160v-381h-144v246h-1249z" />
<glyph unicode="&#x44a;" horiz-adv-x="1167" d="M20 829v136h443v-379h317q92 0 155.5 -23.5t101.5 -62.5t55.5 -90.5t17.5 -108.5q0 -88 -23.5 -145.5t-70.5 -92t-118 -49t-163 -14.5h-432v829h-283zM463 135h256q45 0 86 7.5t69.5 25.5t46 49t17.5 78q0 96 -63.5 126t-169.5 30h-242v-316z" />
<glyph unicode="&#x44b;" horiz-adv-x="1302" d="M135 0v965h160v-379h266q92 0 155.5 -23.5t102.5 -62.5t56.5 -90.5t17.5 -108.5q0 -88 -23.5 -145.5t-70.5 -92t-118 -49t-165 -14.5h-381zM295 135h205q47 0 87 7.5t69.5 25.5t47 49t17.5 78q0 49 -16.5 78.5t-47 47t-74.5 24t-98 6.5h-190v-316zM1008 0v965h159v-965 h-159z" />
<glyph unicode="&#x44c;" horiz-adv-x="999" d="M135 0v965h160v-379h317q92 0 155.5 -23.5t101.5 -62.5t55.5 -90.5t17.5 -108.5q0 -88 -23.5 -145.5t-70.5 -92t-118 -49t-163 -14.5h-432zM295 135h256q45 0 86 7.5t69.5 25.5t46 49t17.5 78q0 96 -63.5 126t-169.5 30h-242v-316z" />
<glyph unicode="&#x44d;" horiz-adv-x="1077" d="M61 307l160 17q16 -76 55 -120t83 -67.5t86 -30t67 -6.5q68 0 123 25t94 68t61.5 101t24.5 126h-455v135h455q-10 115 -47 178.5t-83 93t-92 35.5t-71 6q-45 0 -88 -12t-79 -35.5t-62.5 -59.5t-34.5 -81l-174 12q12 51 45 105.5t88 98.5t132 71.5t177 27.5 q104 0 190.5 -30.5t148 -93t96 -160t34.5 -230.5q0 -47 -9 -102t-29.5 -112.5t-56.5 -111t-89 -95.5t-126 -66.5t-169 -24.5q-78 0 -151.5 17.5t-135 57.5t-105.5 104.5t-63 158.5z" />
<glyph unicode="&#x44e;" horiz-adv-x="1536" d="M135 0v965h160v-392h248q8 66 33.5 140.5t79 137t140.5 103.5t220 41q84 0 162.5 -29.5t140 -92t98.5 -157.5t37 -224q0 -123 -36 -219.5t-97 -164t-143 -103.5t-177 -36q-203 0 -327.5 120t-136.5 349h-242v-438h-160zM713 473q0 -45 9 -108.5t39 -122t86 -100.5 t152 -42q76 0 129.5 32t86 86t48 127t15.5 153q0 63 -14.5 127.5t-48 118t-87 87t-129.5 33.5q-106 0 -164.5 -52t-85 -119.5t-31.5 -132t-5 -87.5z" />
<glyph unicode="&#x44f;" horiz-adv-x="1024" d="M61 0q49 37 64.5 99.5t32 128t51.5 123t125 85.5q-45 6 -80 27.5t-57.5 53.5t-34.5 69t-12 73q0 166 93 236t246 70h400v-965h-160v387h-203q-68 0 -108.5 -21.5t-64 -56.5t-35 -79t-19.5 -87t-18.5 -80.5t-30.5 -62.5h-189zM309 676q0 -29 7.5 -55.5t26.5 -49t51 -36 t81 -13.5h254v307h-258q-49 0 -81 -16t-49 -40.5t-24.5 -51.5t-7.5 -45z" />
<glyph unicode="&#x451;" horiz-adv-x="1067" d="M82 492q0 137 45 233t113.5 155.5t150.5 87t158 27.5q80 0 158.5 -27.5t141 -89t102.5 -159.5t40 -240v-26h-733v-13q0 -55 16.5 -115.5t53.5 -111.5t97 -84t146 -33q63 0 108.5 22.5t75 56.5t46 72t24.5 70l166 -22q-8 -25 -31.5 -79t-72.5 -109.5t-130 -96.5t-202 -41 q-90 0 -175 28t-150.5 90.5t-106.5 161.5t-41 243zM262 571h551q0 59 -20.5 113.5t-56.5 95.5t-87 64.5t-112 23.5q-66 0 -115 -24.5t-83 -66.5t-52.5 -95t-24.5 -111zM262 1237v209h160v-209h-160zM645 1237v209h160v-209h-160z" />
<glyph unicode="&#x452;" horiz-adv-x="1067" d="M-70 1094v135h205v217h160v-217h389v-135h-389v-310q43 45 85 71t81 39t72.5 16t58.5 3q111 0 178.5 -34.5t104 -89t50 -120t13.5 -126.5v-756q0 -53 -6 -103.5t-45 -91.5q-41 -43 -89 -52t-77 -9q-31 0 -61.5 2t-61.5 6v146q29 -4 43 -5.5t31 -1.5q8 0 29.5 2.5 t43.5 18.5q25 16 29 47t4 86v651q0 41 -3 83t-17 79q-25 63 -79 94t-120 31q-16 0 -43 -4t-57.5 -16.5t-62 -36t-56.5 -64.5q-35 -59 -40 -123.5t-5 -128.5v-397h-160v1094h-205z" />
<glyph unicode="&#x453;" horiz-adv-x="851" d="M135 0v965h696v-136h-536v-829h-160zM393 1069l84 295h177l-177 -295h-84z" />
<glyph unicode="&#x454;" horiz-adv-x="1077" d="M82 475q0 109 29.5 203t90 164.5t149.5 111.5t208 41q111 0 191.5 -27.5t135 -70.5t84 -97.5t38.5 -107.5l-174 -12q-14 92 -87 140t-184 48q-59 0 -111.5 -18.5t-92.5 -57t-65.5 -97t-31.5 -140.5h455v-135h-455q2 -68 24.5 -126t61.5 -101t94.5 -68t122.5 -25 q25 0 67 6.5t86 30t83 67.5t55 120l160 -17q-18 -94 -62.5 -158.5t-106 -104.5t-135 -57.5t-151.5 -17.5q-115 0 -204 38t-150.5 104.5t-93 160t-31.5 203.5z" />
<glyph unicode="&#x455;" horiz-adv-x="980" d="M63 311l187 27q0 -47 9 -89t44 -81q43 -47 100.5 -60.5t116.5 -13.5q31 0 69 6t72.5 23.5t58 49.5t23.5 83q0 43 -19 70.5t-48 44t-65 24.5t-68 15l-94 18q-98 18 -165 46t-107 62.5t-56.5 77.5t-16.5 95q0 80 34 134t88.5 88t121 49t131.5 15q76 0 135.5 -16t103.5 -42 t73.5 -55.5t48.5 -56.5q29 -45 38 -85t13 -62l-176 -21q-2 35 -4 54.5t-11 36.5q-10 20 -29.5 41.5t-49 40t-71.5 29.5t-93 11q-49 0 -86 -13t-59.5 -33.5t-34 -46t-11.5 -48.5q0 -63 61.5 -94t172.5 -57l94 -23q68 -16 126 -36.5t102 -53.5t68.5 -79t24.5 -112 q0 -70 -30.5 -126t-85 -96t-128 -61.5t-159.5 -21.5q-117 0 -198 27t-133 74t-79.5 108.5t-38.5 132.5z" />
<glyph unicode="&#x456;" horiz-adv-x="430" d="M135 0v965h160v-965h-160zM135 1237v209h160v-209h-160z" />
<glyph unicode="&#x457;" horiz-adv-x="491" d="M41 1237v209h152v-209h-152zM166 0v965h160v-965h-160zM299 1237v209h152v-209h-152z" />
<glyph unicode="&#x458;" horiz-adv-x="430" d="M-45 -315q29 -4 43 -5.5t31 -1.5q8 0 29.5 2.5t43.5 18.5q25 16 29 47t4 86v1133h160v-1178q0 -53 -6 -103.5t-45 -91.5q-41 -43 -89.5 -52t-76.5 -9q-31 0 -61.5 2t-61.5 6v146zM135 1237v209h160v-209h-160z" />
<glyph unicode="&#x459;" horiz-adv-x="1556" d="M20 0v135h25q53 0 88 23.5t55.5 90t28.5 184.5t8 308v224h668v-379h276q92 0 156 -23.5t101.5 -62.5t55 -90.5t17.5 -108.5q0 -88 -23.5 -145.5t-70.5 -92t-117.5 -49t-163.5 -14.5h-391v829h-360v-88q0 -170 -5.5 -307t-36 -233.5t-97 -148.5t-189.5 -52h-25zM893 135 h215q45 0 86 7.5t69.5 25.5t46 49t17.5 78q0 96 -63.5 126t-169.5 30h-201v-316z" />
<glyph unicode="&#x45a;" horiz-adv-x="1597" d="M135 0v965h160v-379h479v379h160v-379h276q92 0 156 -23.5t101.5 -62.5t55 -90.5t17.5 -108.5q0 -88 -23.5 -145.5t-70.5 -92t-118 -49t-163 -14.5h-391v451h-479v-451h-160zM934 135h215q45 0 86 7.5t69.5 25.5t46 49t17.5 78q0 96 -63.5 126t-169.5 30h-201v-316z" />
<glyph unicode="&#x45b;" horiz-adv-x="1067" d="M-70 1094v135h205v217h160v-217h389v-135h-389v-310q43 45 85 71t81 39t72.5 16t58.5 3q111 0 178.5 -34.5t104 -89t50 -120t13.5 -126.5v-543h-160v483q0 41 -3 83t-17 79q-25 63 -79 94t-120 31q-16 0 -43 -4t-57.5 -16.5t-62 -36t-56.5 -64.5q-35 -59 -40 -123.5 t-5 -128.5v-397h-160v1094h-205z" />
<glyph unicode="&#x45c;" horiz-adv-x="978" d="M135 0v965h160v-383h194q59 0 93 19.5t53.5 50t29 71.5t18.5 83t22.5 84t39.5 75h185q-43 -35 -64.5 -79t-34 -90t-19.5 -91.5t-22.5 -83t-44 -64.5t-81.5 -37q61 -16 96 -49t54.5 -76t28.5 -93t20 -102.5t29.5 -103.5t57.5 -96h-184q-27 47 -39 99.5t-20.5 102.5 t-18.5 94t-33.5 78t-66.5 53t-115 19h-178v-446h-160zM454 1069l84 295h177l-177 -295h-84z" />
<glyph unicode="&#x45e;" horiz-adv-x="894" d="M18 -309q18 -6 44 -11.5t65 -5.5q37 0 62.5 8.5t47 31t40 61.5t38.5 100l41 119l-327 971h174l241 -766l256 766h170l-405 -1141q-29 -82 -55.5 -139.5t-60.5 -93t-78 -52t-107 -16.5q-25 0 -60.5 3t-85.5 17v148zM164 1380l133 21q16 -82 65 -108.5t101 -26.5q25 0 52 6 t49.5 21.5t40 41t23.5 66.5l131 -21q-16 -115 -98 -180t-198 -65q-115 0 -199 65.5t-100 179.5z" />
<glyph unicode="&#x45f;" horiz-adv-x="1069" d="M135 0v965h160v-830h479v830h160v-965h-328v-287h-143v287h-328z" />
<glyph unicode="&#x490;" horiz-adv-x="1110" d="M160 0v1446h751v307h176v-475h-735v-1278h-192z" />
<glyph unicode="&#x491;" horiz-adv-x="851" d="M135 0v965h549v245h147v-381h-536v-829h-160z" />
<glyph unicode="&#x2013;" horiz-adv-x="1228" d="M92 537v155h1045v-155h-1045z" />
<glyph unicode="&#x2014;" horiz-adv-x="1832" d="M92 537v155h1649v-155h-1649z" />
<glyph unicode="&#x2018;" horiz-adv-x="468" d="M129 901v105q0 70 4 123t14.5 102t26.5 99t41 116h96q-29 -82 -44 -159t-23 -163h88v-223h-203z" />
<glyph unicode="&#x2019;" horiz-adv-x="468" d="M129 1221v225h203v-107q0 -111 -19.5 -222t-64.5 -216h-96q27 76 47 158t20 162h-90z" />
<glyph unicode="&#x201a;" horiz-adv-x="468" d="M129 0v223h203v-123q0 -111 -19.5 -215t-64.5 -204h-96q27 76 47 157.5t20 161.5h-90z" />
<glyph unicode="&#x201c;" horiz-adv-x="768" d="M129 901v117q0 111 20.5 218t65.5 210h96q-27 -72 -47 -158t-20 -164h88v-223h-203zM434 901v117q0 111 20.5 218t65.5 210h94q-14 -33 -25 -74t-20.5 -84t-14.5 -85t-5 -79h88v-223h-203z" />
<glyph unicode="&#x201d;" horiz-adv-x="768" d="M129 1221v225h203v-125q0 -111 -19.5 -215.5t-64.5 -204.5h-96q27 76 47 158t20 162h-90zM434 1221v225h203v-137q0 -104 -21.5 -207t-64.5 -201h-94q14 45 25.5 83t18.5 74t12 74.5t9 88.5h-88z" />
<glyph unicode="&#x201e;" horiz-adv-x="768" d="M129 0v223h203v-123q0 -111 -19.5 -215t-64.5 -204h-96q27 76 47 157.5t20 161.5h-90zM434 0v223h203v-137q0 -104 -22.5 -206.5t-63.5 -198.5h-94q14 43 24.5 80.5t18.5 75.5t13 77t9 86h-88z" />
<glyph unicode="&#x2020;" horiz-adv-x="937" d="M41 862v162h350v422h164v-422h348v-162h-348v-862h-164v862h-350z" />
<glyph unicode="&#x2021;" horiz-adv-x="937" d="M39 371v161h352v330h-350v162h350v422h164v-422h348v-162h-348v-330h348v-161h-348v-371h-164v371h-352z" />
<glyph unicode="&#x2022;" horiz-adv-x="681" d="M109 494v464h466v-464h-466z" />
<glyph unicode="&#x2026;" horiz-adv-x="2048" d="M244 0v190h192v-190h-192zM926 0v190h194v-190h-194zM1610 0v190h194v-190h-194z" />
<glyph unicode="&#x2030;" horiz-adv-x="2560" d="M53 928q0 74 16.5 155.5t55.5 152.5t103.5 117t158.5 46q66 0 126 -30t107.5 -89t75 -148.5t27.5 -207.5q0 -66 -14.5 -147t-51 -151.5t-101 -118.5t-167.5 -48q-80 0 -142.5 34.5t-105.5 97t-65.5 148t-22.5 189.5zM188 938q0 -23 3.5 -82t21.5 -120.5t59 -109.5 t117 -48q41 0 78 18t64.5 58t43 106t15.5 164q0 121 -22.5 191.5t-55.5 107.5t-67.5 48t-59.5 11q-53 0 -90 -27.5t-60.5 -74.5t-35 -109.5t-11.5 -132.5zM508 -6l651 1403l111 -54l-649 -1402zM1069 451q0 74 16.5 155.5t55.5 152t103.5 117t158.5 46.5q66 0 126 -30 t107 -89.5t75 -148.5t28 -208q0 -66 -14.5 -146.5t-51.5 -151t-101.5 -118.5t-166.5 -48q-80 0 -142.5 34.5t-105.5 97t-65.5 148t-22.5 189.5zM1204 461q0 -23 3 -82.5t21.5 -120.5t59.5 -109.5t117 -48.5q41 0 78 18.5t64.5 58.5t43 105.5t15.5 163.5q0 121 -22.5 192 t-55.5 107.5t-68 48t-59 11.5q-53 0 -90 -27.5t-60.5 -75t-35 -110t-11.5 -131.5zM1839 451q0 74 16.5 155.5t55.5 152t103.5 117t158.5 46.5q66 0 126 -30t107.5 -89.5t75 -148.5t27.5 -208q0 -66 -14.5 -146.5t-51.5 -151t-101.5 -118.5t-166.5 -48q-80 0 -142.5 34.5 t-105.5 97t-65.5 148t-22.5 189.5zM1974 461q0 -23 3 -82.5t21.5 -120.5t59.5 -109.5t117 -48.5q41 0 78 18.5t64.5 58.5t43 105.5t15.5 163.5q0 121 -22.5 192t-55.5 107.5t-68 48t-59 11.5q-53 0 -90 -27.5t-60.5 -75t-35 -110t-11.5 -131.5z" />
<glyph unicode="&#x2039;" horiz-adv-x="512" d="M98 520v170l275 238v-183l-164 -145l164 -135v-176z" />
<glyph unicode="&#x203a;" horiz-adv-x="512" d="M139 274v185l164 143l-164 137v174l275 -231v-170z" />
<glyph unicode="&#x2044;" horiz-adv-x="256" d="M-252 -6l651 1403l111 -54l-649 -1402z" />
<glyph unicode="&#x20ac;" horiz-adv-x="1433" d="M47 547l47 127h103v50.5t4 49.5h-154l47 127h121q53 281 228 431.5t462 150.5q139 0 257 -30t227 -124l-66 -186q-78 100 -174 143t-223 43q-213 0 -337 -111.5t-165 -316.5h817l-45 -127h-786v-41q0 -16 1 -33.5t1 -25.5h749l-45 -127h-690q37 -203 166 -312.5 t336 -109.5q131 0 253 51t205 156v-217q-104 -84 -228 -118t-255 -34q-285 0 -466 150.5t-228 433.5h-162z" />
<glyph unicode="&#x2116;" horiz-adv-x="2347" d="M147 0v1446h187l721 -1112v1112h188v-1446h-184l-723 1100v-1100h-189zM1403 1004q0 49 15.5 124.5t60.5 146.5t124.5 121t208.5 50q72 0 140.5 -25.5t123 -79t87 -135.5t32.5 -194q0 -109 -31.5 -194t-87 -143.5t-128 -89t-152.5 -30.5q-102 0 -176 40t-122 103.5 t-71.5 144.5t-23.5 161zM1438 266v162h735v-162h-735zM1575 1001q0 -57 11 -111t38 -97t68 -69t100 -26t103 28t73 73t43 101t14 114q0 53 -13 106.5t-39.5 96.5t-69.5 69.5t-101 26.5q-76 0 -121 -41t-68.5 -94.5t-30.5 -105t-7 -71.5z" />
<glyph unicode="&#x2122;" horiz-adv-x="1421" d="M49 1346v100h510v-100h-194v-580h-121v580h-195zM629 766v680h159l168 -543l162 543h154v-680h-111v42v70t1 86t1 93q0 111 2 243l-159 -534h-111l-154 526v-237v-92t1 -85t1 -70v-42h-114z" />
<glyph unicode="&#x2202;" horiz-adv-x="1112" d="M86 410q0 104 30.5 190t88 148.5t136.5 96.5t175 34q152 0 272 -88v24q0 504 -294 504q-39 0 -78 -7t-111 -30l-22 152q119 43 243 43q231 0 338 -172t107 -541q0 -186 -25.5 -332.5t-82 -247t-146.5 -154t-217 -53.5q-92 0 -168 31t-131.5 88.5t-85 137t-29.5 176.5z M266 410q0 -131 63.5 -207t174.5 -76q135 0 201.5 119.5t70.5 369.5q-59 55 -120.5 83t-129.5 28q-121 0 -190.5 -85t-69.5 -232z" />
<glyph unicode="&#x2206;" horiz-adv-x="1310" d="M-8 0l567 1446h199l561 -1446h-1327zM266 168h778l-391 1044z" />
<glyph unicode="&#x220f;" horiz-adv-x="1443" d="M139 -250v1696h1164v-1696h-183v1526h-794v-1526h-187z" />
<glyph unicode="&#x2211;" horiz-adv-x="1214" d="M59 -90l572 706l-572 666v164h1106v-170l-876 2l575 -655l-590 -703h889v-170h-1104v160z" />
<glyph unicode="&#x221a;" horiz-adv-x="1484" d="M127 307l305 137l254 -583l455 1585h186l-541 -1825h-178l-276 602l-139 -63z" />
<glyph unicode="&#x221e;" d="M63 606q0 82 26 153.5t70 125t104.5 83t129.5 29.5q98 0 182.5 -58.5t172.5 -195.5q96 137 178 195.5t174 58.5q70 0 128 -28.5t101 -78.5t66.5 -119t23.5 -150q0 -84 -25.5 -156t-70.5 -125t-106.5 -83t-133.5 -30q-53 0 -95 12.5t-83 41t-83 77t-91 119.5 q-53 -76 -99 -124t-88 -75.5t-82 -38t-83 -10.5q-70 0 -127 28t-99 78t-66 119.5t-24 151.5zM221 614q0 -98 47 -162.5t119 -64.5q29 0 54.5 9.5t55 34t65.5 67t83 110.5q-72 123 -133 176.5t-125 53.5q-72 0 -119 -62.5t-47 -161.5zM838 614q72 -117 130 -173t130 -56 t119 61.5t47 159.5q0 100 -46.5 165t-115.5 65q-59 0 -119.5 -51.5t-144.5 -170.5z" />
<glyph unicode="&#x222b;" horiz-adv-x="690" d="M70 -174q33 -20 53 -28.5t45 -8.5q14 0 29.5 3t29 15.5t21.5 36t8 64.5v1323q0 80 26.5 129t63.5 74.5t77 34t66 8.5q63 0 136 -27v-166q-35 23 -57.5 32t-45.5 9q-41 0 -66.5 -24.5t-25.5 -104.5v-1311q0 -127 -67.5 -186t-159.5 -59q-35 0 -64.5 5t-68.5 19v162z" />
<glyph unicode="&#x2248;" d="M152 387q78 106 150.5 153.5t172.5 47.5q27 0 52.5 -3t56 -12.5t69.5 -25t95 -39.5l92 -41q35 -16 59.5 -25.5t41.5 -14.5t30.5 -7t29.5 -2q63 0 120 32.5t122 116.5l90 -125q-49 -55 -91 -93t-82 -60.5t-81 -31.5t-84 -9q-51 0 -109.5 18.5t-135.5 55.5l-72 34 q-70 35 -119 47.5t-94 12.5q-35 0 -61.5 -8.5t-52 -27t-52.5 -47t-57 -69.5zM152 786q78 106 150.5 153.5t170.5 47.5q27 0 51.5 -3t54 -11t69.5 -23.5t100 -42.5l92 -41q37 -16 60.5 -25.5t40.5 -14.5t30.5 -7t29.5 -2q63 0 116.5 32t125.5 118l90 -125q-94 -109 -172 -152 t-166 -43q-47 0 -100 14.5t-145 59.5l-72 35q-72 35 -120 47t-93 12q-35 0 -61.5 -8t-52 -26.5t-52.5 -47t-57 -69.5z" />
<glyph unicode="&#x2260;" d="M203 334v158h405l107 223h-512v162h594l159 323h156l-160 -323h328v-162h-410l-106 -223h516v-158h-594l-170 -346h-156l168 346h-325z" />
<glyph unicode="&#x2264;" d="M262 0v162h955v-162h-955zM262 709v184l955 448v-180l-789 -362l789 -367v-186z" />
<glyph unicode="&#x2265;" d="M266 0v162h955v-162h-955zM266 246v180l789 360l-789 367v188l955 -462v-185z" />
<glyph unicode="&#x25ca;" d="M285 723l372 723h181l360 -723l-371 -723h-178zM469 725l268 -563l283 565l-272 559z" />
<glyph unicode="&#x25fc;" horiz-adv-x="962" d="M0 0v963h963v-963h-963z" />
</font>
</defs>
</svg>
